<?xml version="1.0" encoding="UTF-8" standalone="no"?>
<!-- Created with Inkscape (http://www.inkscape.org/) -->

<svg
   version="1.1"
   id="svg2"
   width="200"
   height="200"
   viewBox="0 0 200 200"
   sodipodi:docname="Careers.ai"
   xmlns:inkscape="http://www.inkscape.org/namespaces/inkscape"
   xmlns:sodipodi="http://sodipodi.sourceforge.net/DTD/sodipodi-0.dtd"
   xmlns="http://www.w3.org/2000/svg"
   xmlns:svg="http://www.w3.org/2000/svg">
  <defs
     id="defs6">
    <clipPath
       clipPathUnits="userSpaceOnUse"
       id="clipPath16">
      <path
         d="M 0,150 H 150 V 0 H 0 Z"
         id="path14" />
    </clipPath>
  </defs>
  <sodipodi:namedview
     id="namedview4"
     pagecolor="#ffffff"
     bordercolor="#000000"
     borderopacity="0.25"
     inkscape:showpageshadow="2"
     inkscape:pageopacity="0.0"
     inkscape:pagecheckerboard="0"
     inkscape:deskcolor="#d1d1d1" />
  <g
     id="g8"
     inkscape:groupmode="layer"
     inkscape:label="Careers"
     transform="matrix(1.3333333,0,0,-1.3333333,0,200)">
    <g
       id="g10">
      <g
         id="g12"
         clip-path="url(#clipPath16)">
        <g
           id="g18"
           transform="translate(125.3199,96.485)">
          <path
             d="m 0,0 v -28.11 h -33.23 c -2.67,0 -5.09,-1.61 -6.12,-4.08 -1.79,-4.29 -6.03,-7.3 -10.96,-7.3 -4.95,0 -9.19,3.01 -10.98,7.3 -1.03,2.47 -3.45,4.08 -6.12,4.08 h -33.23 V 0 c 0,3.19 2.58,5.79 5.79,5.79 h 23.12 V 5.78 h 42.82 V 5.79 H -5.79 C -2.58,5.79 0,3.19 0,0"
             style="fill:#ffffff;fill-opacity:1;fill-rule:nonzero;stroke:none"
             id="path20" />
        </g>
        <g
           id="g22"
           transform="translate(125.3199,68.375)">
          <path
             d="m 0,0 v -30.43 c 0,-3.2 -2.58,-5.79 -5.79,-5.79 h -89.06 c -3.21,0 -5.79,2.59 -5.79,5.79 V 0 h 33.23 c 2.67,0 5.09,-1.61 6.12,-4.08 1.79,-4.29 6.03,-7.3 10.98,-7.3 4.93,0 9.17,3.01 10.96,7.3 1.03,2.47 3.45,4.08 6.12,4.08 z"
             style="fill:#bffeff;fill-opacity:1;fill-rule:nonzero;stroke:none"
             id="path24" />
        </g>
        <g
           id="g26"
           transform="translate(125.3199,96.485)">
          <path
             d="m 0,0 v -28.11 h -33.23 c -2.67,0 -5.09,-1.61 -6.12,-4.08 -1.79,-4.29 -6.03,-7.3 -10.96,-7.3 -4.95,0 -9.19,3.01 -10.98,7.3 -1.03,2.47 -3.45,4.08 -6.12,4.08 h -33.23 V 0 c 0,3.19 2.58,5.79 5.79,5.79 h 23.12 V 5.78 h 42.82 V 5.79 H -5.79 C -2.58,5.79 0,3.19 0,0 Z"
             style="fill:none;stroke:#000000;stroke-width:1.5;stroke-linecap:round;stroke-linejoin:round;stroke-miterlimit:10;stroke-dasharray:none;stroke-opacity:1"
             id="path28" />
        </g>
        <g
           id="g30"
           transform="translate(96.41,102.275)">
          <path
             d="M 0,0 H -42.82"
             style="fill:none;stroke:#000000;stroke-width:1.5;stroke-linecap:round;stroke-linejoin:round;stroke-miterlimit:10;stroke-dasharray:none;stroke-opacity:1"
             id="path32" />
        </g>
        <g
           id="g34"
           transform="translate(125.3199,68.375)">
          <path
             d="m 0,0 v -30.43 c 0,-3.2 -2.58,-5.79 -5.79,-5.79 h -89.06 c -3.21,0 -5.79,2.59 -5.79,5.79 V 0 h 33.23 c 2.67,0 5.09,-1.61 6.12,-4.08 1.79,-4.29 6.03,-7.3 10.98,-7.3 4.93,0 9.17,3.01 10.96,7.3 1.03,2.47 3.45,4.08 6.12,4.08 z"
             style="fill:none;stroke:#000000;stroke-width:1.5;stroke-linecap:round;stroke-linejoin:round;stroke-miterlimit:10;stroke-dasharray:none;stroke-opacity:1"
             id="path36" />
        </g>
        <g
           id="g38"
           transform="translate(96.41,108.965)">
          <path
             d="M 0,0 V -6.7 H -42.82 V 0 c 0,4.9 3.97,8.88 8.87,8.88 H -8.87 C -3.97,8.88 0,4.9 0,0 Z"
             style="fill:none;stroke:#000000;stroke-width:1.5;stroke-linecap:round;stroke-linejoin:round;stroke-miterlimit:10;stroke-dasharray:none;stroke-opacity:1"
             id="path40" />
        </g>
      </g>
    </g>
  </g>
</svg>
