<?xml version="1.0" encoding="UTF-8" standalone="no"?>
<!-- Created with Inkscape (http://www.inkscape.org/) -->

<svg
   version="1.1"
   id="svg2"
   width="200"
   height="200"
   viewBox="0 0 200 200"
   sodipodi:docname="Community.ai"
   xmlns:inkscape="http://www.inkscape.org/namespaces/inkscape"
   xmlns:sodipodi="http://sodipodi.sourceforge.net/DTD/sodipodi-0.dtd"
   xmlns="http://www.w3.org/2000/svg"
   xmlns:svg="http://www.w3.org/2000/svg">
  <defs
     id="defs6">
    <clipPath
       clipPathUnits="userSpaceOnUse"
       id="clipPath16">
      <path
         d="M 0,150 H 150 V 0 H 0 Z"
         id="path14" />
    </clipPath>
  </defs>
  <sodipodi:namedview
     id="namedview4"
     pagecolor="#ffffff"
     bordercolor="#000000"
     borderopacity="0.25"
     inkscape:showpageshadow="2"
     inkscape:pageopacity="0.0"
     inkscape:pagecheckerboard="0"
     inkscape:deskcolor="#d1d1d1" />
  <g
     id="g8"
     inkscape:groupmode="layer"
     inkscape:label="Community"
     transform="matrix(1.3333333,0,0,-1.3333333,0,200)">
    <g
       id="g10">
      <g
         id="g12"
         clip-path="url(#clipPath16)">
        <g
           id="g18"
           transform="translate(129.507,75)">
          <path
             d="m 0,0 c 0,-30.103 -24.404,-54.507 -54.507,-54.507 -30.103,0 -54.507,24.404 -54.507,54.507 0,30.103 24.404,54.507 54.507,54.507 C -24.404,54.507 0,30.103 0,0"
             style="fill:#deffc2;fill-opacity:1;fill-rule:nonzero;stroke:none"
             id="path20" />
        </g>
        <g
           id="g22"
           transform="translate(53.0907,30.6827)">
          <path
             d="m 0,0 v 32.561 c 0,12.1 9.809,21.909 21.909,21.909 v 0 c 12.1,0 21.91,-9.809 21.91,-21.909 V 0"
             style="fill:#ffffff;fill-opacity:1;fill-rule:nonzero;stroke:none"
             id="path24" />
        </g>
        <g
           id="g26"
           transform="translate(89.2441,105.0732)">
          <path
             d="m 0,0 c 0,-7.867 -6.377,-14.244 -14.244,-14.244 -7.867,0 -14.244,6.377 -14.244,14.244 0,7.867 6.377,14.244 14.244,14.244 C -6.377,14.244 0,7.867 0,0"
             style="fill:#ffffff;fill-opacity:1;fill-rule:nonzero;stroke:none"
             id="path28" />
        </g>
        <g
           id="g30"
           transform="translate(53.0907,45.3059)">
          <path
             d="m 0,0 v 17.937 c 0,12.101 9.809,21.91 21.909,21.91 v 0 c 12.1,0 21.91,-9.809 21.91,-21.91 V 0"
             style="fill:none;stroke:#000000;stroke-width:1.5;stroke-linecap:round;stroke-linejoin:round;stroke-miterlimit:10;stroke-dasharray:none;stroke-opacity:1"
             id="path32" />
        </g>
        <g
           id="g34"
           transform="translate(89.2441,105.0732)">
          <path
             d="m 0,0 c 0,-7.867 -6.377,-14.244 -14.244,-14.244 -7.867,0 -14.244,6.377 -14.244,14.244 0,7.867 6.377,14.244 14.244,14.244 C -6.377,14.244 0,7.867 0,0 Z"
             style="fill:none;stroke:#000000;stroke-width:1.5;stroke-linecap:round;stroke-linejoin:round;stroke-miterlimit:10;stroke-dasharray:none;stroke-opacity:1"
             id="path36" />
        </g>
        <g
           id="g38"
           transform="translate(81.439,30.6827)">
          <path
             d="m 0,0 v 17.937 c 0,12.101 9.809,21.91 21.909,21.91 v 0 c 12.1,0 21.91,-9.809 21.91,-21.91 V 0"
             style="fill:#ffffff;fill-opacity:1;fill-rule:nonzero;stroke:none"
             id="path40" />
        </g>
        <g
           id="g42"
           transform="translate(117.5924,90.45)">
          <path
             d="m 0,0 c 0,-7.867 -6.377,-14.244 -14.244,-14.244 -7.867,0 -14.244,6.377 -14.244,14.244 0,7.867 6.377,14.244 14.244,14.244 C -6.377,14.244 0,7.867 0,0"
             style="fill:#ffffff;fill-opacity:1;fill-rule:nonzero;stroke:none"
             id="path44" />
        </g>
        <g
           id="g46"
           transform="translate(24.7424,30.6827)">
          <path
             d="m 0,0 v 17.937 c 0,12.101 9.809,21.91 21.909,21.91 v 0 c 12.1,0 21.91,-9.809 21.91,-21.91 V 0"
             style="fill:#ffffff;fill-opacity:1;fill-rule:nonzero;stroke:none"
             id="path48" />
        </g>
        <g
           id="g50"
           transform="translate(60.8958,90.45)">
          <path
             d="m 0,0 c 0,-7.867 -6.377,-14.244 -14.244,-14.244 -7.867,0 -14.244,6.377 -14.244,14.244 0,7.867 6.377,14.244 14.244,14.244 C -6.377,14.244 0,7.867 0,0"
             style="fill:#ffffff;fill-opacity:1;fill-rule:nonzero;stroke:none"
             id="path52" />
        </g>
        <g
           id="g54"
           transform="translate(81.439,30.6827)">
          <path
             d="m 0,0 v 17.937 c 0,12.101 9.809,21.91 21.909,21.91 v 0 c 12.1,0 21.91,-9.809 21.91,-21.91 V 0 H -56.697"
             style="fill:none;stroke:#000000;stroke-width:1.5;stroke-linecap:round;stroke-linejoin:round;stroke-miterlimit:10;stroke-dasharray:none;stroke-opacity:1"
             id="path56" />
        </g>
        <g
           id="g58"
           transform="translate(117.5924,90.45)">
          <path
             d="m 0,0 c 0,-7.867 -6.377,-14.244 -14.244,-14.244 -7.867,0 -14.244,6.377 -14.244,14.244 0,7.867 6.377,14.244 14.244,14.244 C -6.377,14.244 0,7.867 0,0 Z"
             style="fill:none;stroke:#000000;stroke-width:1.5;stroke-linecap:round;stroke-linejoin:round;stroke-miterlimit:10;stroke-dasharray:none;stroke-opacity:1"
             id="path60" />
        </g>
        <g
           id="g62"
           transform="translate(24.7424,30.6827)">
          <path
             d="m 0,0 v 17.937 c 0,12.101 9.809,21.91 21.909,21.91 v 0 c 12.1,0 21.91,-9.809 21.91,-21.91 V 0"
             style="fill:none;stroke:#000000;stroke-width:1.5;stroke-linecap:round;stroke-linejoin:round;stroke-miterlimit:10;stroke-dasharray:none;stroke-opacity:1"
             id="path64" />
        </g>
        <g
           id="g66"
           transform="translate(60.8958,90.45)">
          <path
             d="m 0,0 c 0,-7.867 -6.377,-14.244 -14.244,-14.244 -7.867,0 -14.244,6.377 -14.244,14.244 0,7.867 6.377,14.244 14.244,14.244 C -6.377,14.244 0,7.867 0,0 Z"
             style="fill:none;stroke:#000000;stroke-width:1.5;stroke-linecap:round;stroke-linejoin:round;stroke-miterlimit:10;stroke-dasharray:none;stroke-opacity:1"
             id="path68" />
        </g>
      </g>
    </g>
  </g>
</svg>
