<?xml version="1.0" encoding="UTF-8" standalone="no"?>
<!-- Created with Inkscape (http://www.inkscape.org/) -->

<svg
   version="1.1"
   id="svg2"
   width="200"
   height="200"
   viewBox="0 0 200 200"
   sodipodi:docname="Financial wellness.ai"
   xmlns:inkscape="http://www.inkscape.org/namespaces/inkscape"
   xmlns:sodipodi="http://sodipodi.sourceforge.net/DTD/sodipodi-0.dtd"
   xmlns="http://www.w3.org/2000/svg"
   xmlns:svg="http://www.w3.org/2000/svg">
  <defs
     id="defs6">
    <clipPath
       clipPathUnits="userSpaceOnUse"
       id="clipPath16">
      <path
         d="M 0,150 H 150 V 0 H 0 Z"
         id="path14" />
    </clipPath>
  </defs>
  <sodipodi:namedview
     id="namedview4"
     pagecolor="#ffffff"
     bordercolor="#000000"
     borderopacity="0.25"
     inkscape:showpageshadow="2"
     inkscape:pageopacity="0.0"
     inkscape:pagecheckerboard="0"
     inkscape:deskcolor="#d1d1d1" />
  <g
     id="g8"
     inkscape:groupmode="layer"
     inkscape:label="Financial wellness"
     transform="matrix(1.3333333,0,0,-1.3333333,0,200)">
    <g
       id="g10">
      <g
         id="g12"
         clip-path="url(#clipPath16)">
        <g
           id="g18"
           transform="translate(129.507,75)">
          <path
             d="m 0,0 c 0,-30.103 -24.404,-54.507 -54.507,-54.507 -30.103,0 -54.507,24.404 -54.507,54.507 0,30.103 24.404,54.507 54.507,54.507 C -24.404,54.507 0,30.103 0,0"
             style="fill:#fff59b;fill-opacity:1;fill-rule:nonzero;stroke:none"
             id="path20" />
        </g>
        <g
           id="g22"
           transform="translate(136.1853,59.6969)">
          <path
             d="m 0,0 -110.561,-28.845 -15.511,59.451 110.561,28.845 z"
             style="fill:#ffffff;fill-opacity:1;fill-rule:nonzero;stroke:none"
             id="path24" />
        </g>
        <g
           id="g26"
           transform="translate(136.1853,59.6969)">
          <path
             d="m 0,0 -110.561,-28.845 -15.511,59.451 110.561,28.845 z"
             style="fill:none;stroke:#000000;stroke-width:1.5;stroke-linecap:round;stroke-linejoin:round;stroke-miterlimit:10;stroke-dasharray:none;stroke-opacity:1"
             id="path28" />
        </g>
        <g
           id="g30"
           transform="translate(91.7128,79.8431)">
          <path
             d="m 0,0 c 2.675,-10.252 -3.468,-20.732 -13.72,-23.406 -10.252,-2.675 -20.732,3.468 -23.406,13.72 -2.675,10.252 3.467,20.731 13.72,23.406 C -13.154,16.395 -2.675,10.252 0,0"
             style="fill:#bffeff;fill-opacity:1;fill-rule:nonzero;stroke:none"
             id="path32" />
        </g>
        <g
           id="g34"
           transform="translate(120.3176,104.6686)">
          <path
             d="m 0,0 8.485,-32.521 c -4.28,-2.533 -6.978,-7.123 -7.088,-12.091 l -83.65,-21.824 c -2.522,4.282 -7.11,6.971 -12.078,7.08 l -8.49,32.541 c 4.279,2.532 6.968,7.119 7.078,12.088 l 83.65,21.824 C -9.571,2.815 -4.971,0.119 0,0 Z"
             style="fill:none;stroke:#000000;stroke-width:1.5;stroke-linecap:round;stroke-linejoin:round;stroke-miterlimit:10;stroke-dasharray:none;stroke-opacity:1"
             id="path36" />
        </g>
        <g
           id="g38"
           transform="translate(91.7128,79.8431)">
          <path
             d="m 0,0 c 2.675,-10.252 -3.468,-20.732 -13.72,-23.406 -10.252,-2.675 -20.732,3.468 -23.406,13.72 -2.675,10.252 3.467,20.731 13.72,23.406 C -13.154,16.395 -2.675,10.252 0,0 Z"
             style="fill:none;stroke:#000000;stroke-width:1.5;stroke-linecap:round;stroke-linejoin:round;stroke-miterlimit:10;stroke-dasharray:none;stroke-opacity:1"
             id="path40" />
        </g>
        <g
           id="g42"
           transform="translate(105.5104,89.1127)">
          <path
             d="M 0,0 2.81,-10.772"
             style="fill:none;stroke:#000000;stroke-width:1.5;stroke-linecap:round;stroke-linejoin:round;stroke-miterlimit:10;stroke-dasharray:none;stroke-opacity:1"
             id="path44" />
        </g>
        <g
           id="g46"
           transform="translate(38.0188,71.5043)">
          <path
             d="M 0,0 2.81,-10.772"
             style="fill:none;stroke:#000000;stroke-width:1.5;stroke-linecap:round;stroke-linejoin:round;stroke-miterlimit:10;stroke-dasharray:none;stroke-opacity:1"
             id="path48" />
        </g>
        <g
           id="g50"
           transform="translate(139.013,44.9512)">
          <path
             d="m 0,0 -113.389,-14.099 -7.581,60.971 113.388,14.1 z"
             style="fill:#ffffff;fill-opacity:1;fill-rule:nonzero;stroke:none"
             id="path52" />
        </g>
        <g
           id="g54"
           transform="translate(139.013,44.9512)">
          <path
             d="m 0,0 -113.389,-14.099 -7.581,60.971 113.388,14.1 z"
             style="fill:none;stroke:#000000;stroke-width:1.5;stroke-linecap:round;stroke-linejoin:round;stroke-miterlimit:10;stroke-dasharray:none;stroke-opacity:1"
             id="path56" />
        </g>
        <g
           id="g58"
           transform="translate(97.5659,70.7547)">
          <path
             d="m 0,0 c 1.307,-10.514 -6.156,-20.098 -16.671,-21.405 -10.514,-1.308 -20.098,6.156 -21.405,16.67 -1.307,10.515 6.156,20.098 16.671,21.406 C -10.891,17.978 -1.307,10.514 0,0"
             style="fill:#bffeff;fill-opacity:1;fill-rule:nonzero;stroke:none"
             id="path60" />
        </g>
        <g
           id="g62"
           transform="translate(129.1789,91.6152)">
          <path
             d="m 0,0 4.147,-33.353 c -4.574,-1.949 -7.851,-6.146 -8.611,-11.057 l -85.79,-10.668 c -1.939,4.576 -6.134,7.843 -11.045,8.603 l -4.15,33.373 c 4.574,1.949 7.841,6.144 8.601,11.056 l 85.79,10.667 C -9.119,4.046 -4.913,0.77 0,0 Z"
             style="fill:none;stroke:#000000;stroke-width:1.5;stroke-linecap:round;stroke-linejoin:round;stroke-miterlimit:10;stroke-dasharray:none;stroke-opacity:1"
             id="path64" />
        </g>
        <g
           id="g66"
           transform="translate(97.5659,70.7547)">
          <path
             d="m 0,0 c 1.307,-10.514 -6.156,-20.098 -16.671,-21.405 -10.514,-1.308 -20.098,6.156 -21.405,16.67 -1.307,10.515 6.156,20.098 16.671,21.406 C -10.891,17.978 -1.307,10.514 0,0 Z"
             style="fill:none;stroke:#000000;stroke-width:1.5;stroke-linecap:round;stroke-linejoin:round;stroke-miterlimit:10;stroke-dasharray:none;stroke-opacity:1"
             id="path68" />
        </g>
        <g
           id="g70"
           transform="translate(112.4598,78.1351)">
          <path
             d="M 0,0 1.374,-11.047"
             style="fill:none;stroke:#000000;stroke-width:1.5;stroke-linecap:round;stroke-linejoin:round;stroke-miterlimit:10;stroke-dasharray:none;stroke-opacity:1"
             id="path72" />
        </g>
        <g
           id="g74"
           transform="translate(43.2422,69.5282)">
          <path
             d="M 0,0 1.374,-11.047"
             style="fill:none;stroke:#000000;stroke-width:1.5;stroke-linecap:round;stroke-linejoin:round;stroke-miterlimit:10;stroke-dasharray:none;stroke-opacity:1"
             id="path76" />
        </g>
        <path
           d="M 139.886,30.852 H 25.624 v 61.441 h 114.262 z"
           style="fill:#ffffff;fill-opacity:1;fill-rule:nonzero;stroke:#000000;stroke-width:1.5;stroke-linecap:round;stroke-linejoin:round;stroke-miterlimit:10;stroke-dasharray:none;stroke-opacity:1"
           id="path78" />
        <g
           id="g80"
           transform="translate(101.9399,61.5725)">
          <path
             d="m 0,0 c 0,-10.595 -8.589,-19.185 -19.185,-19.185 -10.595,0 -19.184,8.59 -19.184,19.185 0,10.595 8.589,19.185 19.184,19.185 C -8.589,19.185 0,10.595 0,0"
             style="fill:#bffeff;fill-opacity:1;fill-rule:nonzero;stroke:none"
             id="path82" />
        </g>
        <g
           id="g84"
           transform="translate(135.8853,78.3728)">
          <path
             d="m 0,0 v -33.61 c -4.78,-1.37 -8.55,-5.13 -9.91,-9.91 h -86.45 c -1.36,4.78 -5.12,8.54 -9.9,9.9 V 0.01 c 4.78,1.37 8.54,5.13 9.9,9.91 H -9.91 C -8.55,5.14 -4.78,1.37 0,0 Z"
             style="fill:none;stroke:#000000;stroke-width:1.5;stroke-linecap:round;stroke-linejoin:round;stroke-miterlimit:10;stroke-dasharray:none;stroke-opacity:1"
             id="path86" />
        </g>
        <g
           id="g88"
           transform="translate(101.9399,61.5725)">
          <path
             d="m 0,0 c 0,-10.595 -8.589,-19.185 -19.185,-19.185 -10.595,0 -19.184,8.59 -19.184,19.185 0,10.595 8.589,19.185 19.184,19.185 C -8.589,19.185 0,10.595 0,0 Z"
             style="fill:none;stroke:#000000;stroke-width:1.5;stroke-linecap:round;stroke-linejoin:round;stroke-miterlimit:10;stroke-dasharray:none;stroke-opacity:1"
             id="path90" />
        </g>
        <g
           id="g92"
           transform="translate(117.6307,67.0587)">
          <path
             d="M 0,0 V -11.132"
             style="fill:none;stroke:#000000;stroke-width:1.5;stroke-linecap:round;stroke-linejoin:round;stroke-miterlimit:10;stroke-dasharray:none;stroke-opacity:1"
             id="path94" />
        </g>
        <g
           id="g96"
           transform="translate(47.88,67.0587)">
          <path
             d="M 0,0 V -11.132"
             style="fill:none;stroke:#000000;stroke-width:1.5;stroke-linecap:round;stroke-linejoin:round;stroke-miterlimit:10;stroke-dasharray:none;stroke-opacity:1"
             id="path98" />
        </g>
      </g>
    </g>
  </g>
</svg>
