<?xml version="1.0" encoding="UTF-8" standalone="no"?>
<!-- Created with Inkscape (http://www.inkscape.org/) -->

<svg
   version="1.1"
   id="svg2"
   width="200"
   height="200"
   viewBox="0 0 200 200"
   sodipodi:docname="Fmily support.ai"
   xmlns:inkscape="http://www.inkscape.org/namespaces/inkscape"
   xmlns:sodipodi="http://sodipodi.sourceforge.net/DTD/sodipodi-0.dtd"
   xmlns="http://www.w3.org/2000/svg"
   xmlns:svg="http://www.w3.org/2000/svg">
  <defs
     id="defs6">
    <clipPath
       clipPathUnits="userSpaceOnUse"
       id="clipPath16">
      <path
         d="M 0,150 H 150 V 0 H 0 Z"
         id="path14" />
    </clipPath>
  </defs>
  <sodipodi:namedview
     id="namedview4"
     pagecolor="#ffffff"
     bordercolor="#000000"
     borderopacity="0.25"
     inkscape:showpageshadow="2"
     inkscape:pageopacity="0.0"
     inkscape:pagecheckerboard="0"
     inkscape:deskcolor="#d1d1d1" />
  <g
     id="g8"
     inkscape:groupmode="layer"
     inkscape:label="Fmily support"
     transform="matrix(1.3333333,0,0,-1.3333333,0,200)">
    <g
       id="g10">
      <g
         id="g12"
         clip-path="url(#clipPath16)">
        <g
           id="g18"
           transform="translate(129.507,75)">
          <path
             d="m 0,0 c 0,-30.103 -24.404,-54.507 -54.507,-54.507 -30.103,0 -54.507,24.404 -54.507,54.507 0,30.103 24.404,54.507 54.507,54.507 C -24.404,54.507 0,30.103 0,0"
             style="fill:#fff59b;fill-opacity:1;fill-rule:nonzero;stroke:none"
             id="path20" />
        </g>
        <g
           id="g22"
           transform="translate(130.6398,65.7726)">
          <path
             d="m 0,0 c 0,0 -29.034,-21.326 -41.094,-27.798 -12.06,-6.471 -38.078,3.575 -38.078,3.575 l -9.517,-4.339 -7.397,19.782 9.662,4.206 c 0,0 13.017,10.046 25.769,7.486 12.751,-2.574 13.649,-7.368 17.546,-6.707 3.692,0.633 13.546,4.663 18.312,-1.485 h 0.014 c 0.456,0.338 10.046,7.104 14.958,8.604 C -4.809,4.854 0,0 0,0"
             style="fill:#ffffff;fill-opacity:1;fill-rule:nonzero;stroke:none"
             id="path24" />
        </g>
        <g
           id="g26"
           transform="translate(105.8569,60.4927)">
          <path
             d="m 0,0 c 0.279,-0.353 0.529,-0.75 0.78,-1.191 l -18.429,-9.605 H -36.52"
             style="fill:none;stroke:#000000;stroke-width:1.5;stroke-linecap:round;stroke-linejoin:round;stroke-miterlimit:10;stroke-dasharray:none;stroke-opacity:1"
             id="path28" />
        </g>
        <g
           id="g30"
           transform="translate(43.8342,32.1801)">
          <path
             d="m 0,0 -13.487,-5.03 -10.987,29.43 13.473,5.03 1.72,-4.618 7.398,-19.782 z"
             style="fill:#ffffff;fill-opacity:1;fill-rule:nonzero;stroke:none"
             id="path32" />
        </g>
        <g
           id="g34"
           transform="translate(130.6398,65.7726)">
          <path
             d="m 0,0 c 0,0 -29.034,-21.326 -41.094,-27.798 -12.06,-6.471 -38.078,3.575 -38.078,3.575 l -9.517,-4.339 -7.397,19.782 9.662,4.206 c 0,0 13.017,10.046 25.769,7.486 12.751,-2.574 13.649,-7.368 17.546,-6.707 3.692,0.633 13.546,4.663 18.312,-1.485 h 0.014 c 0.456,0.338 10.046,7.104 14.958,8.604 C -4.809,4.854 0,0 0,0 Z"
             style="fill:none;stroke:#000000;stroke-width:1.5;stroke-linecap:round;stroke-linejoin:round;stroke-miterlimit:10;stroke-dasharray:none;stroke-opacity:1"
             id="path36" />
        </g>
        <g
           id="g38"
           transform="translate(103.2912,110.6084)">
          <path
             d="m 0,0 c 0,-6.761 -5.481,-12.241 -12.241,-12.241 -6.761,0 -12.242,5.48 -12.242,12.241 0,6.761 5.481,12.241 12.242,12.241 C -5.481,12.241 0,6.761 0,0"
             style="fill:#bffeff;fill-opacity:1;fill-rule:nonzero;stroke:none"
             id="path40" />
        </g>
        <g
           id="g42"
           transform="translate(43.8342,32.1801)">
          <path
             d="m 0,0 -13.487,-5.03 -10.987,29.43 13.473,5.03 1.72,-4.618 7.398,-19.782 z"
             style="fill:none;stroke:#000000;stroke-width:1.5;stroke-linecap:round;stroke-linejoin:round;stroke-miterlimit:10;stroke-dasharray:none;stroke-opacity:1"
             id="path44" />
        </g>
        <g
           id="g46"
           transform="translate(103.2912,110.6084)">
          <path
             d="m 0,0 c 0,-6.761 -5.481,-12.241 -12.241,-12.241 -6.761,0 -12.242,5.48 -12.242,12.241 0,6.761 5.481,12.241 12.242,12.241 C -5.481,12.241 0,6.761 0,0 Z"
             style="fill:none;stroke:#000000;stroke-width:1.5;stroke-linecap:round;stroke-linejoin:round;stroke-miterlimit:10;stroke-dasharray:none;stroke-opacity:1"
             id="path48" />
        </g>
        <g
           id="g50"
           transform="translate(115.2642,76.5709)">
          <path
             d="m 0,0 c 0,0 -8.634,12.827 -24.553,12.827 -15.683,0 -25.16,-13.314 -25.16,-13.314"
             style="fill:none;stroke:#000000;stroke-width:1.5;stroke-linecap:round;stroke-linejoin:round;stroke-miterlimit:10;stroke-dasharray:none;stroke-opacity:1"
             id="path52" />
        </g>
      </g>
    </g>
  </g>
</svg>
