<?xml version="1.0" encoding="UTF-8" standalone="no"?>
<!-- Created with Inkscape (http://www.inkscape.org/) -->

<svg
   version="1.1"
   id="svg2"
   width="200"
   height="200"
   viewBox="0 0 200 200"
   sodipodi:docname="Time away from work.ai"
   xmlns:inkscape="http://www.inkscape.org/namespaces/inkscape"
   xmlns:sodipodi="http://sodipodi.sourceforge.net/DTD/sodipodi-0.dtd"
   xmlns="http://www.w3.org/2000/svg"
   xmlns:svg="http://www.w3.org/2000/svg">
  <defs
     id="defs6">
    <clipPath
       clipPathUnits="userSpaceOnUse"
       id="clipPath16">
      <path
         d="M 0,150 H 150 V 0 H 0 Z"
         id="path14" />
    </clipPath>
  </defs>
  <sodipodi:namedview
     id="namedview4"
     pagecolor="#ffffff"
     bordercolor="#000000"
     borderopacity="0.25"
     inkscape:showpageshadow="2"
     inkscape:pageopacity="0.0"
     inkscape:pagecheckerboard="0"
     inkscape:deskcolor="#d1d1d1" />
  <g
     id="g8"
     inkscape:groupmode="layer"
     inkscape:label="Time away from work"
     transform="matrix(1.3333333,0,0,-1.3333333,0,200)">
    <g
       id="g10">
      <g
         id="g12"
         clip-path="url(#clipPath16)">
        <g
           id="g18"
           transform="translate(129.507,75)">
          <path
             d="m 0,0 c 0,-30.103 -24.404,-54.507 -54.507,-54.507 -30.103,0 -54.507,24.404 -54.507,54.507 0,30.103 24.404,54.507 54.507,54.507 C -24.404,54.507 0,30.103 0,0"
             style="fill:#fff59b;fill-opacity:1;fill-rule:nonzero;stroke:none"
             id="path20" />
        </g>
        <g
           id="g22"
           transform="translate(113.8098,101.6838)">
          <path
             d="m 0,0 h -38.81 c 5.018,4.824 11.866,7.79 19.405,7.79 C -11.864,7.79 -5.016,4.824 0,0"
             style="fill:#bffeff;fill-opacity:1;fill-rule:nonzero;stroke:none"
             id="path24" />
        </g>
        <g
           id="g26"
           transform="translate(75,101.6838)">
          <path
             d="m 0,0 h -38.81 c 5.018,4.824 11.866,7.79 19.405,7.79 C -11.864,7.79 -5.016,4.824 0,0"
             style="fill:#bffeff;fill-opacity:1;fill-rule:nonzero;stroke:none"
             id="path28" />
        </g>
        <g
           id="g30"
           transform="translate(107.2484,80.0929)">
          <path
             d="m 0,0 -28.579,19.132 -3.669,2.454 c 3.193,0.568 6.505,0.581 9.751,0 3.721,-0.646 7.376,-2.084 10.701,-4.314 C -5.529,13.076 -1.478,6.809 0,0"
             style="fill:#bffeff;fill-opacity:1;fill-rule:nonzero;stroke:none"
             id="path32" />
        </g>
        <g
           id="g34"
           transform="translate(75.0006,101.6793)">
          <path
             d="m 0,0 -3.681,-2.467 -28.567,-19.119 c 1.478,6.808 5.516,13.076 11.783,17.271 3.338,2.231 6.993,3.669 10.714,4.315 3.246,0.58 6.558,0.568 9.751,0"
             style="fill:#bffeff;fill-opacity:1;fill-rule:nonzero;stroke:none"
             id="path36" />
        </g>
        <g
           id="g38"
           transform="translate(44.0539,125.1047)">
          <path
             d="m 0,0 30.946,-23.421 c -1.09,6.875 -4.76,13.372 -10.772,17.922 C 14.161,-0.948 6.911,0.819 0,0"
             style="fill:#bffeff;fill-opacity:1;fill-rule:nonzero;stroke:none"
             id="path40" />
        </g>
        <g
           id="g42"
           transform="translate(105.9461,125.1047)">
          <path
             d="m 0,0 -30.946,-23.421 c 1.09,6.875 4.76,13.372 10.772,17.922 C -14.161,-0.948 -6.911,0.819 0,0"
             style="fill:#bffeff;fill-opacity:1;fill-rule:nonzero;stroke:none"
             id="path44" />
        </g>
        <g
           id="g46"
           transform="translate(108.1195,24.7014)">
          <path
             d="m 0,0 h -66.238 c 3.655,10.556 12.232,18.829 22.985,22.062 3.207,0.989 6.611,1.504 10.134,1.504 3.523,0 6.927,-0.515 10.134,-1.504 C -12.232,18.829 -3.655,10.556 0,0"
             style="fill:#ffffff;fill-opacity:1;fill-rule:nonzero;stroke:none"
             id="path48" />
        </g>
        <g
           id="g50"
           transform="translate(78.6689,99.2253)">
          <path
             d="M 0,0 C -0.079,0.554 -0.106,0.884 -0.106,0.95"
             style="fill:#ffffff;fill-opacity:1;fill-rule:nonzero;stroke:none"
             id="path52" />
        </g>
        <g
           id="g54"
           transform="translate(85.1344,46.7633)">
          <path
             d="m 0,0 c -3.207,0.99 -6.611,1.504 -10.134,1.504 -3.523,0 -6.927,-0.514 -10.134,-1.504 0.462,3.629 5.688,45.522 6.453,52.449 l 3.681,2.467 3.669,-2.454 C -5.713,45.575 -0.462,3.629 0,0"
             style="fill:#ffffff;fill-opacity:1;fill-rule:nonzero;stroke:none"
             id="path56" />
        </g>
        <g
           id="g58"
           transform="translate(71.4249,100.1753)">
          <path
             d="M 0,0 C 0,-0.066 -0.04,-0.396 -0.106,-0.963"
             style="fill:#ffffff;fill-opacity:1;fill-rule:nonzero;stroke:none"
             id="path60" />
        </g>
        <g
           id="g62"
           transform="translate(108.1195,24.7014)">
          <path
             d="m 0,0 h -66.238 c 3.655,10.556 12.232,18.829 22.985,22.062 3.207,0.989 6.611,1.504 10.134,1.504 3.523,0 6.927,-0.515 10.134,-1.504 C -12.232,18.829 -3.655,10.556 0,0 Z"
             style="fill:none;stroke:#000000;stroke-width:1.5;stroke-linecap:round;stroke-linejoin:round;stroke-miterlimit:10;stroke-dasharray:none;stroke-opacity:1"
             id="path64" />
        </g>
        <g
           id="g66"
           transform="translate(78.6689,99.2253)">
          <path
             d="M 0,0 C -0.079,0.554 -0.106,0.884 -0.106,0.95"
             style="fill:none;stroke:#000000;stroke-width:1.5;stroke-linecap:round;stroke-linejoin:round;stroke-miterlimit:10;stroke-dasharray:none;stroke-opacity:1"
             id="path68" />
        </g>
        <g
           id="g70"
           transform="translate(85.1344,46.7633)">
          <path
             d="m 0,0 c -3.207,0.99 -6.611,1.504 -10.134,1.504 -3.523,0 -6.927,-0.514 -10.134,-1.504 0.462,3.629 5.688,45.522 6.453,52.449 l 3.681,2.467 3.669,-2.454 C -5.713,45.575 -0.462,3.629 0,0 Z"
             style="fill:none;stroke:#000000;stroke-width:1.5;stroke-linecap:round;stroke-linejoin:round;stroke-miterlimit:10;stroke-dasharray:none;stroke-opacity:1"
             id="path72" />
        </g>
        <g
           id="g74"
           transform="translate(71.4249,100.1753)">
          <path
             d="M 0,0 C 0,-0.066 -0.04,-0.396 -0.106,-0.963"
             style="fill:none;stroke:#000000;stroke-width:1.5;stroke-linecap:round;stroke-linejoin:round;stroke-miterlimit:10;stroke-dasharray:none;stroke-opacity:1"
             id="path76" />
        </g>
        <g
           id="g78"
           transform="translate(113.8098,101.6838)">
          <path
             d="m 0,0 h -38.81 c 5.018,4.824 11.866,7.79 19.405,7.79 C -11.864,7.79 -5.016,4.824 0,0 Z"
             style="fill:none;stroke:#000000;stroke-width:1.5;stroke-linecap:round;stroke-linejoin:round;stroke-miterlimit:10;stroke-dasharray:none;stroke-opacity:1"
             id="path80" />
        </g>
        <g
           id="g82"
           transform="translate(75,101.6838)">
          <path
             d="m 0,0 h -38.81 c 5.018,4.824 11.866,7.79 19.405,7.79 C -11.864,7.79 -5.016,4.824 0,0 Z"
             style="fill:none;stroke:#000000;stroke-width:1.5;stroke-linecap:round;stroke-linejoin:round;stroke-miterlimit:10;stroke-dasharray:none;stroke-opacity:1"
             id="path84" />
        </g>
        <g
           id="g86"
           transform="translate(107.2484,80.0929)">
          <path
             d="m 0,0 -28.579,19.132 -3.669,2.454 c 3.193,0.568 6.505,0.581 9.751,0 3.721,-0.646 7.376,-2.084 10.701,-4.314 C -5.529,13.076 -1.478,6.809 0,0 Z"
             style="fill:none;stroke:#000000;stroke-width:1.5;stroke-linecap:round;stroke-linejoin:round;stroke-miterlimit:10;stroke-dasharray:none;stroke-opacity:1"
             id="path88" />
        </g>
        <g
           id="g90"
           transform="translate(75.0006,101.6793)">
          <path
             d="m 0,0 -3.681,-2.467 -28.567,-19.119 c 1.478,6.808 5.516,13.076 11.783,17.271 3.338,2.231 6.993,3.669 10.714,4.315 3.246,0.58 6.558,0.568 9.751,0 z"
             style="fill:none;stroke:#000000;stroke-width:1.5;stroke-linecap:round;stroke-linejoin:round;stroke-miterlimit:10;stroke-dasharray:none;stroke-opacity:1"
             id="path92" />
        </g>
        <g
           id="g94"
           transform="translate(44.0539,125.1047)">
          <path
             d="m 0,0 30.946,-23.421 c -1.09,6.875 -4.76,13.372 -10.772,17.922 C 14.161,-0.948 6.911,0.819 0,0 Z"
             style="fill:none;stroke:#000000;stroke-width:1.5;stroke-linecap:round;stroke-linejoin:round;stroke-miterlimit:10;stroke-dasharray:none;stroke-opacity:1"
             id="path96" />
        </g>
        <g
           id="g98"
           transform="translate(105.9461,125.1047)">
          <path
             d="m 0,0 -30.946,-23.421 c 1.09,6.875 4.76,13.372 10.772,17.922 C -14.161,-0.948 -6.911,0.819 0,0 Z"
             style="fill:none;stroke:#000000;stroke-width:1.5;stroke-linecap:round;stroke-linejoin:round;stroke-miterlimit:10;stroke-dasharray:none;stroke-opacity:1"
             id="path100" />
        </g>
      </g>
    </g>
  </g>
</svg>
