<?xml version="1.0" encoding="UTF-8" standalone="no"?>
<!-- Created with Inkscape (http://www.inkscape.org/) -->

<svg
   version="1.1"
   id="svg2"
   width="200"
   height="200"
   viewBox="0 0 200 200"
   sodipodi:docname="Wellbeing.ai"
   xmlns:inkscape="http://www.inkscape.org/namespaces/inkscape"
   xmlns:sodipodi="http://sodipodi.sourceforge.net/DTD/sodipodi-0.dtd"
   xmlns="http://www.w3.org/2000/svg"
   xmlns:svg="http://www.w3.org/2000/svg">
  <defs
     id="defs6">
    <clipPath
       clipPathUnits="userSpaceOnUse"
       id="clipPath16">
      <path
         d="M 0,150 H 150 V 0 H 0 Z"
         id="path14" />
    </clipPath>
  </defs>
  <sodipodi:namedview
     id="namedview4"
     pagecolor="#ffffff"
     bordercolor="#000000"
     borderopacity="0.25"
     inkscape:showpageshadow="2"
     inkscape:pageopacity="0.0"
     inkscape:pagecheckerboard="0"
     inkscape:deskcolor="#d1d1d1" />
  <g
     id="g8"
     inkscape:groupmode="layer"
     inkscape:label="Wellbeing"
     transform="matrix(1.3333333,0,0,-1.3333333,0,200)">
    <g
       id="g10">
      <g
         id="g12"
         clip-path="url(#clipPath16)">
        <g
           id="g18"
           transform="translate(129.507,75)">
          <path
             d="m 0,0 c 0,-30.103 -24.404,-54.507 -54.507,-54.507 -30.103,0 -54.507,24.404 -54.507,54.507 0,30.103 24.404,54.507 54.507,54.507 C -24.404,54.507 0,30.103 0,0"
             style="fill:#ffdeac;fill-opacity:1;fill-rule:nonzero;stroke:none"
             id="path20" />
        </g>
        <g
           id="g22"
           transform="translate(102.9382,49.3575)">
          <path
             d="m 0,0 c -0.95,-4.44 0,-31.08 0,-31.08 h -39.16 v 24.56 c -26.34,-5.59 -32.8,22.33 -31.58,22.42 l -13.56,0.52 12.78,21.64 c 0,0 -8.43,23.07 16.68,37.81 23.21,13.61 62.83,5.73 69.87,-22.69 0.09,-0.35 0.17,-0.69 0.24,-1.03 C 21.56,24.28 0.94,4.38 0,0"
             style="fill:#ffffff;fill-opacity:1;fill-rule:nonzero;stroke:none"
             id="path24" />
        </g>
        <g
           id="g26"
           transform="translate(102.9382,49.3575)">
          <path
             d="m 0,0 c -0.95,-4.44 0,-31.08 0,-31.08 h -39.16 v 24.56 c -26.34,-5.59 -32.8,22.33 -31.58,22.42 l -13.56,0.52 12.78,21.64 c 0,0 -8.43,23.07 16.68,37.81 23.21,13.61 62.83,5.73 69.87,-22.69 0.09,-0.35 0.17,-0.69 0.24,-1.03 C 21.56,24.28 0.94,4.38 0,0 Z"
             style="fill:none;stroke:#000000;stroke-width:1.5;stroke-linecap:round;stroke-linejoin:round;stroke-miterlimit:10;stroke-dasharray:none;stroke-opacity:1"
             id="path28" />
        </g>
        <g
           id="g30"
           transform="translate(76.3981,47.4974)">
          <path
             d="M 0,0 C -4.64,-2.37 -8.84,-3.86 -12.62,-4.66"
             style="fill:none;stroke:#000000;stroke-width:1.5;stroke-linecap:round;stroke-linejoin:round;stroke-miterlimit:10;stroke-dasharray:none;stroke-opacity:1"
             id="path32" />
        </g>
        <g
           id="g34"
           transform="translate(63.7781,18.2774)">
          <path
             d="M 0,0 H -23.84"
             style="fill:none;stroke:#000000;stroke-width:1.5;stroke-linecap:round;stroke-linejoin:round;stroke-miterlimit:10;stroke-dasharray:none;stroke-opacity:1"
             id="path36" />
        </g>
        <g
           id="g38"
           transform="translate(115.6281,18.2774)">
          <path
             d="M 0,0 H -12.69"
             style="fill:none;stroke:#000000;stroke-width:1.5;stroke-linecap:round;stroke-linejoin:round;stroke-miterlimit:10;stroke-dasharray:none;stroke-opacity:1"
             id="path40" />
        </g>
        <g
           id="g42"
           transform="translate(68.4763,85.6686)">
          <path
             d="M 0,0 10.069,-14.619 62.886,25.937"
             style="fill:none;stroke:#000000;stroke-width:1.5;stroke-linecap:round;stroke-linejoin:round;stroke-miterlimit:10;stroke-dasharray:none;stroke-opacity:1"
             id="path44" />
        </g>
      </g>
    </g>
  </g>
</svg>
