<?xml version="1.0" encoding="UTF-8" standalone="no"?>
<!-- Created with Inkscape (http://www.inkscape.org/) -->

<svg
   version="1.1"
   id="svg2"
   width="200"
   height="200"
   viewBox="0 0 200 200"
   sodipodi:docname="BG check and NDA.ai"
   xmlns:inkscape="http://www.inkscape.org/namespaces/inkscape"
   xmlns:sodipodi="http://sodipodi.sourceforge.net/DTD/sodipodi-0.dtd"
   xmlns="http://www.w3.org/2000/svg"
   xmlns:svg="http://www.w3.org/2000/svg">
  <defs
     id="defs6">
    <clipPath
       clipPathUnits="userSpaceOnUse"
       id="clipPath16">
      <path
         d="M 0,150 H 150 V 0 H 0 Z"
         id="path14" />
    </clipPath>
  </defs>
  <sodipodi:namedview
     id="namedview4"
     pagecolor="#ffffff"
     bordercolor="#000000"
     borderopacity="0.25"
     inkscape:showpageshadow="2"
     inkscape:pageopacity="0.0"
     inkscape:pagecheckerboard="0"
     inkscape:deskcolor="#d1d1d1" />
  <g
     id="g8"
     inkscape:groupmode="layer"
     inkscape:label="BG check and NDA"
     transform="matrix(1.3333333,0,0,-1.3333333,0,200)">
    <g
       id="g10">
      <g
         id="g12"
         clip-path="url(#clipPath16)">
        <g
           id="g18"
           transform="translate(112.6874,87.2149)">
          <path
             d="m 0,0 v -54.41 c -9.974,-9.011 -23.184,-14.499 -37.683,-14.499 -14.499,0 -27.717,5.488 -37.691,14.499 V 0 Z"
             style="fill:#bffeff;fill-opacity:1;fill-rule:nonzero;stroke:none"
             id="path20" />
        </g>
        <g
           id="g22"
           transform="translate(131.1988,74.5011)">
          <path
             d="m 0,0 c 0,-16.54 -7.141,-31.412 -18.511,-41.696 v 54.41 h -75.375 v -54.41 c -11.371,10.292 -18.512,25.156 -18.512,41.696 0,31.039 25.164,56.203 56.203,56.203 C -25.155,56.203 0,31.039 0,0"
             style="fill:#ffffff;fill-opacity:1;fill-rule:nonzero;stroke:none"
             id="path24" />
        </g>
        <g
           id="g26"
           transform="translate(131.1988,74.5011)">
          <path
             d="m 0,0 c 0,-16.54 -7.141,-31.412 -18.511,-41.696 v 54.41 h -75.375 v -54.41 c -11.371,10.292 -18.512,25.156 -18.512,41.696 0,31.039 25.164,56.203 56.203,56.203 C -25.155,56.203 0,31.039 0,0 Z"
             style="fill:none;stroke:#000000;stroke-width:1.5;stroke-linecap:butt;stroke-linejoin:miter;stroke-miterlimit:10;stroke-dasharray:none;stroke-opacity:1"
             id="path28" />
        </g>
        <g
           id="g30"
           transform="translate(112.6874,87.2149)">
          <path
             d="m 0,0 v -54.41 c -9.974,-9.011 -23.184,-14.499 -37.683,-14.499 -14.499,0 -27.717,5.488 -37.691,14.499 V 0 Z"
             style="fill:none;stroke:#000000;stroke-width:1.5;stroke-linecap:butt;stroke-linejoin:miter;stroke-miterlimit:10;stroke-dasharray:none;stroke-opacity:1"
             id="path32" />
        </g>
        <g
           id="g34"
           transform="translate(55.0908,72.292)">
          <path
             d="M 0,0 H 1.681 L 9.584,-11.35 V 0 H 11.37 V -14.712 H 9.689 L 1.786,-3.363 V -14.712 H 0 Z"
             style="fill:#000000;fill-opacity:1;fill-rule:nonzero;stroke:none"
             id="path36" />
        </g>
        <g
           id="g38"
           transform="translate(77.7432,60.7953)">
          <path
             d="m 0,0 c 0.967,1.023 1.45,2.403 1.45,4.14 0,1.752 -0.48,3.136 -1.439,4.151 -0.96,1.016 -2.323,1.524 -4.088,1.524 H -6.599 V -1.534 h 2.522 c 1.751,0 3.11,0.511 4.077,1.534 m -4.077,11.497 c 1.513,0 2.827,-0.305 3.94,-0.915 C 0.977,9.973 1.832,9.114 2.428,8.007 3.023,6.901 3.321,5.611 3.321,4.14 3.321,2.683 3.023,1.398 2.428,0.284 1.832,-0.83 0.977,-1.692 -0.137,-2.301 -1.25,-2.911 -2.564,-3.216 -4.077,-3.216 h -4.351 v 14.713 z"
             style="fill:#000000;fill-opacity:1;fill-rule:nonzero;stroke:none"
             id="path40" />
        </g>
        <g
           id="g42"
           transform="translate(90.8541,63.2125)">
          <path
             d="M 0,0 -2.669,7.082 -5.317,0 Z m -3.699,9.079 h 2.165 L 4.056,-5.633 H 2.102 l -1.556,3.972 h -6.41 l -1.555,-3.972 h -1.892 z"
             style="fill:#000000;fill-opacity:1;fill-rule:nonzero;stroke:none"
             id="path44" />
        </g>
        <g
           id="g46"
           transform="translate(98.8515,48.806)">
          <path
             d="M 0,0 H -47.702"
             style="fill:none;stroke:#000000;stroke-width:1.5;stroke-linecap:butt;stroke-linejoin:miter;stroke-miterlimit:10;stroke-dasharray:none;stroke-opacity:1"
             id="path48" />
        </g>
        <g
           id="g50"
           transform="translate(98.8515,40.0324)">
          <path
             d="M 0,0 H -47.702"
             style="fill:none;stroke:#000000;stroke-width:1.5;stroke-linecap:butt;stroke-linejoin:miter;stroke-miterlimit:10;stroke-dasharray:none;stroke-opacity:1"
             id="path52" />
        </g>
        <g
           id="g54"
           transform="translate(98.8515,31.2588)">
          <path
             d="M 0,0 H -47.702"
             style="fill:none;stroke:#000000;stroke-width:1.5;stroke-linecap:butt;stroke-linejoin:miter;stroke-miterlimit:10;stroke-dasharray:none;stroke-opacity:1"
             id="path56" />
        </g>
        <g
           id="g58"
           transform="translate(112.6874,87.2149)">
          <path
             d="m 0,0 v -54.41 c -9.974,-9.011 -23.184,-14.499 -37.683,-14.499 -14.499,0 -27.717,5.488 -37.691,14.499 V 0 Z"
             style="fill:none;stroke:#000000;stroke-width:1.5;stroke-linecap:butt;stroke-linejoin:miter;stroke-miterlimit:10;stroke-dasharray:none;stroke-opacity:1"
             id="path60" />
        </g>
      </g>
    </g>
  </g>
</svg>
