<?xml version="1.0" encoding="UTF-8" standalone="no"?>
<!-- Created with Inkscape (http://www.inkscape.org/) -->

<svg
   version="1.1"
   id="svg2"
   width="200"
   height="200"
   viewBox="0 0 200 200"
   sodipodi:docname="Data security.ai"
   xmlns:inkscape="http://www.inkscape.org/namespaces/inkscape"
   xmlns:sodipodi="http://sodipodi.sourceforge.net/DTD/sodipodi-0.dtd"
   xmlns="http://www.w3.org/2000/svg"
   xmlns:svg="http://www.w3.org/2000/svg">
  <defs
     id="defs6">
    <clipPath
       clipPathUnits="userSpaceOnUse"
       id="clipPath16">
      <path
         d="M 0,150 H 150 V 0 H 0 Z"
         id="path14" />
    </clipPath>
  </defs>
  <sodipodi:namedview
     id="namedview4"
     pagecolor="#ffffff"
     bordercolor="#000000"
     borderopacity="0.25"
     inkscape:showpageshadow="2"
     inkscape:pageopacity="0.0"
     inkscape:pagecheckerboard="0"
     inkscape:deskcolor="#d1d1d1" />
  <g
     id="g8"
     inkscape:groupmode="layer"
     inkscape:label="Data security"
     transform="matrix(1.3333333,0,0,-1.3333333,0,200)">
    <g
       id="g10">
      <g
         id="g12"
         clip-path="url(#clipPath16)">
        <g
           id="g18"
           transform="translate(132.8274,30.2704)">
          <path
             d="m 0,0 c 0,-9.184 -25.892,-16.632 -57.827,-16.632 -31.935,0 -57.828,7.448 -57.828,16.632 0,9.191 25.893,16.639 57.828,16.639 C -25.892,16.639 0,9.191 0,0"
             style="fill:#bffeff;fill-opacity:1;fill-rule:nonzero;stroke:none"
             id="path20" />
        </g>
        <g
           id="g22"
           transform="translate(132.8274,119.7296)">
          <path
             d="m 0,0 c 0,-9.191 -25.892,-16.639 -57.827,-16.639 -31.935,0 -57.828,7.448 -57.828,16.639 0,9.184 25.893,16.632 57.828,16.632 C -25.892,16.632 0,9.184 0,0"
             style="fill:#bffeff;fill-opacity:1;fill-rule:nonzero;stroke:none"
             id="path24" />
        </g>
        <g
           id="g26"
           transform="translate(132.8274,119.7296)">
          <path
             d="m 0,0 v -89.459 c 0,9.191 -25.892,16.639 -57.827,16.639 -31.935,0 -57.828,-7.448 -57.828,-16.639 V 0 c 0,-9.191 25.893,-16.639 57.828,-16.639 C -25.892,-16.639 0,-9.191 0,0"
             style="fill:#ffffff;fill-opacity:1;fill-rule:nonzero;stroke:none"
             id="path28" />
        </g>
        <g
           id="g30"
           transform="translate(132.8274,119.7296)">
          <path
             d="m 0,0 c 0,-9.191 -25.892,-16.639 -57.827,-16.639 -31.935,0 -57.828,7.448 -57.828,16.639 0,9.184 25.893,16.632 57.828,16.632 C -25.892,16.632 0,9.184 0,0 Z"
             style="fill:none;stroke:#000000;stroke-width:1.5;stroke-linecap:round;stroke-linejoin:round;stroke-miterlimit:10;stroke-dasharray:none;stroke-opacity:1"
             id="path32" />
        </g>
        <g
           id="g34"
           transform="translate(132.8274,30.2704)">
          <path
             d="m 0,0 c 0,-9.184 -25.892,-16.632 -57.827,-16.632 -31.935,0 -57.828,7.448 -57.828,16.632 0,9.191 25.893,16.639 57.828,16.639 C -25.892,16.639 0,9.191 0,0 Z"
             style="fill:none;stroke:#000000;stroke-width:1.5;stroke-linecap:round;stroke-linejoin:round;stroke-miterlimit:10;stroke-dasharray:none;stroke-opacity:1"
             id="path36" />
        </g>
        <g
           id="g38"
           transform="translate(132.8274,119.7296)">
          <path
             d="m 0,0 v -89.459 c 0,9.191 -25.892,16.639 -57.827,16.639 -31.935,0 -57.828,-7.448 -57.828,-16.639 V 0 c 0,-9.191 25.893,-16.639 57.828,-16.639 C -25.892,-16.639 0,-9.191 0,0 Z"
             style="fill:none;stroke:#000000;stroke-width:1.5;stroke-linecap:round;stroke-linejoin:round;stroke-miterlimit:10;stroke-dasharray:none;stroke-opacity:1"
             id="path40" />
        </g>
        <g
           id="g42"
           transform="translate(17.1726,92.1698)">
          <path
             d="m 0,0 c 0,-9.191 25.893,-16.639 57.828,-16.639 31.935,0 57.827,7.448 57.827,16.639"
             style="fill:none;stroke:#000000;stroke-width:1.5;stroke-linecap:round;stroke-linejoin:round;stroke-miterlimit:10;stroke-dasharray:none;stroke-opacity:1"
             id="path44" />
        </g>
        <g
           id="g46"
           transform="translate(17.1726,68.445)">
          <path
             d="m 0,0 c 0,-9.191 25.893,-16.639 57.828,-16.639 31.935,0 57.827,7.448 57.827,16.639"
             style="fill:none;stroke:#000000;stroke-width:1.5;stroke-linecap:round;stroke-linejoin:round;stroke-miterlimit:10;stroke-dasharray:none;stroke-opacity:1"
             id="path48" />
        </g>
        <g
           id="g50"
           transform="translate(104.8331,69.2832)">
          <path
             d="m 0,0 v -34.955 c 0,-2.091 -1.695,-3.787 -3.787,-3.787 h -52.092 c -2.092,0 -3.787,1.696 -3.787,3.787 V 0 c 0,2.091 1.695,3.787 3.787,3.787 H -3.787 C -1.695,3.787 0,2.091 0,0"
             style="fill:#ffffff;fill-opacity:1;fill-rule:nonzero;stroke:none"
             id="path52" />
        </g>
        <g
           id="g54"
           transform="translate(104.8331,69.2832)">
          <path
             d="m 0,0 v -34.955 c 0,-2.091 -1.695,-3.787 -3.787,-3.787 h -52.092 c -2.092,0 -3.787,1.696 -3.787,3.787 V 0 c 0,2.091 1.695,3.787 3.787,3.787 H -3.787 C -1.695,3.787 0,2.091 0,0 Z"
             style="fill:none;stroke:#000000;stroke-width:1.5;stroke-linecap:round;stroke-linejoin:round;stroke-miterlimit:10;stroke-dasharray:none;stroke-opacity:1"
             id="path56" />
        </g>
        <g
           id="g58"
           transform="translate(92.7178,75.5813)">
          <path
             d="m 0,0 c 0,-0.849 -0.06,-1.689 -0.182,-2.511 h -35.072 c -0.121,0.822 -0.182,1.662 -0.182,2.511 0,9.786 7.933,17.718 17.718,17.718 C -7.932,17.718 0,9.786 0,0"
             style="fill:#bffeff;fill-opacity:1;fill-rule:nonzero;stroke:none"
             id="path60" />
        </g>
        <g
           id="g62"
           transform="translate(92.7178,75.5813)">
          <path
             d="m 0,0 c 0,-0.849 -0.06,-1.689 -0.182,-2.511 h -35.072 c -0.121,0.822 -0.182,1.662 -0.182,2.511 0,9.786 7.933,17.718 17.718,17.718 C -7.932,17.718 0,9.786 0,0 Z"
             style="fill:none;stroke:#000000;stroke-width:1.5;stroke-linecap:round;stroke-linejoin:round;stroke-miterlimit:10;stroke-dasharray:none;stroke-opacity:1"
             id="path64" />
        </g>
        <g
           id="g66"
           transform="translate(92.718,40.1173)">
          <path
             d="M 0,0 H -35.436"
             style="fill:none;stroke:#000000;stroke-width:1.5;stroke-linecap:round;stroke-linejoin:round;stroke-miterlimit:10;stroke-dasharray:none;stroke-opacity:1"
             id="path68" />
        </g>
        <g
           id="g70"
           transform="translate(92.718,46.0253)">
          <path
             d="M 0,0 H -35.436"
             style="fill:none;stroke:#000000;stroke-width:1.5;stroke-linecap:round;stroke-linejoin:round;stroke-miterlimit:10;stroke-dasharray:none;stroke-opacity:1"
             id="path72" />
        </g>
        <g
           id="g74"
           transform="translate(92.718,51.9334)">
          <path
             d="M 0,0 H -35.436"
             style="fill:none;stroke:#000000;stroke-width:1.5;stroke-linecap:round;stroke-linejoin:round;stroke-miterlimit:10;stroke-dasharray:none;stroke-opacity:1"
             id="path76" />
        </g>
      </g>
    </g>
  </g>
</svg>
