<?xml version="1.0" encoding="UTF-8" standalone="no"?>
<!-- Created with Inkscape (http://www.inkscape.org/) -->

<svg
   version="1.1"
   id="svg2"
   width="200"
   height="200"
   viewBox="0 0 200 200"
   sodipodi:docname="Internrt and email security.ai"
   xmlns:inkscape="http://www.inkscape.org/namespaces/inkscape"
   xmlns:sodipodi="http://sodipodi.sourceforge.net/DTD/sodipodi-0.dtd"
   xmlns="http://www.w3.org/2000/svg"
   xmlns:svg="http://www.w3.org/2000/svg">
  <defs
     id="defs6">
    <clipPath
       clipPathUnits="userSpaceOnUse"
       id="clipPath16">
      <path
         d="M 0,150 H 150 V 0 H 0 Z"
         id="path14" />
    </clipPath>
  </defs>
  <sodipodi:namedview
     id="namedview4"
     pagecolor="#ffffff"
     bordercolor="#000000"
     borderopacity="0.25"
     inkscape:showpageshadow="2"
     inkscape:pageopacity="0.0"
     inkscape:pagecheckerboard="0"
     inkscape:deskcolor="#d1d1d1" />
  <g
     id="g8"
     inkscape:groupmode="layer"
     inkscape:label="Internrt and email security"
     transform="matrix(1.3333333,0,0,-1.3333333,0,200)">
    <g
       id="g10">
      <g
         id="g12"
         clip-path="url(#clipPath16)">
        <g
           id="g18"
           transform="translate(131.7979,42.9915)">
          <path
             d="m 0,0 c 0,-17.952 -14.553,-32.505 -32.505,-32.505 -17.952,0 -32.505,14.553 -32.505,32.505 0,17.952 14.553,32.505 32.505,32.505 C -14.553,32.505 0,17.952 0,0"
             style="fill:#ffffff;fill-opacity:1;fill-rule:nonzero;stroke:none"
             id="path20" />
        </g>
        <g
           id="g22"
           transform="translate(83.2121,42.9915)">
          <path
             d="m 0,0 c 0,-17.952 -14.553,-32.505 -32.505,-32.505 -17.952,0 -32.505,14.553 -32.505,32.505 0,17.952 14.553,32.505 32.505,32.505 C -14.553,32.505 0,17.952 0,0"
             style="fill:#ffffff;fill-opacity:1;fill-rule:nonzero;stroke:none"
             id="path24" />
        </g>
        <g
           id="g26"
           transform="translate(131.7979,42.9915)">
          <path
             d="m 0,0 c 0,-17.952 -14.553,-32.505 -32.505,-32.505 -17.952,0 -32.505,14.553 -32.505,32.505 0,17.952 14.553,32.505 32.505,32.505 C -14.553,32.505 0,17.952 0,0 Z"
             style="fill:none;stroke:#000000;stroke-width:1.5;stroke-linecap:round;stroke-linejoin:round;stroke-miterlimit:10;stroke-dasharray:none;stroke-opacity:1"
             id="path28" />
        </g>
        <g
           id="g30"
           transform="translate(83.2121,42.9915)">
          <path
             d="m 0,0 c 0,-17.952 -14.553,-32.505 -32.505,-32.505 -17.952,0 -32.505,14.553 -32.505,32.505 0,17.952 14.553,32.505 32.505,32.505 C -14.553,32.505 0,17.952 0,0 Z"
             style="fill:none;stroke:#000000;stroke-width:1.5;stroke-linecap:round;stroke-linejoin:round;stroke-miterlimit:10;stroke-dasharray:none;stroke-opacity:1"
             id="path32" />
        </g>
        <g
           id="g34"
           transform="translate(107.556,37.0414)">
          <path
             d="m 0,0 h -65.393 c -2.64,0 -4.78,2.14 -4.78,4.78 v 49.31 c 0,2.64 2.14,4.78 4.78,4.78 L 0,58.87 c 2.64,0 4.78,-2.14 4.78,-4.78 V 4.78 C 4.78,2.14 2.64,0 0,0"
             style="fill:#bffeff;fill-opacity:1;fill-rule:nonzero;stroke:none"
             id="path36" />
        </g>
        <g
           id="g38"
           transform="translate(98.9034,95.9117)">
          <path
             d="m 0,0 h -48.088 v 19.558 c 0,13.279 10.765,24.044 24.044,24.044 v 0 C -10.765,43.602 0,32.837 0,19.558 Z"
             style="fill:none;stroke:#000000;stroke-width:1.5;stroke-linecap:round;stroke-linejoin:round;stroke-miterlimit:10;stroke-dasharray:none;stroke-opacity:1"
             id="path40" />
        </g>
        <g
           id="g42"
           transform="translate(60.7903,95.9117)">
          <path
             d="m 0,0 v 19.559 c 0,7.757 6.311,14.069 14.069,14.069 7.758,0 14.07,-6.312 14.07,-14.069 L 28.139,0 Z"
             style="fill:none;stroke:#000000;stroke-width:1.5;stroke-linecap:round;stroke-linejoin:round;stroke-miterlimit:10;stroke-dasharray:none;stroke-opacity:1"
             id="path44" />
        </g>
        <g
           id="g46"
           transform="translate(107.556,37.0414)">
          <path
             d="m 0,0 h -65.393 c -2.64,0 -4.78,2.14 -4.78,4.78 v 49.31 c 0,2.64 2.14,4.78 4.78,4.78 L 0,58.87 c 2.64,0 4.78,-2.14 4.78,-4.78 V 4.78 C 4.78,2.14 2.64,0 0,0 Z"
             style="fill:none;stroke:#000000;stroke-width:1.5;stroke-linecap:round;stroke-linejoin:round;stroke-miterlimit:10;stroke-dasharray:none;stroke-opacity:1"
             id="path48" />
        </g>
        <g
           id="g50"
           transform="translate(81.0778,62.4819)">
          <path
             d="m 0,0 c 0,-3.434 -2.784,-6.218 -6.218,-6.218 -3.434,0 -6.218,2.784 -6.218,6.218 0,3.434 2.784,6.218 6.218,6.218 C -2.784,6.218 0,3.434 0,0"
             style="fill:#000000;fill-opacity:1;fill-rule:nonzero;stroke:none"
             id="path52" />
        </g>
        <g
           id="g54"
           transform="translate(74.8596,49.0578)">
          <path
             d="m 0,0 v 0 c -1.302,0 -2.357,1.055 -2.357,2.357 v 6.572 c 0,1.302 1.055,2.358 2.357,2.358 v 0 c 1.302,0 2.357,-1.056 2.357,-2.358 V 2.357 C 2.357,1.055 1.302,0 0,0"
             style="fill:#000000;fill-opacity:1;fill-rule:nonzero;stroke:none"
             id="path56" />
        </g>
      </g>
    </g>
  </g>
</svg>
