<?xml version="1.0" encoding="UTF-8" standalone="no"?>
<!-- Created with Inkscape (http://www.inkscape.org/) -->

<svg
   version="1.1"
   id="svg2"
   width="200"
   height="200"
   viewBox="0 0 200 200"
   sodipodi:docname="Monitoring.ai"
   xmlns:inkscape="http://www.inkscape.org/namespaces/inkscape"
   xmlns:sodipodi="http://sodipodi.sourceforge.net/DTD/sodipodi-0.dtd"
   xmlns="http://www.w3.org/2000/svg"
   xmlns:svg="http://www.w3.org/2000/svg">
  <defs
     id="defs6">
    <clipPath
       clipPathUnits="userSpaceOnUse"
       id="clipPath16">
      <path
         d="M 0,150 H 150 V 0 H 0 Z"
         id="path14" />
    </clipPath>
  </defs>
  <sodipodi:namedview
     id="namedview4"
     pagecolor="#ffffff"
     bordercolor="#000000"
     borderopacity="0.25"
     inkscape:showpageshadow="2"
     inkscape:pageopacity="0.0"
     inkscape:pagecheckerboard="0"
     inkscape:deskcolor="#d1d1d1" />
  <g
     id="g8"
     inkscape:groupmode="layer"
     inkscape:label="Monitoring"
     transform="matrix(1.3333333,0,0,-1.3333333,0,200)">
    <g
       id="g10">
      <g
         id="g12"
         clip-path="url(#clipPath16)">
        <g
           id="g18"
           transform="translate(107.4626,24.1303)">
          <path
             d="m 0,0 h -64.925 c -2.621,0 -4.746,2.125 -4.746,4.746 v 48.958 c 0,2.621 2.125,4.745 4.746,4.745 H 0 c 2.621,0 4.746,-2.124 4.746,-4.745 V 4.746 C 4.746,2.125 2.621,0 0,0"
             style="fill:#bffeff;fill-opacity:1;fill-rule:nonzero;stroke:none"
             id="path20" />
        </g>
        <g
           id="g22"
           transform="translate(98.8719,82.5797)">
          <path
             d="m 0,0 h -47.744 v 19.418 c 0,13.184 10.688,23.872 23.872,23.872 v 0 C -10.688,43.29 0,32.602 0,19.418 Z"
             style="fill:none;stroke:#000000;stroke-width:1.5;stroke-linecap:butt;stroke-linejoin:miter;stroke-miterlimit:10;stroke-dasharray:none;stroke-opacity:1"
             id="path24" />
        </g>
        <g
           id="g26"
           transform="translate(61.0313,82.5797)">
          <path
             d="m 0,0 v 19.419 c 0,7.701 6.266,13.968 13.968,13.968 7.703,0 13.97,-6.267 13.97,-13.968 L 27.938,0 Z"
             style="fill:none;stroke:#000000;stroke-width:1.5;stroke-linecap:butt;stroke-linejoin:miter;stroke-miterlimit:10;stroke-dasharray:none;stroke-opacity:1"
             id="path28" />
        </g>
        <g
           id="g30"
           transform="translate(107.4626,24.1303)">
          <path
             d="m 0,0 h -64.925 c -2.621,0 -4.746,2.125 -4.746,4.746 v 48.958 c 0,2.621 2.125,4.745 4.746,4.745 H 0 c 2.621,0 4.746,-2.124 4.746,-4.745 V 4.746 C 4.746,2.125 2.621,0 0,0 Z"
             style="fill:none;stroke:#000000;stroke-width:1.5;stroke-linecap:butt;stroke-linejoin:miter;stroke-miterlimit:10;stroke-dasharray:none;stroke-opacity:1"
             id="path32" />
        </g>
        <g
           id="g34"
           transform="translate(81.1738,49.3889)">
          <path
             d="m 0,0 c 0,-3.41 -2.764,-6.174 -6.174,-6.174 -3.409,0 -6.174,2.764 -6.174,6.174 0,3.41 2.765,6.174 6.174,6.174 C -2.764,6.174 0,3.41 0,0"
             style="fill:#000000;fill-opacity:1;fill-rule:nonzero;stroke:none"
             id="path36" />
        </g>
        <g
           id="g38"
           transform="translate(75,36.0608)">
          <path
             d="m 0,0 v 0 c -1.293,0 -2.34,1.048 -2.34,2.34 v 6.525 c 0,1.293 1.047,2.341 2.34,2.341 1.293,0 2.34,-1.048 2.34,-2.341 V 2.34 C 2.34,1.048 1.293,0 0,0"
             style="fill:#000000;fill-opacity:1;fill-rule:nonzero;stroke:none"
             id="path40" />
        </g>
      </g>
    </g>
  </g>
</svg>
