<?xml version="1.0" encoding="UTF-8" standalone="no"?>
<!-- Created with Inkscape (http://www.inkscape.org/) -->

<svg
   version="1.1"
   id="svg2"
   width="200"
   height="200"
   viewBox="0 0 200 200"
   sodipodi:docname="Security.ai"
   xmlns:inkscape="http://www.inkscape.org/namespaces/inkscape"
   xmlns:sodipodi="http://sodipodi.sourceforge.net/DTD/sodipodi-0.dtd"
   xmlns="http://www.w3.org/2000/svg"
   xmlns:svg="http://www.w3.org/2000/svg">
  <defs
     id="defs6">
    <clipPath
       clipPathUnits="userSpaceOnUse"
       id="clipPath16">
      <path
         d="M 0,150 H 150 V 0 H 0 Z"
         id="path14" />
    </clipPath>
  </defs>
  <sodipodi:namedview
     id="namedview4"
     pagecolor="#ffffff"
     bordercolor="#000000"
     borderopacity="0.25"
     inkscape:showpageshadow="2"
     inkscape:pageopacity="0.0"
     inkscape:pagecheckerboard="0"
     inkscape:deskcolor="#d1d1d1" />
  <g
     id="g8"
     inkscape:groupmode="layer"
     inkscape:label="Security"
     transform="matrix(1.3333333,0,0,-1.3333333,0,200)">
    <g
       id="g10">
      <g
         id="g12"
         clip-path="url(#clipPath16)">
        <g
           id="g18"
           transform="translate(112.9042,15.6032)">
          <path
             d="m 0,0 h -75.808 c -3.061,0 -5.542,2.481 -5.542,5.541 v 57.165 c 0,3.06 2.481,5.541 5.542,5.541 H 0 c 3.06,0 5.541,-2.481 5.541,-5.541 V 5.541 C 5.541,2.481 3.06,0 0,0"
             style="fill:#bffeff;fill-opacity:1;fill-rule:nonzero;stroke:none"
             id="path20" />
        </g>
        <g
           id="g22"
           transform="translate(102.8734,83.8502)">
          <path
             d="m 0,0 h -55.747 v 22.673 c 0,15.394 12.479,27.874 27.874,27.874 v 0 C -12.479,50.547 0,38.067 0,22.673 Z"
             style="fill:none;stroke:#000000;stroke-width:1.5;stroke-linecap:butt;stroke-linejoin:miter;stroke-miterlimit:10;stroke-dasharray:none;stroke-opacity:1"
             id="path24" />
        </g>
        <g
           id="g26"
           transform="translate(58.6897,83.8502)">
          <path
             d="m 0,0 v 22.674 c 0,8.992 7.316,16.31 16.31,16.31 8.993,0 16.311,-7.318 16.311,-16.31 L 32.621,0 Z"
             style="fill:none;stroke:#000000;stroke-width:1.5;stroke-linecap:butt;stroke-linejoin:miter;stroke-miterlimit:10;stroke-dasharray:none;stroke-opacity:1"
             id="path28" />
        </g>
        <g
           id="g30"
           transform="translate(112.9042,15.6032)">
          <path
             d="m 0,0 h -75.808 c -3.061,0 -5.542,2.481 -5.542,5.541 v 57.165 c 0,3.06 2.481,5.541 5.542,5.541 H 0 c 3.06,0 5.541,-2.481 5.541,-5.541 V 5.541 C 5.541,2.481 3.06,0 0,0 Z"
             style="fill:none;stroke:#000000;stroke-width:1.5;stroke-linecap:butt;stroke-linejoin:miter;stroke-miterlimit:10;stroke-dasharray:none;stroke-opacity:1"
             id="path32" />
        </g>
        <g
           id="g34"
           transform="translate(54.4203,41.6054)">
          <path
             d="m 0,0 10.731,-11.029 34.28,31.895"
             style="fill:none;stroke:#000000;stroke-width:1.5;stroke-linecap:butt;stroke-linejoin:miter;stroke-miterlimit:10;stroke-dasharray:none;stroke-opacity:1"
             id="path36" />
        </g>
      </g>
    </g>
  </g>
</svg>
