<?xml version="1.0" encoding="UTF-8" standalone="no"?>
<!-- Created with Inkscape (http://www.inkscape.org/) -->

<svg
   version="1.1"
   id="svg2"
   width="200"
   height="200"
   viewBox="0 0 200 200"
   sodipodi:docname="365.ai"
   xmlns:inkscape="http://www.inkscape.org/namespaces/inkscape"
   xmlns:sodipodi="http://sodipodi.sourceforge.net/DTD/sodipodi-0.dtd"
   xmlns="http://www.w3.org/2000/svg"
   xmlns:svg="http://www.w3.org/2000/svg">
  <defs
     id="defs6">
    <clipPath
       clipPathUnits="userSpaceOnUse"
       id="clipPath16">
      <path
         d="M 0,150 H 150 V 0 H 0 Z"
         id="path14" />
    </clipPath>
  </defs>
  <sodipodi:namedview
     id="namedview4"
     pagecolor="#ffffff"
     bordercolor="#000000"
     borderopacity="0.25"
     inkscape:showpageshadow="2"
     inkscape:pageopacity="0.0"
     inkscape:pagecheckerboard="0"
     inkscape:deskcolor="#d1d1d1" />
  <g
     id="g8"
     inkscape:groupmode="layer"
     inkscape:label="365"
     transform="matrix(1.3333333,0,0,-1.3333333,0,200)">
    <g
       id="g10">
      <g
         id="g12"
         clip-path="url(#clipPath16)">
        <g
           id="g18"
           transform="translate(118.215,69.4619)">
          <path
             d="m 0,0 c 0,-21.939 -17.785,-39.723 -39.723,-39.723 -21.939,0 -39.724,17.784 -39.724,39.723 0,21.939 17.785,39.723 39.724,39.723 C -17.785,39.723 0,21.939 0,0"
             style="fill:#bffeff;fill-opacity:1;fill-rule:nonzero;stroke:none"
             id="path20" />
        </g>
        <g
           id="g22"
           transform="translate(118.215,69.4619)">
          <path
             d="m 0,0 c 0,-21.939 -17.785,-39.723 -39.723,-39.723 -21.939,0 -39.724,17.784 -39.724,39.723 0,21.939 17.785,39.723 39.724,39.723 C -17.785,39.723 0,21.939 0,0 Z"
             style="fill:none;stroke:#000000;stroke-width:1.5;stroke-linecap:round;stroke-linejoin:round;stroke-miterlimit:10;stroke-dasharray:none;stroke-opacity:1"
             id="path24" />
        </g>
        <g
           id="g26"
           transform="translate(133.9998,65.7314)">
          <path
             d="m 0,0 h -31.57 c -2.079,0 -3.765,1.686 -3.765,3.766 v 0 c 0,2.08 1.686,3.766 3.765,3.766 H 0 c 2.08,0 3.766,-1.686 3.766,-3.766 v 0 C 3.766,1.686 2.08,0 0,0"
             style="fill:#ffffff;fill-opacity:1;fill-rule:nonzero;stroke:none"
             id="path28" />
        </g>
        <g
           id="g30"
           transform="translate(54.5531,65.7314)">
          <path
             d="m 0,0 h -31.57 c -2.079,0 -3.765,1.686 -3.765,3.766 v 0 c 0,2.08 1.686,3.766 3.765,3.766 H 0 c 2.08,0 3.766,-1.686 3.766,-3.766 v 0 C 3.766,1.686 2.08,0 0,0"
             style="fill:#ffffff;fill-opacity:1;fill-rule:nonzero;stroke:none"
             id="path32" />
        </g>
        <g
           id="g34"
           transform="translate(82.2576,125.0054)">
          <path
             d="m 0,0 v -31.57 c 0,-2.079 -1.686,-3.765 -3.766,-3.765 v 0 c -2.08,0 -3.766,1.686 -3.766,3.765 V 0 c 0,2.08 1.686,3.766 3.766,3.766 v 0 C -1.686,3.766 0,2.08 0,0"
             style="fill:#ffffff;fill-opacity:1;fill-rule:nonzero;stroke:none"
             id="path36" />
        </g>
        <g
           id="g38"
           transform="translate(82.2576,45.5587)">
          <path
             d="m 0,0 v -31.57 c 0,-2.079 -1.686,-3.765 -3.766,-3.765 v 0 c -2.08,0 -3.766,1.686 -3.766,3.765 V 0 c 0,2.08 1.686,3.766 3.766,3.766 v 0 C -1.686,3.766 0,2.08 0,0"
             style="fill:#ffffff;fill-opacity:1;fill-rule:nonzero;stroke:none"
             id="path40" />
        </g>
        <g
           id="g42"
           transform="translate(133.9998,65.7314)">
          <path
             d="m 0,0 h -31.57 c -2.079,0 -3.765,1.686 -3.765,3.766 v 0 c 0,2.08 1.686,3.766 3.765,3.766 H 0 c 2.08,0 3.766,-1.686 3.766,-3.766 v 0 C 3.766,1.686 2.08,0 0,0 Z"
             style="fill:none;stroke:#000000;stroke-width:1.5;stroke-linecap:round;stroke-linejoin:round;stroke-miterlimit:10;stroke-dasharray:none;stroke-opacity:1"
             id="path44" />
        </g>
        <g
           id="g46"
           transform="translate(54.5531,65.7314)">
          <path
             d="m 0,0 h -31.57 c -2.079,0 -3.765,1.686 -3.765,3.766 v 0 c 0,2.08 1.686,3.766 3.765,3.766 H 0 c 2.08,0 3.766,-1.686 3.766,-3.766 v 0 C 3.766,1.686 2.08,0 0,0 Z"
             style="fill:none;stroke:#000000;stroke-width:1.5;stroke-linecap:round;stroke-linejoin:round;stroke-miterlimit:10;stroke-dasharray:none;stroke-opacity:1"
             id="path48" />
        </g>
        <g
           id="g50"
           transform="translate(82.2576,125.0054)">
          <path
             d="m 0,0 v -31.57 c 0,-2.079 -1.686,-3.765 -3.766,-3.765 v 0 c -2.08,0 -3.766,1.686 -3.766,3.765 V 0 c 0,2.08 1.686,3.766 3.766,3.766 v 0 C -1.686,3.766 0,2.08 0,0 Z"
             style="fill:none;stroke:#000000;stroke-width:1.5;stroke-linecap:round;stroke-linejoin:round;stroke-miterlimit:10;stroke-dasharray:none;stroke-opacity:1"
             id="path52" />
        </g>
        <g
           id="g54"
           transform="translate(82.2576,45.5587)">
          <path
             d="m 0,0 v -31.57 c 0,-2.079 -1.686,-3.765 -3.766,-3.765 v 0 c -2.08,0 -3.766,1.686 -3.766,3.765 V 0 c 0,2.08 1.686,3.766 3.766,3.766 v 0 C -1.686,3.766 0,2.08 0,0 Z"
             style="fill:none;stroke:#000000;stroke-width:1.5;stroke-linecap:round;stroke-linejoin:round;stroke-miterlimit:10;stroke-dasharray:none;stroke-opacity:1"
             id="path56" />
        </g>
      </g>
    </g>
  </g>
</svg>
