<?xml version="1.0" encoding="UTF-8" standalone="no"?>
<!-- Created with Inkscape (http://www.inkscape.org/) -->

<svg
   version="1.1"
   id="svg2"
   width="200"
   height="200"
   viewBox="0 0 200 200"
   sodipodi:docname="Audio moderation.ai"
   xmlns:inkscape="http://www.inkscape.org/namespaces/inkscape"
   xmlns:sodipodi="http://sodipodi.sourceforge.net/DTD/sodipodi-0.dtd"
   xmlns="http://www.w3.org/2000/svg"
   xmlns:svg="http://www.w3.org/2000/svg">
  <defs
     id="defs6">
    <clipPath
       clipPathUnits="userSpaceOnUse"
       id="clipPath20">
      <path
         d="M 0,150 H 150 V 0 H 0 Z"
         id="path18" />
    </clipPath>
  </defs>
  <sodipodi:namedview
     id="namedview4"
     pagecolor="#ffffff"
     bordercolor="#000000"
     borderopacity="0.25"
     inkscape:showpageshadow="2"
     inkscape:pageopacity="0.0"
     inkscape:pagecheckerboard="0"
     inkscape:deskcolor="#d1d1d1" />
  <g
     id="g8"
     inkscape:groupmode="layer"
     inkscape:label="Audio moderation"
     transform="matrix(1.3333333,0,0,-1.3333333,0,200)">
    <g
       id="g10"
       transform="translate(25.1178,95)">
      <path
         d="M 0,0 H 99.764"
         style="fill:none;stroke:#000000;stroke-width:1.5;stroke-linecap:round;stroke-linejoin:round;stroke-miterlimit:10;stroke-dasharray:none;stroke-opacity:1"
         id="path12" />
    </g>
    <g
       id="g14">
      <g
         id="g16"
         clip-path="url(#clipPath20)">
        <g
           id="g22"
           transform="translate(73.4521,95)">
          <path
             d="m 0,0 c 0,-9.692 -7.857,-17.549 -17.549,-17.549 -9.692,0 -17.549,7.857 -17.549,17.549 0,9.692 7.857,17.549 17.549,17.549 C -7.857,17.549 0,9.692 0,0"
             style="fill:#bffeff;fill-opacity:1;fill-rule:nonzero;stroke:none"
             id="path24" />
        </g>
        <g
           id="g26"
           transform="translate(73.4521,95)">
          <path
             d="m 0,0 c 0,-9.692 -7.857,-17.549 -17.549,-17.549 -9.692,0 -17.549,7.857 -17.549,17.549 0,9.692 7.857,17.549 17.549,17.549 C -7.857,17.549 0,9.692 0,0 Z"
             style="fill:none;stroke:#000000;stroke-width:1.5;stroke-linecap:round;stroke-linejoin:round;stroke-miterlimit:10;stroke-dasharray:none;stroke-opacity:1"
             id="path28" />
        </g>
        <g
           id="g30"
           transform="translate(124.8822,55)">
          <path
             d="M 0,0 H -99.764"
             style="fill:none;stroke:#000000;stroke-width:1.5;stroke-linecap:round;stroke-linejoin:round;stroke-miterlimit:10;stroke-dasharray:none;stroke-opacity:1"
             id="path32" />
        </g>
        <g
           id="g34"
           transform="translate(76.5479,55)">
          <path
             d="m 0,0 c 0,9.692 7.857,17.549 17.549,17.549 9.692,0 17.549,-7.857 17.549,-17.549 0,-9.692 -7.857,-17.549 -17.549,-17.549 C 7.857,-17.549 0,-9.692 0,0"
             style="fill:#bffeff;fill-opacity:1;fill-rule:nonzero;stroke:none"
             id="path36" />
        </g>
        <g
           id="g38"
           transform="translate(76.5479,55)">
          <path
             d="m 0,0 c 0,9.692 7.857,17.549 17.549,17.549 9.692,0 17.549,-7.857 17.549,-17.549 0,-9.692 -7.857,-17.549 -17.549,-17.549 C 7.857,-17.549 0,-9.692 0,0 Z"
             style="fill:none;stroke:#000000;stroke-width:1.5;stroke-linecap:round;stroke-linejoin:round;stroke-miterlimit:10;stroke-dasharray:none;stroke-opacity:1"
             id="path40" />
        </g>
      </g>
    </g>
  </g>
</svg>
