<?xml version="1.0" encoding="UTF-8" standalone="no"?>
<!-- Created with Inkscape (http://www.inkscape.org/) -->

<svg
   version="1.1"
   id="svg2"
   width="200"
   height="200"
   viewBox="0 0 200 200"
   sodipodi:docname="Audio sourcing.ai"
   xmlns:inkscape="http://www.inkscape.org/namespaces/inkscape"
   xmlns:sodipodi="http://sodipodi.sourceforge.net/DTD/sodipodi-0.dtd"
   xmlns="http://www.w3.org/2000/svg"
   xmlns:svg="http://www.w3.org/2000/svg">
  <defs
     id="defs6">
    <clipPath
       clipPathUnits="userSpaceOnUse"
       id="clipPath22">
      <path
         d="M 0,150 H 150 V 0 H 0 Z"
         id="path20" />
    </clipPath>
  </defs>
  <sodipodi:namedview
     id="namedview4"
     pagecolor="#ffffff"
     bordercolor="#000000"
     borderopacity="0.25"
     inkscape:showpageshadow="2"
     inkscape:pageopacity="0.0"
     inkscape:pagecheckerboard="0"
     inkscape:deskcolor="#d1d1d1" />
  <g
     id="g8"
     inkscape:groupmode="layer"
     inkscape:label="Audio sourcing"
     transform="matrix(1.3333333,0,0,-1.3333333,0,200)">
    <path
       d="M 129.953,27.685 H 20.047 v 61.96 h 109.906 z"
       style="fill:#ffffff;fill-opacity:1;fill-rule:nonzero;stroke:#000000;stroke-width:1.5;stroke-linecap:round;stroke-linejoin:round;stroke-miterlimit:10;stroke-dasharray:none;stroke-opacity:1"
       id="path10" />
    <g
       id="g12"
       transform="translate(31.2354,70.0954)">
      <path
         d="M 0,0 H 87.525"
         style="fill:none;stroke:#000000;stroke-width:1.5;stroke-linecap:round;stroke-linejoin:round;stroke-miterlimit:10;stroke-dasharray:none;stroke-opacity:1"
         id="path14" />
    </g>
    <g
       id="g16">
      <g
         id="g18"
         clip-path="url(#clipPath22)">
        <g
           id="g24"
           transform="translate(50.6074,70.0954)">
          <path
             d="m 0,0 c 0,-4.381 -3.551,-7.932 -7.932,-7.932 -4.381,0 -7.932,3.551 -7.932,7.932 0,4.381 3.551,7.932 7.932,7.932 C -3.551,7.932 0,4.381 0,0"
             style="fill:#bffeff;fill-opacity:1;fill-rule:nonzero;stroke:none"
             id="path26" />
        </g>
        <g
           id="g28"
           transform="translate(50.6074,70.0954)">
          <path
             d="m 0,0 c 0,-4.381 -3.551,-7.932 -7.932,-7.932 -4.381,0 -7.932,3.551 -7.932,7.932 0,4.381 3.551,7.932 7.932,7.932 C -3.551,7.932 0,4.381 0,0 Z"
             style="fill:none;stroke:#000000;stroke-width:1.5;stroke-linecap:round;stroke-linejoin:round;stroke-miterlimit:10;stroke-dasharray:none;stroke-opacity:1"
             id="path30" />
        </g>
        <g
           id="g32"
           transform="translate(118.7606,47.2316)">
          <path
             d="M 0,0 H -87.525"
             style="fill:none;stroke:#000000;stroke-width:1.5;stroke-linecap:round;stroke-linejoin:round;stroke-miterlimit:10;stroke-dasharray:none;stroke-opacity:1"
             id="path34" />
        </g>
        <g
           id="g36"
           transform="translate(99.3886,47.2316)">
          <path
             d="m 0,0 c 0,4.381 3.551,7.932 7.932,7.932 4.381,0 7.932,-3.551 7.932,-7.932 0,-4.381 -3.551,-7.932 -7.932,-7.932 C 3.551,-7.932 0,-4.381 0,0"
             style="fill:#bffeff;fill-opacity:1;fill-rule:nonzero;stroke:none"
             id="path38" />
        </g>
        <g
           id="g40"
           transform="translate(99.3886,47.2316)">
          <path
             d="m 0,0 c 0,4.381 3.551,7.932 7.932,7.932 4.381,0 7.932,-3.551 7.932,-7.932 0,-4.381 -3.551,-7.932 -7.932,-7.932 C 3.551,-7.932 0,-4.381 0,0 Z"
             style="fill:none;stroke:#000000;stroke-width:1.5;stroke-linecap:round;stroke-linejoin:round;stroke-miterlimit:10;stroke-dasharray:none;stroke-opacity:1"
             id="path42" />
        </g>
        <g
           id="g44"
           transform="translate(106.0697,95.3417)">
          <path
             d="m 0,0 -4.016,-5.697 h -7.294 l 6.078,8.617 -0.894,2.038 -3.003,0.477 c -4.398,0.691 -7.878,3.944 -8.855,8.294 l -1.275,5.661 -2.777,1.466 -3.671,-2.097 c -2.169,-1.24 -4.612,-1.86 -7.043,-1.86 -2.443,0 -4.875,0.62 -7.056,1.86 l -3.67,2.097 -2.765,-1.466 -1.287,-5.661 c -0.977,-4.35 -4.457,-7.603 -8.855,-8.294 l -2.991,-0.477 -0.906,-2.038 6.078,-8.617 h -7.282 L -65.512,0 c -0.977,1.395 -1.156,3.206 -0.465,4.767 l 1.394,3.147 c 0.668,1.513 2.05,2.574 3.683,2.836 l 3.587,0.56 c 1.967,0.31 3.54,1.788 3.981,3.73 l 1.382,6.15 c 0.322,1.382 1.216,2.55 2.455,3.218 l 3.754,2.002 c 1.478,0.775 3.242,0.751 4.696,-0.072 l 4.195,-2.395 c 2.539,-1.454 5.649,-1.454 8.188,0 l 4.207,2.395 c 1.442,0.823 3.217,0.847 4.683,0.072 l 3.754,-2.002 c 1.252,-0.668 2.146,-1.836 2.455,-3.218 l 1.395,-6.15 c 0.429,-1.942 2.014,-3.42 3.968,-3.73 l 3.6,-0.56 c 1.621,-0.262 3.003,-1.323 3.67,-2.836 L 0.465,4.767 C 1.156,3.206 0.989,1.395 0,0"
             style="fill:#bffeff;fill-opacity:1;fill-rule:nonzero;stroke:none"
             id="path46" />
        </g>
        <g
           id="g48"
           transform="translate(106.0697,95.3417)">
          <path
             d="m 0,0 -4.016,-5.697 h -7.294 l 6.078,8.617 -0.894,2.038 -3.003,0.477 c -4.398,0.691 -7.878,3.944 -8.855,8.294 l -1.275,5.661 -2.777,1.466 -3.671,-2.097 c -2.169,-1.24 -4.612,-1.86 -7.043,-1.86 -2.443,0 -4.875,0.62 -7.056,1.86 l -3.67,2.097 -2.765,-1.466 -1.287,-5.661 c -0.977,-4.35 -4.457,-7.603 -8.855,-8.294 l -2.991,-0.477 -0.906,-2.038 6.078,-8.617 h -7.282 L -65.512,0 c -0.977,1.395 -1.156,3.206 -0.465,4.767 l 1.394,3.147 c 0.668,1.513 2.05,2.574 3.683,2.836 l 3.587,0.56 c 1.967,0.31 3.54,1.788 3.981,3.73 l 1.382,6.15 c 0.322,1.382 1.216,2.55 2.455,3.218 l 3.754,2.002 c 1.478,0.775 3.242,0.751 4.696,-0.072 l 4.195,-2.395 c 2.539,-1.454 5.649,-1.454 8.188,0 l 4.207,2.395 c 1.442,0.823 3.217,0.847 4.683,0.072 l 3.754,-2.002 c 1.252,-0.668 2.146,-1.836 2.455,-3.218 l 1.395,-6.15 c 0.429,-1.942 2.014,-3.42 3.968,-3.73 l 3.6,-0.56 c 1.621,-0.262 3.003,-1.323 3.67,-2.836 L 0.465,4.767 C 1.156,3.206 0.989,1.395 0,0 Z"
             style="fill:none;stroke:#000000;stroke-width:1.5;stroke-linecap:round;stroke-linejoin:round;stroke-miterlimit:10;stroke-dasharray:none;stroke-opacity:1"
             id="path50" />
        </g>
        <g
           id="g52"
           transform="translate(100.8377,98.2615)">
          <path
             d="M 0,0 -6.078,-8.617 H -48.97 L -55.048,0 l 0.906,2.038 2.991,0.477 c 4.398,0.691 7.878,3.945 8.855,8.295 l 1.287,5.66 2.765,1.466 3.67,-2.097 c 2.182,-1.24 4.613,-1.859 7.056,-1.859 2.431,0 4.874,0.619 7.043,1.859 l 3.671,2.097 2.777,-1.466 1.275,-5.66 c 0.977,-4.35 4.457,-7.604 8.855,-8.295 l 3.003,-0.477 z"
             style="fill:none;stroke:#000000;stroke-width:1.5;stroke-linecap:round;stroke-linejoin:round;stroke-miterlimit:10;stroke-dasharray:none;stroke-opacity:1"
             id="path54" />
        </g>
      </g>
    </g>
  </g>
</svg>
