<?xml version="1.0" encoding="UTF-8" standalone="no"?>
<!-- Created with Inkscape (http://www.inkscape.org/) -->

<svg
   version="1.1"
   id="svg2"
   width="200"
   height="200"
   viewBox="0 0 200 200"
   sodipodi:docname="Audio annotation.ai"
   xmlns:inkscape="http://www.inkscape.org/namespaces/inkscape"
   xmlns:sodipodi="http://sodipodi.sourceforge.net/DTD/sodipodi-0.dtd"
   xmlns="http://www.w3.org/2000/svg"
   xmlns:svg="http://www.w3.org/2000/svg">
  <defs
     id="defs6">
    <clipPath
       clipPathUnits="userSpaceOnUse"
       id="clipPath16">
      <path
         d="M 0,150 H 150 V 0 H 0 Z"
         id="path14" />
    </clipPath>
  </defs>
  <sodipodi:namedview
     id="namedview4"
     pagecolor="#ffffff"
     bordercolor="#000000"
     borderopacity="0.25"
     inkscape:showpageshadow="2"
     inkscape:pageopacity="0.0"
     inkscape:pagecheckerboard="0"
     inkscape:deskcolor="#d1d1d1" />
  <g
     id="g8"
     inkscape:groupmode="layer"
     inkscape:label="Audio annotation"
     transform="matrix(1.3333333,0,0,-1.3333333,0,200)">
    <g
       id="g10">
      <g
         id="g12"
         clip-path="url(#clipPath16)">
        <g
           id="g18"
           transform="translate(49.7128,59.3168)">
          <path
             d="m 0,0 h 5.68 c 1.61,0 3.167,-0.57 4.395,-1.609 l 17.142,-14.492 c 2.339,-1.978 5.922,-0.315 5.922,2.748 v 58.072 c 0,3.063 -3.583,4.726 -5.922,2.748 L 10.075,32.975 C 8.847,31.936 7.29,31.366 5.68,31.366 H 0 c -3.76,0 -6.807,-3.047 -6.807,-6.807 V 6.807 C -6.807,3.048 -3.76,0 0,0"
             style="fill:#ffffff;fill-opacity:1;fill-rule:nonzero;stroke:none"
             id="path20" />
        </g>
        <g
           id="g22"
           transform="translate(49.7128,59.3168)">
          <path
             d="m 0,0 h 5.68 c 1.61,0 3.167,-0.57 4.395,-1.609 l 17.142,-14.492 c 2.339,-1.978 5.922,-0.315 5.922,2.748 v 58.072 c 0,3.063 -3.583,4.726 -5.922,2.748 L 10.075,32.975 C 8.847,31.936 7.29,31.366 5.68,31.366 H 0 c -3.76,0 -6.807,-3.047 -6.807,-6.807 V 6.807 C -6.807,3.048 -3.76,0 0,0 Z"
             style="fill:none;stroke:#000000;stroke-width:1.5;stroke-linecap:round;stroke-linejoin:round;stroke-miterlimit:10;stroke-dasharray:none;stroke-opacity:1"
             id="path24" />
        </g>
        <g
           id="g26"
           transform="translate(100.4063,99.2671)">
          <path
             d="m 0,0 c 4.237,-7.109 6.688,-15.408 6.688,-24.267 0,-8.86 -2.451,-17.159 -6.653,-24.267"
             style="fill:none;stroke:#000000;stroke-width:1.5;stroke-linecap:round;stroke-linejoin:round;stroke-miterlimit:10;stroke-dasharray:none;stroke-opacity:1"
             id="path28" />
        </g>
        <g
           id="g30"
           transform="translate(92.2121,88.3942)">
          <path
             d="M 0,0 C 1.751,-4.132 2.696,-8.649 2.696,-13.377 2.696,-18.139 1.751,-22.656 0,-26.788"
             style="fill:none;stroke:#000000;stroke-width:1.5;stroke-linecap:round;stroke-linejoin:round;stroke-miterlimit:10;stroke-dasharray:none;stroke-opacity:1"
             id="path32" />
        </g>
      </g>
    </g>
  </g>
</svg>
