<?xml version="1.0" encoding="UTF-8" standalone="no"?>
<!-- Created with Inkscape (http://www.inkscape.org/) -->

<svg
   version="1.1"
   id="svg2"
   width="200"
   height="200"
   viewBox="0 0 200 200"
   sodipodi:docname="Autonomous Vehicle.ai"
   xmlns:inkscape="http://www.inkscape.org/namespaces/inkscape"
   xmlns:sodipodi="http://sodipodi.sourceforge.net/DTD/sodipodi-0.dtd"
   xmlns="http://www.w3.org/2000/svg"
   xmlns:svg="http://www.w3.org/2000/svg">
  <defs
     id="defs6">
    <clipPath
       clipPathUnits="userSpaceOnUse"
       id="clipPath16">
      <path
         d="M 0,150 H 150 V 0 H 0 Z"
         id="path14" />
    </clipPath>
  </defs>
  <sodipodi:namedview
     id="namedview4"
     pagecolor="#ffffff"
     bordercolor="#000000"
     borderopacity="0.25"
     inkscape:showpageshadow="2"
     inkscape:pageopacity="0.0"
     inkscape:pagecheckerboard="0"
     inkscape:deskcolor="#d1d1d1" />
  <g
     id="g8"
     inkscape:groupmode="layer"
     inkscape:label="Autonomous Vehicle"
     transform="matrix(1.3333333,0,0,-1.3333333,0,200)">
    <g
       id="g10">
      <g
         id="g12"
         clip-path="url(#clipPath16)">
        <g
           id="g18"
           transform="translate(115.275,57.635)">
          <path
             d="m 0,0 c 0,-5.84 -4.73,-10.57 -10.57,-10.57 -5.84,0 -10.57,4.73 -10.57,10.57 v 0.01 c 0.01,5.84 4.73,10.57 10.57,10.57 C -4.73,10.58 0,5.84 0,0"
             style="fill:#bffeff;fill-opacity:1;fill-rule:nonzero;stroke:none"
             id="path20" />
        </g>
        <g
           id="g22"
           transform="translate(59.015,57.645)">
          <path
             d="m 0,0 v -0.01 c 0,-5.84 -4.74,-10.57 -10.58,-10.57 -5.84,0 -10.57,4.73 -10.57,10.57 V 0 c 0.01,5.84 4.73,10.57 10.57,10.57 C -4.74,10.57 -0.01,5.84 0,0"
             style="fill:#bffeff;fill-opacity:1;fill-rule:nonzero;stroke:none"
             id="path24" />
        </g>
        <g
           id="g26"
           transform="translate(115.275,57.635)">
          <path
             d="m 0,0 c 0,-5.84 -4.73,-10.57 -10.57,-10.57 -5.84,0 -10.57,4.73 -10.57,10.57 v 0.01 c 0.01,5.84 4.73,10.57 10.57,10.57 C -4.73,10.58 0,5.84 0,0 Z"
             style="fill:none;stroke:#000000;stroke-width:1.5;stroke-linecap:round;stroke-linejoin:round;stroke-miterlimit:10;stroke-dasharray:none;stroke-opacity:1"
             id="path28" />
        </g>
        <g
           id="g30"
           transform="translate(59.015,57.645)">
          <path
             d="m 0,0 v -0.01 c 0,-5.84 -4.74,-10.57 -10.58,-10.57 -5.84,0 -10.57,4.73 -10.57,10.57 V 0 c 0.01,5.84 4.73,10.57 10.57,10.57 C -4.74,10.57 -0.01,5.84 0,0 Z"
             style="fill:none;stroke:#000000;stroke-width:1.5;stroke-linecap:round;stroke-linejoin:round;stroke-miterlimit:10;stroke-dasharray:none;stroke-opacity:1"
             id="path32" />
        </g>
        <g
           id="g34"
           transform="translate(72.935,82.2749)">
          <path
             d="M 0,0 V 16.32 H 7.86 L 23.48,0 Z M -5.03,0 H -28.24 V 16.32 H -5.03 Z M 47.32,0 H 33.74 C 32.91,0 32.1,0.34 31.53,0.94 L 13.57,19.71 c -0.57,0.61 -1.38,0.95 -2.21,0.95 h -40.42 c -1.05,0 -2.02,-0.53 -2.59,-1.41 L -39.64,6.8 C -39.96,6.3 -40.13,5.73 -40.13,5.14 V -7.77 c 0,-1.69 -1.37,-3.06 -3.07,-3.06 -0.85,0 -1.61,-0.35 -2.16,-0.9 -0.56,-0.56 -0.9,-1.33 -0.9,-2.17 v -7.66 c 0,-1.7 1.37,-3.07 3.06,-3.07 h 8.13 c 0.01,5.84 4.73,10.57 10.57,10.57 5.84,0 10.57,-4.73 10.58,-10.57 H 21.2 c 0.01,5.84 4.73,10.57 10.57,10.57 5.84,0 10.57,-4.74 10.57,-10.58 h 4.98 c 1.7,0 3.07,1.38 3.07,3.07 v 18.5 C 50.39,-1.38 49.02,0 47.32,0"
             style="fill:#ffffff;fill-opacity:1;fill-rule:nonzero;stroke:none"
             id="path36" />
        </g>
        <g
           id="g38"
           transform="translate(72.935,82.2749)">
          <path
             d="M 0,0 V 16.32 H 7.86 L 23.48,0 Z M -5.03,0 H -28.24 V 16.32 H -5.03 Z M 47.32,0 H 33.74 C 32.91,0 32.1,0.34 31.53,0.94 L 13.57,19.71 c -0.57,0.61 -1.38,0.95 -2.21,0.95 h -40.42 c -1.05,0 -2.02,-0.53 -2.59,-1.41 L -39.64,6.8 C -39.96,6.3 -40.13,5.73 -40.13,5.14 V -7.77 c 0,-1.69 -1.37,-3.06 -3.07,-3.06 -0.85,0 -1.61,-0.35 -2.16,-0.9 -0.56,-0.56 -0.9,-1.33 -0.9,-2.17 v -7.66 c 0,-1.7 1.37,-3.07 3.06,-3.07 h 8.13 c 0.01,5.84 4.73,10.57 10.57,10.57 5.84,0 10.57,-4.73 10.58,-10.57 H 21.2 c 0.01,5.84 4.73,10.57 10.57,10.57 5.84,0 10.57,-4.74 10.57,-10.58 h 4.98 c 1.7,0 3.07,1.38 3.07,3.07 v 18.5 C 50.39,-1.38 49.02,0 47.32,0 Z"
             style="fill:none;stroke:#000000;stroke-width:1.5;stroke-linecap:round;stroke-linejoin:round;stroke-miterlimit:10;stroke-dasharray:none;stroke-opacity:1"
             id="path40" />
        </g>
        <g
           id="g42"
           transform="translate(96.415,82.2749)">
          <path
             d="m 0,0 h -23.48 v 16.32 h 7.86 z"
             style="fill:none;stroke:#000000;stroke-width:1.5;stroke-linecap:round;stroke-linejoin:round;stroke-miterlimit:10;stroke-dasharray:none;stroke-opacity:1"
             id="path44" />
        </g>
        <path
           d="m 67.905,82.275 h -23.21 v 16.32 h 23.21 z"
           style="fill:none;stroke:#000000;stroke-width:1.5;stroke-linecap:round;stroke-linejoin:round;stroke-miterlimit:10;stroke-dasharray:none;stroke-opacity:1"
           id="path46" />
      </g>
    </g>
  </g>
</svg>
