<?xml version="1.0" encoding="UTF-8" standalone="no"?>
<!-- Created with Inkscape (http://www.inkscape.org/) -->

<svg
   version="1.1"
   id="svg2"
   width="200"
   height="200"
   viewBox="0 0 200 200"
   sodipodi:docname="Content moderation.ai"
   xmlns:inkscape="http://www.inkscape.org/namespaces/inkscape"
   xmlns:sodipodi="http://sodipodi.sourceforge.net/DTD/sodipodi-0.dtd"
   xmlns="http://www.w3.org/2000/svg"
   xmlns:svg="http://www.w3.org/2000/svg">
  <defs
     id="defs6">
    <clipPath
       clipPathUnits="userSpaceOnUse"
       id="clipPath16">
      <path
         d="M 0,150 H 150 V 0 H 0 Z"
         id="path14" />
    </clipPath>
  </defs>
  <sodipodi:namedview
     id="namedview4"
     pagecolor="#ffffff"
     bordercolor="#000000"
     borderopacity="0.25"
     inkscape:showpageshadow="2"
     inkscape:pageopacity="0.0"
     inkscape:pagecheckerboard="0"
     inkscape:deskcolor="#d1d1d1" />
  <g
     id="g8"
     inkscape:groupmode="layer"
     inkscape:label="Content moderation"
     transform="matrix(1.3333333,0,0,-1.3333333,0,200)">
    <g
       id="g10">
      <g
         id="g12"
         clip-path="url(#clipPath16)">
        <g
           id="g18"
           transform="translate(97.7373,108.6732)">
          <path
             d="m 0,0 v -67.346 c 0,-5.364 -4.346,-9.717 -9.717,-9.717 h -50.839 c -5.371,0 -9.717,4.353 -9.717,9.717 v 50.55 c 0,1.665 0.659,3.262 1.833,4.443 l 20.099,20.212 c 1.183,1.189 2.79,1.858 4.467,1.858 H -9.717 C -4.346,9.717 0,5.364 0,0"
             style="fill:#ffffff;fill-opacity:1;fill-rule:nonzero;stroke:none"
             id="path20" />
        </g>
        <g
           id="g22"
           transform="translate(97.7373,108.6732)">
          <path
             d="m 0,0 v -67.346 c 0,-5.364 -4.346,-9.717 -9.717,-9.717 h -50.839 c -5.371,0 -9.717,4.353 -9.717,9.717 v 50.55 c 0,1.665 0.659,3.262 1.833,4.443 l 20.099,20.212 c 1.183,1.189 2.79,1.858 4.467,1.858 H -9.717 C -4.346,9.717 0,5.364 0,0 Z"
             style="fill:none;stroke:#000000;stroke-width:1.5;stroke-linecap:round;stroke-linejoin:round;stroke-miterlimit:10;stroke-dasharray:none;stroke-opacity:1"
             id="path24" />
        </g>
        <g
           id="g26"
           transform="translate(52.0927,118.1325)">
          <path
             d="m 0,0 v -15.61 c 0,-4.652 -3.771,-8.422 -8.422,-8.422 h -15.794"
             style="fill:none;stroke:#000000;stroke-width:1.5;stroke-linecap:round;stroke-linejoin:round;stroke-miterlimit:10;stroke-dasharray:none;stroke-opacity:1"
             id="path28" />
        </g>
        <g
           id="g30"
           transform="translate(122.5355,103.9041)">
          <path
             d="m 0,0 -9.15,9.697 -4.857,-4.583 9.15,-9.697 z"
             style="fill:#bffeff;fill-opacity:1;fill-rule:nonzero;stroke:none"
             id="path32" />
        </g>
        <g
           id="g34"
           transform="translate(122.5355,103.9041)">
          <path
             d="m 0,0 -9.15,9.697 -4.857,-4.583 9.15,-9.697 z"
             style="fill:none;stroke:#000000;stroke-width:1.5;stroke-linecap:round;stroke-linejoin:round;stroke-miterlimit:10;stroke-dasharray:none;stroke-opacity:1"
             id="path36" />
        </g>
        <g
           id="g38"
           transform="translate(108.5284,109.0177)">
          <path
             d="m 0,0 -56.163,-52.999 -0.273,-9.423 9.424,-0.273 56.162,52.998 z"
             style="fill:#ffffff;fill-opacity:1;fill-rule:nonzero;stroke:none"
             id="path40" />
        </g>
        <g
           id="g42"
           transform="translate(108.5284,109.0177)">
          <path
             d="m 0,0 -56.163,-52.999 -0.273,-9.423 9.424,-0.273 56.162,52.998 z"
             style="fill:none;stroke:#000000;stroke-width:1.5;stroke-linecap:round;stroke-linejoin:round;stroke-miterlimit:10;stroke-dasharray:none;stroke-opacity:1"
             id="path44" />
        </g>
      </g>
    </g>
  </g>
</svg>
