<?xml version="1.0" encoding="UTF-8" standalone="no"?>
<!-- Created with Inkscape (http://www.inkscape.org/) -->

<svg
   version="1.1"
   id="svg2"
   width="200"
   height="200"
   viewBox="0 0 200 200"
   sodipodi:docname="Counterfeits.ai"
   xmlns:inkscape="http://www.inkscape.org/namespaces/inkscape"
   xmlns:sodipodi="http://sodipodi.sourceforge.net/DTD/sodipodi-0.dtd"
   xmlns="http://www.w3.org/2000/svg"
   xmlns:svg="http://www.w3.org/2000/svg">
  <defs
     id="defs6">
    <clipPath
       clipPathUnits="userSpaceOnUse"
       id="clipPath16">
      <path
         d="M 0,150 H 150 V 0 H 0 Z"
         id="path14" />
    </clipPath>
  </defs>
  <sodipodi:namedview
     id="namedview4"
     pagecolor="#ffffff"
     bordercolor="#000000"
     borderopacity="0.25"
     inkscape:showpageshadow="2"
     inkscape:pageopacity="0.0"
     inkscape:pagecheckerboard="0"
     inkscape:deskcolor="#d1d1d1" />
  <g
     id="g8"
     inkscape:groupmode="layer"
     inkscape:label="Counterfeits"
     transform="matrix(1.3333333,0,0,-1.3333333,0,200)">
    <g
       id="g10">
      <g
         id="g12"
         clip-path="url(#clipPath16)">
        <g
           id="g18"
           transform="translate(97.4903,116.8075)">
          <path
             d="m 0,0 c 0,10.995 -8.913,19.908 -19.908,19.908 -10.995,0 -19.909,-8.913 -19.909,-19.908 0,-10.995 8.914,-19.908 19.909,-19.908 C -8.913,-19.908 0,-10.995 0,0"
             style="fill:#ffffff;fill-opacity:1;fill-rule:nonzero;stroke:none"
             id="path20" />
        </g>
        <g
           id="g22"
           transform="translate(97.4903,116.8075)">
          <path
             d="m 0,0 c 0,10.995 -8.913,19.908 -19.908,19.908 -10.995,0 -19.909,-8.913 -19.909,-19.908 0,-10.995 8.914,-19.908 19.909,-19.908 C -8.913,-19.908 0,-10.995 0,0 Z"
             style="fill:none;stroke:#000000;stroke-width:1.5;stroke-linecap:round;stroke-linejoin:round;stroke-miterlimit:10;stroke-dasharray:none;stroke-opacity:1"
             id="path24" />
        </g>
        <g
           id="g26"
           transform="translate(77.582,96.8992)">
          <path
             d="M 0,0 C 28.2,0 16.048,-22.649 46.957,-22.649"
             style="fill:none;stroke:#000000;stroke-width:1.5;stroke-linecap:round;stroke-linejoin:round;stroke-miterlimit:10;stroke-dasharray:none;stroke-opacity:1"
             id="path28" />
        </g>
        <g
           id="g30"
           transform="translate(77.582,96.8992)">
          <path
             d="M 0,0 C -28.2,0 -16.048,-22.649 -46.957,-22.649"
             style="fill:none;stroke:#000000;stroke-width:1.5;stroke-linecap:round;stroke-linejoin:round;stroke-miterlimit:10;stroke-dasharray:none;stroke-opacity:1"
             id="path32" />
        </g>
        <g
           id="g34"
           transform="translate(116.9862,74.25)">
          <path
             d="m 0,0 -19.085,-33.055 h 38.17 z"
             style="fill:#ffffff;fill-opacity:1;fill-rule:nonzero;stroke:none"
             id="path36" />
        </g>
        <g
           id="g38"
           transform="translate(116.9862,74.25)">
          <path
             d="m 0,0 -19.085,-33.055 h 38.17 z"
             style="fill:none;stroke:#000000;stroke-width:1.5;stroke-linecap:round;stroke-linejoin:round;stroke-miterlimit:10;stroke-dasharray:none;stroke-opacity:1"
             id="path40" />
        </g>
        <g
           id="g42"
           transform="translate(97.9016,41.1946)">
          <path
             d="m 0,0 c 0,-10.54 8.544,-19.085 19.085,-19.085 10.54,0 19.084,8.545 19.084,19.085 z"
             style="fill:#bffeff;fill-opacity:1;fill-rule:nonzero;stroke:none"
             id="path44" />
        </g>
        <g
           id="g46"
           transform="translate(97.9016,41.1946)">
          <path
             d="m 0,0 c 0,-10.54 8.544,-19.085 19.085,-19.085 10.54,0 19.084,8.545 19.084,19.085 z"
             style="fill:none;stroke:#000000;stroke-width:1.5;stroke-linecap:round;stroke-linejoin:round;stroke-miterlimit:10;stroke-dasharray:none;stroke-opacity:1"
             id="path48" />
        </g>
        <g
           id="g50"
           transform="translate(38.1778,74.25)">
          <path
             d="m 0,0 -19.085,-33.055 h 38.17 z"
             style="fill:#ffffff;fill-opacity:1;fill-rule:nonzero;stroke:none"
             id="path52" />
        </g>
        <g
           id="g54"
           transform="translate(19.0933,41.1946)">
          <path
             d="m 0,0 c 0,-10.54 8.544,-19.085 19.085,-19.085 10.54,0 19.084,8.545 19.084,19.085 z"
             style="fill:#bffeff;fill-opacity:1;fill-rule:nonzero;stroke:none"
             id="path56" />
        </g>
        <g
           id="g58"
           transform="translate(38.1778,74.25)">
          <path
             d="m 0,0 -19.085,-33.055 h 38.17 z"
             style="fill:none;stroke:#000000;stroke-width:1.5;stroke-linecap:round;stroke-linejoin:round;stroke-miterlimit:10;stroke-dasharray:none;stroke-opacity:1"
             id="path60" />
        </g>
        <g
           id="g62"
           transform="translate(19.0933,41.1946)">
          <path
             d="m 0,0 c 0,-10.54 8.544,-19.085 19.085,-19.085 10.54,0 19.084,8.545 19.084,19.085 z"
             style="fill:none;stroke:#000000;stroke-width:1.5;stroke-linecap:round;stroke-linejoin:round;stroke-miterlimit:10;stroke-dasharray:none;stroke-opacity:1"
             id="path64" />
        </g>
      </g>
    </g>
  </g>
</svg>
