<?xml version="1.0" encoding="UTF-8" standalone="no"?>
<!-- Created with Inkscape (http://www.inkscape.org/) -->

<svg
   version="1.1"
   id="svg2"
   width="200"
   height="200"
   viewBox="0 0 200 200"
   sodipodi:docname="Cyberbullying.ai"
   xmlns:inkscape="http://www.inkscape.org/namespaces/inkscape"
   xmlns:sodipodi="http://sodipodi.sourceforge.net/DTD/sodipodi-0.dtd"
   xmlns="http://www.w3.org/2000/svg"
   xmlns:svg="http://www.w3.org/2000/svg">
  <defs
     id="defs6">
    <clipPath
       clipPathUnits="userSpaceOnUse"
       id="clipPath16">
      <path
         d="M 0,150 H 150 V 0 H 0 Z"
         id="path14" />
    </clipPath>
  </defs>
  <sodipodi:namedview
     id="namedview4"
     pagecolor="#ffffff"
     bordercolor="#000000"
     borderopacity="0.25"
     inkscape:showpageshadow="2"
     inkscape:pageopacity="0.0"
     inkscape:pagecheckerboard="0"
     inkscape:deskcolor="#d1d1d1" />
  <g
     id="g8"
     inkscape:groupmode="layer"
     inkscape:label="Cyberbullying"
     transform="matrix(1.3333333,0,0,-1.3333333,0,200)">
    <g
       id="g10">
      <g
         id="g12"
         clip-path="url(#clipPath16)">
        <g
           id="g18"
           transform="translate(67.2536,81.194)">
          <path
             d="m 0,0 c 0,-8.712 -7.062,-15.774 -15.774,-15.774 -8.712,0 -15.774,7.062 -15.774,15.774 0,8.712 7.062,15.774 15.774,15.774 C -7.062,15.774 0,8.712 0,0"
             style="fill:#bffeff;fill-opacity:1;fill-rule:nonzero;stroke:none"
             id="path20" />
        </g>
        <g
           id="g22"
           transform="translate(67.2536,81.194)">
          <path
             d="m 0,0 c 0,-8.712 -7.062,-15.774 -15.774,-15.774 -8.712,0 -15.774,7.062 -15.774,15.774 0,8.712 7.062,15.774 15.774,15.774 C -7.062,15.774 0,8.712 0,0 Z"
             style="fill:none;stroke:#000000;stroke-width:1.5;stroke-linecap:round;stroke-linejoin:round;stroke-miterlimit:10;stroke-dasharray:none;stroke-opacity:1"
             id="path24" />
        </g>
        <g
           id="g26"
           transform="translate(21.5381,44.0465)">
          <path
             d="m 0,0 v 2.938 c 0,8.303 6.73,15.033 15.033,15.033 H 44.85 c 8.303,0 15.033,-6.73 15.033,-15.033 V 0"
             style="fill:none;stroke:#000000;stroke-width:1.5;stroke-linecap:round;stroke-linejoin:round;stroke-miterlimit:10;stroke-dasharray:none;stroke-opacity:1"
             id="path28" />
        </g>
        <g
           id="g30"
           transform="translate(114.2911,90.1795)">
          <path
             d="m 0,0 c 0,-8.712 -7.062,-15.774 -15.774,-15.774 -8.712,0 -15.774,7.062 -15.774,15.774 0,8.712 7.062,15.774 15.774,15.774 C -7.062,15.774 0,8.712 0,0"
             style="fill:#bffeff;fill-opacity:1;fill-rule:nonzero;stroke:none"
             id="path32" />
        </g>
        <g
           id="g34"
           transform="translate(114.2911,90.1795)">
          <path
             d="m 0,0 c 0,-8.712 -7.062,-15.774 -15.774,-15.774 -8.712,0 -15.774,7.062 -15.774,15.774 0,8.712 7.062,15.774 15.774,15.774 C -7.062,15.774 0,8.712 0,0 Z"
             style="fill:none;stroke:#000000;stroke-width:1.5;stroke-linecap:round;stroke-linejoin:round;stroke-miterlimit:10;stroke-dasharray:none;stroke-opacity:1"
             id="path36" />
        </g>
        <g
           id="g38"
           transform="translate(76.352,69.1506)">
          <path
             d="m 0,0 c 2.15,1.18 4.63,1.85 7.26,1.85 h 29.81 c 8.31,0 15.04,-6.73 15.04,-15.03 v -2.94"
             style="fill:none;stroke:#000000;stroke-width:1.5;stroke-linecap:round;stroke-linejoin:round;stroke-miterlimit:10;stroke-dasharray:none;stroke-opacity:1"
             id="path40" />
        </g>
      </g>
    </g>
  </g>
</svg>
