<svg version="1.2" xmlns="http://www.w3.org/2000/svg" viewBox="0 0 1144 887" width="1144" height="887">
    <style>
        .a {
            fill: #bcebf1;
        }
        .b {
            fill: none;
            stroke: #000;
            stroke-linecap: round;
            stroke-linejoin: round;
            stroke-width: 2.6;
        }
        .c {
            fill: #fc6140;
        }
        .d {
            fill: #ffe8ad;
        }
        .e {
            fill: #fff;
        }
        .f {
            fill: #00bbd6;
        }
        .g {
            fill: #ffcf44;
        }
        .h {
            opacity: 0.6;
            fill: #ffe8ad;
        }


.s1 {
	-webkit-animation: s1 2s infinite cubic-bezier(0.250, 0.460, 0.450, 0.940) both;
	        animation: s1 2s infinite cubic-bezier(0.250, 0.460, 0.450, 0.940) both;
}



@-webkit-keyframes s1 {
  0% {
    -webkit-transform: translateZ(700px) translateY(-300px) translateX(-400px);
            transform: translateZ(700px) translateY(-300px) translateX(-400px);
    opacity: 0;
  }
  100% {
    -webkit-transform: translateZ(0) translateY(0) translateX(0);
            transform: translateZ(0) translateY(0) translateX(0);
    opacity: 1;
  }
}
@keyframes s1 {
  0% {
    -webkit-transform: translateZ(700px) translateY(-300px) translateX(-400px);
            transform: translateZ(700px) translateY(-300px) translateX(-400px);
    opacity: 0;
  }
  100% {
    -webkit-transform: translateZ(0) translateY(0) translateX(0);
            transform: translateZ(0) translateY(0) translateX(0);
    opacity: 1;
  }
}


.s3 {
	-webkit-animation: s1 2s infinite cubic-bezier(0.250, 0.460, 0.450, 0.940) both;
	        animation: s1 2s infinite cubic-bezier(0.250, 0.460, 0.450, 0.940) both;
}

@-webkit-keyframes s3 {
  0% {
    -webkit-transform: translateZ(700px) translateY(-300px) translateX(-400px);
            transform: translateZ(700px) translateY(-300px) translateX(-400px);
    opacity: 0;
  }
  100% {
    -webkit-transform: translateZ(0) translateY(0) translateX(0);
            transform: translateZ(0) translateY(0) translateX(0);
    opacity: 1;
  }
}

.s4 {
	-webkit-animation: s4 0.6s cubic-bezier(0.175, 0.885, 0.320, 1.275) both;
	        animation: s4 0.6s cubic-bezier(0.175, 0.885, 0.320, 1.275) both;
}

@-webkit-keyframes s4 {
  0% {
    -webkit-transform: rotateX(-70deg);
            transform: rotateX(-70deg);
    -webkit-transform-origin: bottom;
            transform-origin: bottom;
    opacity: 0;
  }
  100% {
    -webkit-transform: rotateX(0);
            transform: rotateX(0);
    -webkit-transform-origin: bottom;
            transform-origin: bottom;
    opacity: 1;
  }
}
@keyframes s4 {
  0% {
    -webkit-transform: rotateX(-70deg);
            transform: rotateX(-70deg);
    -webkit-transform-origin: bottom;
            transform-origin: bottom;
    opacity: 0;
  }
  100% {
    -webkit-transform: rotateX(0);
            transform: rotateX(0);
    -webkit-transform-origin: bottom;
            transform-origin: bottom;
    opacity: 1;
  }
}
.s5 {
	-webkit-animation: s5 2s infinite cubic-bezier(0.390, 0.575, 0.565, 1.000) both;
	        animation: s5 2s inifinte cubic-bezier(0.390, 0.575, 0.565, 1.000) both linear infinite;
          
}


@-webkit-keyframes s5 {
  0% {
    opacity: 0;
  }
  100% {
    opacity: 1;
  }
}
@keyframes fade {
  0% {
    opacity: 0;
  }
  100% {
    opacity: 1;
  }
}
    </style>
    <path class="a" d="m669.8 1.8h-100c0 0-8.7 117.4-21.4 147.2h101c0 0 13.5-42.9 20.4-147.2z" />
    <path class="b" d="m669.8 1.8h-100c0 0-8.7 117.4-21.4 147.2h101c0 0 13.5-42.9 20.4-147.2z" />
    <path class="c " d="m289.2 553.3h-235.9l-51.7-147.2h124.2l21.7-24.1h77.8z" />
    <path fill-rule="evenodd" class="d " d="m289.2 254.3v299l-63.9-171.3h-77.8l-21.7 24.1h-63.4v-151.8zm-29.6 21.8h-39.1v39.1h39.1z" />
    <path class="a" d="m310.2 230.6v223.4h-21v-199.7h-209.8v-23.7z" />
    <path class="b " d="m289.2 553.3h-235.9l-51.7-147.2h124.2l21.7-24.1h77.8z" />
    <path fill-rule="evenodd" class="b " d="m289.2 254.3v299l-63.9-171.3h-77.8l-21.7 24.1h-63.4v-151.8zm-29.6 21.8h-39.1v39.1h39.1z" />
    <path class="b" d="m310.2 230.6v223.4h-21v-199.7h-209.8v-23.7z" />
    <path class="b" d="m94.1 285.8h92.8" />
    <path class="b" d="m94.1 309.3h92.8" />
    <path class="b" d="m94.1 332.9h54.7" />
    <path class="e" d="m259.6 276.1v39.1h-39.1v-39.1z" />
    <path class="b" d="m259.6 276.1v39.1h-39.1v-39.1z" />
    <path class="a" d="m1004.1 618.5c0.1 9-7.8 15.9-16.6 14.6l-15.5-2.2-585.9-83.1c-7.2-1-12.5-7.2-12.5-14.4v-455.4c0-8.8 7.8-15.7 16.6-14.4l598.2 71.7c7.1 1 12.5 7.1 12.6 14.3z" />
    <path class="b" d="m1004.1 618.5c0.1 9-7.8 15.9-16.6 14.6l-15.5-2.2-585.9-83.1c-7.2-1-12.5-7.2-12.5-14.4v-455.4c0-8.8 7.8-15.7 16.6-14.4l598.2 71.7c7.1 1 12.5 7.1 12.6 14.3z" />
    <path class="e" d="m991.9 621.3l-3.3-473.6-602.8-72.3v460z" />
    <path class="b" d="m991.9 621.3l-3.3-473.6-602.8-72.3v460z" />
    <path
        class="f"
        d="m1013.5 149.7v466.3c0 8.6-5.9 15.7-13.7 17.7-2.3 0.6-4.8 0.8-7.4 0.4l-20.4-3.2 15.5 2.2c8.8 1.3 16.7-5.6 16.6-14.6l-3.1-468.9c-0.1-7.2-5.5-13.3-12.6-14.3l-598.2-71.7c-8.8-1.3-16.6 5.6-16.6 14.4v-3.3c0-11.6 10.2-20.5 21.7-18.9 104.2 14.7 501.9 57 597.5 70.1 11.9 1.6 20.7 11.8 20.7 23.8z"
    />
    <path
        class="b"
        d="m1013.5 149.7v466.3c0 8.6-5.9 15.7-13.7 17.7-2.3 0.6-4.8 0.8-7.4 0.4l-20.4-3.2 15.5 2.2c8.8 1.3 16.7-5.6 16.6-14.6l-3.1-468.9c-0.1-7.2-5.5-13.3-12.6-14.3l-598.2-71.7c-8.8-1.3-16.6 5.6-16.6 14.4v-3.3c0-11.6 10.2-20.5 21.7-18.9 104.2 14.7 501.9 57 597.5 70.1 11.9 1.6 20.7 11.8 20.7 23.8z"
    />
    <path class="b" d="m373.6 98.1v-20.1" />
    <path class="f" d="m999.1 681.6l-364.3 193.1c-4 2.1-8.7 3-13.3 2.3l-600.3-81.8c-9.8-1.4-17.3-9.2-18.2-19l-1.4-15.9 611.1 84.2c6.9 0.9 13.9-0.2 20.1-3.4l370.6-189.2 2.8 14.8c1.2 6-1.7 12.1-7.1 14.9z" />
    <path class="b" d="m999.1 681.6l-364.3 193.1c-4 2.1-8.7 3-13.3 2.3l-600.3-81.8c-9.8-1.4-17.3-9.2-18.2-19l-1.4-15.9 611.1 84.2c6.9 0.9 13.9-0.2 20.1-3.4l370.6-189.2 2.8 14.8c1.2 6-1.7 12.1-7.1 14.9z" />
    <path class="a" d="m1003.4 651.9l-370.6 189.2c-6.2 3.2-13.2 4.3-20.1 3.4l-611.1-84.2 384.5-212.5 585.9 83.1 20.4 3.2c2.6 0.4 5.1 0.2 7.4-0.4z" />
    <path class="b" d="m1003.4 651.9l-370.6 189.2c-6.2 3.2-13.2 4.3-20.1 3.4l-611.1-84.2 384.5-212.5 585.9 83.1 20.4 3.2c2.6 0.4 5.1 0.2 7.4-0.4z" />
    <path class="f" d="m427.7 802.9l79-46-162-25.1-89.2 48z" />
    <path class="b" d="m427.7 802.9l79-46-162-25.1-89.2 48z" />
    <path class="f" d="m734.7 745.5l-505.5-70.6-27.9 16.2h-0.1 0.1l505.5 70.7z" />
    <path class="f" d="m787.2 715l-505.6-70.7 28-16.2 505.6 70.6z" />
    <path class="f" d="m321.8 620.9l28-16.3 505.6 70.8-28 16.2z" />
    <path class="f" d="m241.5 667.7l27.9-16.3 505.5 70.7-27.9 16.3z" />
    <path class="b" d="m734.7 745.5l-505.5-70.6-27.9 16.2h-0.1 0.1l505.5 70.7z" />
    <path class="b" d="m787.2 715l-505.6-70.7 28-16.2 505.6 70.6z" />
    <path class="b" d="m321.8 620.9l28-16.3 505.6 70.8-28 16.2z" />
    <path class="b" d="m241.5 667.7l27.9-16.3 505.5 70.7-27.9 16.3z" />
    <path class="d" d="m801.6 522.6v-275.1l-345.9-48.5v278.7c0 7.4 5.4 13.6 12.8 14.7l316.1 44.9c9 1.3 17-5.7 17-14.7z" />
    <path class="b" d="m801.6 522.6v-275.1l-345.9-48.5v278.7c0 7.4 5.4 13.6 12.8 14.7l316.1 44.9c9 1.3 17-5.7 17-14.7z" />
    <path class="g" d="m801.6 247.5v-29c0-7.4-5.5-13.7-12.8-14.7l-316.2-43.7c-8.9-1.2-16.9 5.7-16.9 14.7v24.2z" />
    <path class="b" d="m801.6 247.5v-29c0-7.4-5.5-13.7-12.8-14.7l-316.2-43.7c-8.9-1.2-16.9 5.7-16.9 14.7v24.2z" />
    <path class="b" d="m475.7 182.1l52.5 7.2" />
    <path class="b" d="m539.4 190.9l21.3 2.9" />
    <path class="d" d="m952.9 715.9h-84.4c-3.2 0-5.7-2.5-5.7-5.7v-56.9c0-3.2 2.5-5.7 5.7-5.7h157.8c3.2 0 5.7 2.5 5.7 5.7v56.9c0 3.2-2.5 5.7-5.7 5.7h-36.6l-30.3 19c-2.8 1.8-6.5-0.2-6.5-3.6z" />
    <path class="b" d="m952.9 715.9h-84.4c-3.2 0-5.7-2.5-5.7-5.7v-56.9c0-3.2 2.5-5.7 5.7-5.7h157.8c3.2 0 5.7 2.5 5.7 5.7v56.9c0 3.2-2.5 5.7-5.7 5.7h-36.6l-30.3 19c-2.8 1.8-6.5-0.2-6.5-3.6z" />
    <path class="b" d="m883 666.8h75.6" />
    <path class="b" d="m883 689.2h96.4" />
    <path class="b" d="m979.4 666.8h27.8" />
    <path class="a" d="m1010.3 68c1.6 18.5-18 28.3-28.2 28.2q0 0-0.2 0c-1.6-0.4-14.8-3.6-15.4-23l-21.8-2.8c10.2-30.3 27.9-30.7 32.1-30.4 0.1 0 0.2 0 0.4 0.1 0.1 0 0.2 0 0.3 0q0.1 0 0.1 0c16.3 2.5 31.2 9.4 32.7 27.9z" />
    <path class="f" d="m981.9 96.2q-0.8 0-1.6-0.1c-9.5-1.4-40.5-4.3-40.5-4.3 1.2-8.5 2.9-15.5 4.9-21.4l21.8 2.8c0.6 19.4 13.8 22.6 15.4 23z" />
    <path class="f" d="m869.2 320.9c-5.3-0.6-122.8-13.5-164.3-17.8-42.5-4.4-38.5-43.6-38.5-43.6l71.4 8.2 99 11.3c1.4 23.5 15.8 37.9 32.4 41.9z" />
    <path
        class="a"
        d="m976.8 40c-4.2-0.3-21.9 0.1-32.1 30.4-2 5.9-3.7 12.9-4.9 21.4-0.2 1.4-0.4 2.8-0.6 4.2-7.1 57.1-8.1 69.5-8.1 69.5l-13.3 119.8c0 0-4.3 32.8-34.1 36.4-4.8 0.6-9.7 0.3-14.3-0.8q-0.1 0-0.2 0c-16.6-4-31-18.4-32.4-41.9l-99-11.3c0 0 14.6-137.9 21.5-197.6 6.4-54.9 48.8-49.8 48.8-49.8 0 0 148.5 17.4 166.1 19.4q1.3 0.1 2.6 0.3z"
    />
    <path class="b" d="m1010.3 68c1.6 18.5-18 28.3-28.2 28.2q0 0-0.2 0c-1.6-0.4-14.8-3.6-15.4-23l-21.8-2.8c10.2-30.3 27.9-30.7 32.1-30.4 0.1 0 0.2 0 0.4 0.1 0.1 0 0.2 0 0.3 0q0.1 0 0.1 0c16.3 2.5 31.2 9.4 32.7 27.9z" />
    <path
        class="b"
        d="m976.8 40c-4.2-0.3-21.9 0.1-32.1 30.4-2 5.9-3.7 12.9-4.9 21.4-0.2 1.4-0.4 2.8-0.6 4.2-7.1 57.1-8.1 69.5-8.1 69.5l-13.3 119.8c0 0-4.3 32.8-34.1 36.4-4.8 0.6-9.7 0.3-14.3-0.8q-0.1 0-0.2 0c-16.6-4-31-18.4-32.4-41.9l-99-11.3c0 0 14.6-137.9 21.5-197.6 6.4-54.9 48.8-49.8 48.8-49.8 0 0 148.5 17.4 166.1 19.4q1.3 0.1 2.6 0.3z"
    />
    <path class="b" d="m944.7 70.4" />
    <path class="b" d="m981.9 96.2q-0.8 0-1.6-0.1c-9.5-1.4-40.5-4.3-40.5-4.3 1.2-8.5 2.9-15.5 4.9-21.4l21.8 2.8c0.6 19.4 13.8 22.6 15.4 23z" />
    <path class="b" d="m869.2 320.9c-5.3-0.6-122.8-13.5-164.3-17.8-42.5-4.4-38.5-43.6-38.5-43.6l71.4 8.2 99 11.3c1.4 23.5 15.8 37.9 32.4 41.9z" />
    <path class="b" d="m977.2 40.1c0.1 0 0.2 0 0.3 0q0.1 0 0.1 0" />
    <path class="b s5" d="m772.6 157.6l118.8 14.2" />
    <path class="b s5" d="m770.9 172.3l118.9 14.2" />
    <path class="b s5" d="m784.8 80.1l118.8 14.2" />
    <path class="b s5" d="m783.1 94.8l118.9 14.1" />
    <path class="b s5" d="m769.3 187l118.8 14.1" />
    <path class="b s5" d="m767.6 201.7l118.9 14.1" />
    <path class="b s5" d="m766 216.3l118.8 14.2" />
    <path class="h s1" d="m1018.2 355.2c0 66.5-53.9 120.4-120.4 120.4-66.5 0-120.3-53.9-120.3-120.4 0-66.5 53.8-120.3 120.3-120.3 66.5 0 120.4 53.8 120.4 120.3z" />
    <path
        fill-rule="evenodd"
        class="c s1"
        d="m1043.2 355.2c0 80.3-65.1 145.5-145.4 145.5-80.3 0-145.4-65.2-145.4-145.5 0-80.3 65.1-145.4 145.4-145.4 80.3 0 145.4 65.1 145.4 145.4zm-25 0c0-66.5-53.9-120.3-120.4-120.3-66.5 0-120.3 53.8-120.3 120.3 0 66.5 53.8 120.4 120.3 120.4 66.5 0 120.4-53.9 120.4-120.4z"
    />
    <path
        fill-rule="evenodd"
        class="b s1"
        d="m1043.2 355.2c0 80.3-65.1 145.5-145.4 145.5-80.3 0-145.4-65.2-145.4-145.5 0-80.3 65.1-145.4 145.4-145.4 80.3 0 145.4 65.1 145.4 145.4zm-25 0c0-66.5-53.9-120.3-120.4-120.3-66.5 0-120.3 53.8-120.3 120.3 0 66.5 53.8 120.4 120.3 120.4 66.5 0 120.4-53.9 120.4-120.4z"
    />
    <path class="b s1" d="m1018.2 355.2c0 66.5-53.9 120.4-120.4 120.4-66.5 0-120.3-53.9-120.3-120.4 0-66.5 53.8-120.3 120.3-120.3 66.5 0 120.4 53.8 120.4 120.3z" />
  
    <path class="c s3" d="m1030 466.5l-20.8 21.3-19.8-19.3c-2.7-2.6-2.7-6.9-0.1-9.6l11.3-11.6c2.6-2.7 6.9-2.7 9.6-0.1z" />
    <path class="b s3" d="m1030 466.5l-20.8 21.3-19.8-19.3c-2.7-2.6-2.7-6.9-0.1-9.6l11.3-11.6c2.6-2.7 6.9-2.7 9.6-0.1z" />
    <path class="g s3" d="m1138.6 572.5l-20.8 21.3c-5.1 5.3-13.6 5.4-18.9 0.2l-7.3-7.1 39.5-40.5 7.3 7.1c5.3 5.2 5.4 13.7 0.2 19z" />
    <path class="b s3" d="m1138.6 572.5l-20.8 21.3c-5.1 5.3-13.6 5.4-18.9 0.2l-7.3-7.1 39.5-40.5 7.3 7.1c5.3 5.2 5.4 13.7 0.2 19z" />
    <path class="c s3" d="m1131.1 546.4l-39.5 40.5-82.2-80.2c-5.3-5.1-5.4-13.6-0.2-18.9l20.8-21.3c2.6-2.7 6.1-4 9.6-4 3.3 0 6.7 1.2 9.3 3.8z" />
    <path class="b s3" d="m1131.1 546.4l-39.5 40.5-82.2-80.2c-5.3-5.1-5.4-13.6-0.2-18.9l20.8-21.3c2.6-2.7 6.1-4 9.6-4 3.3 0 6.7 1.2 9.3 3.8z" />
    <path class="a" d="m862.3 738.4h-100c0 0-8.7 117.4-21.4 147.2h101c0 0 13.5-42.9 20.4-147.2z" />
    <path class="b" d="m862.3 738.4h-100c0 0-8.7 117.4-21.4 147.2h101c0 0 13.5-42.9 20.4-147.2z" />
    <path class="b s5" d="m514.5 305.4l220.7 30.9" />
    <path class="b s5" d="m514.5 339.8l220.7 30.9" />
    <path class="b s5" d="m514.5 374.1l220.7 30.9" />
    <path class="b s5" d="m514.5 408.4l220.7 30.9" />
    <path class="b s5" d="m514.5 442.8l220.7 30.9" />
</svg>
