<?xml version="1.0" encoding="UTF-8" standalone="no"?>
<!-- Created with Inkscape (http://www.inkscape.org/) -->

<svg
   version="1.1"
   id="svg2"
   width="200"
   height="200"
   viewBox="0 0 200 200"
   sodipodi:docname="Data sourcing.ai"
   xmlns:inkscape="http://www.inkscape.org/namespaces/inkscape"
   xmlns:sodipodi="http://sodipodi.sourceforge.net/DTD/sodipodi-0.dtd"
   xmlns="http://www.w3.org/2000/svg"
   xmlns:svg="http://www.w3.org/2000/svg">
  <defs
     id="defs6">
    <clipPath
       clipPathUnits="userSpaceOnUse"
       id="clipPath16">
      <path
         d="M 0,150 H 150 V 0 H 0 Z"
         id="path14" />
    </clipPath>
  </defs>
  <sodipodi:namedview
     id="namedview4"
     pagecolor="#ffffff"
     bordercolor="#000000"
     borderopacity="0.25"
     inkscape:showpageshadow="2"
     inkscape:pageopacity="0.0"
     inkscape:pagecheckerboard="0"
     inkscape:deskcolor="#d1d1d1" />
  <g
     id="g8"
     inkscape:groupmode="layer"
     inkscape:label="Data sourcing"
     transform="matrix(1.3333333,0,0,-1.3333333,0,200)">
    <g
       id="g10">
      <g
         id="g12"
         clip-path="url(#clipPath16)">
        <g
           id="g18"
           transform="translate(92.5164,59.9557)">
          <path
             d="m 0,0 33.642,-16.239 c 2.461,-1.188 3.493,-4.147 2.305,-6.608 v 0 c -1.188,-2.462 -4.147,-3.494 -6.608,-2.306 L -4.303,-8.914"
             style="fill:#c0feff;fill-opacity:1;fill-rule:nonzero;stroke:none"
             id="path20" />
        </g>
        <g
           id="g22"
           transform="translate(73.5968,104.2609)">
          <path
             d="m 0,0 c 18.216,-8.793 25.854,-30.688 17.062,-48.903 -8.793,-18.216 -30.688,-25.855 -48.904,-17.062 -18.216,8.793 -25.854,30.688 -17.061,48.903 C -40.111,1.154 -18.216,8.793 0,0"
             style="fill:#ffffff;fill-opacity:1;fill-rule:nonzero;stroke:none"
             id="path24" />
        </g>
        <g
           id="g26"
           transform="translate(73.5968,104.2609)">
          <path
             d="m 0,0 c 18.216,-8.793 25.854,-30.688 17.062,-48.903 -8.793,-18.216 -30.688,-25.855 -48.904,-17.062 -18.216,8.793 -25.854,30.688 -17.061,48.903 C -40.111,1.154 -18.216,8.793 0,0 Z"
             style="fill:none;stroke:#000000;stroke-width:1.5;stroke-linecap:round;stroke-linejoin:round;stroke-miterlimit:10;stroke-dasharray:none;stroke-opacity:1"
             id="path28" />
        </g>
        <g
           id="g30"
           transform="translate(92.5164,59.9557)">
          <path
             d="m 0,0 33.642,-16.239 c 2.461,-1.188 3.493,-4.147 2.305,-6.608 v 0 c -1.188,-2.462 -4.147,-3.494 -6.608,-2.306 L -4.303,-8.914"
             style="fill:none;stroke:#000000;stroke-width:1.5;stroke-linecap:round;stroke-linejoin:round;stroke-miterlimit:10;stroke-dasharray:none;stroke-opacity:1"
             id="path32" />
        </g>
        <g
           id="g34"
           transform="translate(29.3505,39.7565)">
          <path
             d="m 0,0 5.808,29.242 22.601,-14.64 3.068,32.001 24.851,-13.483 8.63,42.814"
             style="fill:none;stroke:#000000;stroke-width:1.5;stroke-linecap:round;stroke-linejoin:round;stroke-miterlimit:10;stroke-dasharray:none;stroke-opacity:1"
             id="path36" />
        </g>
      </g>
    </g>
  </g>
</svg>
