<?xml version="1.0" encoding="UTF-8" standalone="no"?>
<!-- Created with Inkscape (http://www.inkscape.org/) -->

<svg
   version="1.1"
   id="svg2"
   width="200"
   height="200"
   viewBox="0 0 200 200"
   sodipodi:docname="Document sourcing.ai"
   xmlns:inkscape="http://www.inkscape.org/namespaces/inkscape"
   xmlns:sodipodi="http://sodipodi.sourceforge.net/DTD/sodipodi-0.dtd"
   xmlns="http://www.w3.org/2000/svg"
   xmlns:svg="http://www.w3.org/2000/svg">
  <defs
     id="defs6">
    <clipPath
       clipPathUnits="userSpaceOnUse"
       id="clipPath16">
      <path
         d="M 0,150 H 150 V 0 H 0 Z"
         id="path14" />
    </clipPath>
  </defs>
  <sodipodi:namedview
     id="namedview4"
     pagecolor="#ffffff"
     bordercolor="#000000"
     borderopacity="0.25"
     inkscape:showpageshadow="2"
     inkscape:pageopacity="0.0"
     inkscape:pagecheckerboard="0"
     inkscape:deskcolor="#d1d1d1" />
  <g
     id="g8"
     inkscape:groupmode="layer"
     inkscape:label="Document sourcing"
     transform="matrix(1.3333333,0,0,-1.3333333,0,200)">
    <g
       id="g10">
      <g
         id="g12"
         clip-path="url(#clipPath16)">
        <g
           id="g18"
           transform="translate(117.402,90.0686)">
          <path
             d="M 0,0 C 0.19,0.569 0,25.222 0,25.222 H -90.458 V -36.98 h 42.479"
             style="fill:none;stroke:#000000;stroke-width:1.5;stroke-linecap:round;stroke-linejoin:round;stroke-miterlimit:10;stroke-dasharray:none;stroke-opacity:1"
             id="path20" />
        </g>
        <g
           id="g22"
           transform="translate(33.9628,106.1464)">
          <path
             d="M 0,0 H 12.173"
             style="fill:none;stroke:#000000;stroke-width:1.5;stroke-linecap:round;stroke-linejoin:round;stroke-miterlimit:10;stroke-dasharray:none;stroke-opacity:1"
             id="path24" />
        </g>
        <g
           id="g26"
           transform="translate(56.1055,106.1464)">
          <path
             d="M 0,0 H 12.173"
             style="fill:none;stroke:#000000;stroke-width:1.5;stroke-linecap:round;stroke-linejoin:round;stroke-miterlimit:10;stroke-dasharray:none;stroke-opacity:1"
             id="path28" />
        </g>
        <g
           id="g30"
           transform="translate(117.1835,47.5582)">
          <path
             d="m 0,0 c -6.763,-6.763 -17.158,-7.687 -24.907,-2.77 -1.222,0.773 -2.383,1.697 -3.456,2.77 -1.073,1.073 -1.997,2.234 -2.77,3.469 -4.917,7.749 -3.993,18.131 2.77,24.894 7.83,7.83 20.527,7.836 28.363,0 C 7.83,20.533 7.83,7.83 0,0"
             style="fill:#bffeff;fill-opacity:1;fill-rule:nonzero;stroke:none"
             id="path32" />
        </g>
        <g
           id="g34"
           transform="translate(117.1835,47.5582)">
          <path
             d="m 0,0 c -6.763,-6.763 -17.158,-7.687 -24.907,-2.77 -1.222,0.773 -2.383,1.697 -3.456,2.77 -1.073,1.073 -1.997,2.234 -2.77,3.469 -4.917,7.749 -3.993,18.131 2.77,24.894 7.83,7.83 20.527,7.836 28.363,0 C 7.83,20.533 7.83,7.83 0,0 Z"
             style="fill:none;stroke:#000000;stroke-width:1.5;stroke-linecap:round;stroke-linejoin:round;stroke-miterlimit:10;stroke-dasharray:none;stroke-opacity:1"
             id="path36" />
        </g>
        <g
           id="g38"
           transform="translate(92.2769,44.7879)">
          <path
             d="m 0,0 -8.788,-8.788 c -1.721,-1.721 -4.511,-1.721 -6.233,0 v 0 c -1.721,1.721 -1.721,4.512 0,6.233 l 8.794,8.794 C -5.453,5.004 -4.529,3.843 -3.456,2.77 -2.383,1.697 -1.223,0.774 0,0"
             style="fill:#ffffff;fill-opacity:1;fill-rule:nonzero;stroke:none"
             id="path40" />
        </g>
        <g
           id="g42"
           transform="translate(92.2769,44.7879)">
          <path
             d="m 0,0 -8.788,-8.788 c -1.721,-1.721 -4.511,-1.721 -6.233,0 v 0 c -1.721,1.721 -1.721,4.512 0,6.233 l 8.794,8.794 C -5.453,5.004 -4.529,3.843 -3.456,2.77 -2.383,1.697 -1.223,0.774 0,0 Z"
             style="fill:none;stroke:#000000;stroke-width:1.5;stroke-linecap:round;stroke-linejoin:round;stroke-miterlimit:10;stroke-dasharray:none;stroke-opacity:1"
             id="path44" />
        </g>
        <g
           id="g46"
           transform="translate(111.0456,101.9356)">
          <path
             d="m 0,0 -14.638,-13.941 -6.37,8.18 -14.638,-13.941 -6.369,8.18 -14.638,-13.941 -6.37,8.18 -14.638,-13.941"
             style="fill:none;stroke:#000000;stroke-width:1.5;stroke-linecap:round;stroke-linejoin:round;stroke-miterlimit:10;stroke-dasharray:none;stroke-opacity:1"
             id="path48" />
        </g>
      </g>
    </g>
  </g>
</svg>
