<?xml version="1.0" encoding="UTF-8" standalone="no"?>
<!-- Created with Inkscape (http://www.inkscape.org/) -->

<svg
   version="1.1"
   id="svg2"
   width="200"
   height="200"
   viewBox="0 0 200 200"
   sodipodi:docname="Drone Imagery.ai"
   xmlns:inkscape="http://www.inkscape.org/namespaces/inkscape"
   xmlns:sodipodi="http://sodipodi.sourceforge.net/DTD/sodipodi-0.dtd"
   xmlns="http://www.w3.org/2000/svg"
   xmlns:svg="http://www.w3.org/2000/svg">
  <defs
     id="defs6">
    <clipPath
       clipPathUnits="userSpaceOnUse"
       id="clipPath16">
      <path
         d="M 0,150 H 150 V 0 H 0 Z"
         id="path14" />
    </clipPath>
  </defs>
  <sodipodi:namedview
     id="namedview4"
     pagecolor="#ffffff"
     bordercolor="#000000"
     borderopacity="0.25"
     inkscape:showpageshadow="2"
     inkscape:pageopacity="0.0"
     inkscape:pagecheckerboard="0"
     inkscape:deskcolor="#d1d1d1" />
  <g
     id="g8"
     inkscape:groupmode="layer"
     inkscape:label="Drone Imagery"
     transform="matrix(1.3333333,0,0,-1.3333333,0,200)">
    <g
       id="g10">
      <g
         id="g12"
         clip-path="url(#clipPath16)">
        <g
           id="g18"
           transform="translate(75.0018,66.7765)">
          <path
             d="m 0,0 c -3.52,0 -6.38,2.86 -6.38,6.38 0,3.52 2.86,6.37 6.38,6.37 3.52,0 6.37,-2.85 6.37,-6.37 C 6.37,2.86 3.52,0 0,0 M 17.49,16.98 C 8.08,19.81 6.09,20.69 0,20.69 c -6.09,0 -8.08,-0.88 -17.5,-3.71 -9.41,-2.82 -16.18,-2.32 -16.18,-2.32 V 7.43 c 0,0 2.28,3.31 7.04,2.98 4.75,-0.33 10.92,-2.98 13.07,-8.03 0.48,-1.12 1.12,-2.19 1.9,-3.19 5.85,-7.46 17.48,-7.46 23.33,0 0.78,1 1.43,2.07 1.91,3.19 2.15,5.05 8.31,7.7 13.07,8.03 4.76,0.33 7.04,-2.98 7.04,-2.98 v 7.19 c 0,0 -6.78,-0.46 -16.19,2.36"
             style="fill:#ffffff;fill-opacity:1;fill-rule:nonzero;stroke:none"
             id="path20" />
        </g>
        <g
           id="g22"
           transform="translate(75.0018,66.7765)">
          <path
             d="m 0,0 c -3.52,0 -6.38,2.86 -6.38,6.38 0,3.52 2.86,6.37 6.38,6.37 3.52,0 6.37,-2.85 6.37,-6.37 C 6.37,2.86 3.52,0 0,0 Z M 17.49,16.98 C 8.08,19.81 6.09,20.69 0,20.69 c -6.09,0 -8.08,-0.88 -17.5,-3.71 -9.41,-2.82 -16.18,-2.32 -16.18,-2.32 V 7.43 c 0,0 2.28,3.31 7.04,2.98 4.75,-0.33 10.92,-2.98 13.07,-8.03 0.48,-1.12 1.12,-2.19 1.9,-3.19 5.85,-7.46 17.48,-7.46 23.33,0 0.78,1 1.43,2.07 1.91,3.19 2.15,5.05 8.31,7.7 13.07,8.03 4.76,0.33 7.04,-2.98 7.04,-2.98 v 7.19 c 0,0 -6.78,-0.46 -16.19,2.36 z"
             style="fill:none;stroke:#000000;stroke-width:1.5;stroke-linecap:round;stroke-linejoin:round;stroke-miterlimit:10;stroke-dasharray:none;stroke-opacity:1"
             id="path24" />
        </g>
        <g
           id="g26"
           transform="translate(116.1017,85.3967)">
          <path
             d="M 0,0 V -11.19 H -7.42 V 0 c 0,1.32 1.04,2.4 2.34,2.46 h 2.73 C -1.04,2.4 0,1.32 0,0"
             style="fill:#ffffff;fill-opacity:1;fill-rule:nonzero;stroke:none"
             id="path28" />
        </g>
        <g
           id="g30"
           transform="translate(41.3217,85.3967)">
          <path
             d="M 0,0 V -11.19 H -7.42 V 0 c 0,1.32 1.04,2.4 2.34,2.46 h 2.74 C -1.03,2.39 0,1.32 0,0"
             style="fill:#ffffff;fill-opacity:1;fill-rule:nonzero;stroke:none"
             id="path32" />
        </g>
        <g
           id="g34"
           transform="translate(116.1017,85.3967)">
          <path
             d="M 0,0 V -11.19 H -7.42 V 0 c 0,1.32 1.04,2.4 2.34,2.46 h 2.73 C -1.04,2.4 0,1.32 0,0 Z"
             style="fill:none;stroke:#000000;stroke-width:1.5;stroke-linecap:round;stroke-linejoin:round;stroke-miterlimit:10;stroke-dasharray:none;stroke-opacity:1"
             id="path36" />
        </g>
        <g
           id="g38"
           transform="translate(41.3217,85.3967)">
          <path
             d="M 0,0 V -11.19 H -7.42 V 0 c 0,1.32 1.04,2.4 2.34,2.46 h 2.74 C -1.03,2.39 0,1.32 0,0 Z"
             style="fill:none;stroke:#000000;stroke-width:1.5;stroke-linecap:round;stroke-linejoin:round;stroke-miterlimit:10;stroke-dasharray:none;stroke-opacity:1"
             id="path40" />
        </g>
        <path
           d="m 111.022,91.698 h 2.732 v -3.844 h -2.732 z"
           style="fill:#ffffff;fill-opacity:1;fill-rule:nonzero;stroke:#000000;stroke-width:1.5;stroke-linecap:round;stroke-linejoin:round;stroke-miterlimit:10;stroke-dasharray:none;stroke-opacity:1"
           id="path42" />
        <g
           id="g44"
           transform="translate(112.3886,91.6976)">
          <path
             d="M 0,0 V 3.122"
             style="fill:none;stroke:#000000;stroke-width:1.5;stroke-linecap:round;stroke-linejoin:round;stroke-miterlimit:10;stroke-dasharray:none;stroke-opacity:1"
             id="path46" />
        </g>
        <g
           id="g48"
           transform="translate(81.3717,73.1564)">
          <path
             d="m 0,0 c 0,-3.52 -2.85,-6.38 -6.37,-6.38 -3.52,0 -6.38,2.86 -6.38,6.38 0,3.52 2.86,6.37 6.38,6.37 C -2.85,6.37 0,3.52 0,0"
             style="fill:#bffeff;fill-opacity:1;fill-rule:nonzero;stroke:none"
             id="path50" />
        </g>
        <path
           d="m 36.245,91.698 h 2.732 v -3.844 h -2.732 z"
           style="fill:#ffffff;fill-opacity:1;fill-rule:nonzero;stroke:#000000;stroke-width:1.5;stroke-linecap:round;stroke-linejoin:round;stroke-miterlimit:10;stroke-dasharray:none;stroke-opacity:1"
           id="path52" />
        <g
           id="g54"
           transform="translate(37.6115,91.6976)">
          <path
             d="M 0,0 V 3.122"
             style="fill:none;stroke:#000000;stroke-width:1.5;stroke-linecap:round;stroke-linejoin:round;stroke-miterlimit:10;stroke-dasharray:none;stroke-opacity:1"
             id="path56" />
        </g>
        <g
           id="g58"
           transform="translate(116.8083,95.1067)">
          <path
             d="m 0,0 11.177,-3.141 c 2.081,-0.585 4.145,0.979 4.145,3.141 v 0 c 0,2.162 -2.064,3.726 -4.145,3.141 z"
             style="fill:#ffffff;fill-opacity:1;fill-rule:nonzero;stroke:none"
             id="path60" />
        </g>
        <g
           id="g62"
           transform="translate(107.9688,95.1067)">
          <path
             d="m 0,0 -11.177,-3.141 c -2.081,-0.585 -4.145,0.979 -4.145,3.141 v 0 c 0,2.162 2.064,3.726 4.145,3.141 z"
             style="fill:#ffffff;fill-opacity:1;fill-rule:nonzero;stroke:none"
             id="path64" />
        </g>
        <g
           id="g66"
           transform="translate(42.0312,95.1067)">
          <path
             d="m 0,0 11.177,-3.141 c 2.081,-0.585 4.145,0.979 4.145,3.141 v 0 c 0,2.162 -2.064,3.726 -4.145,3.141 z"
             style="fill:#ffffff;fill-opacity:1;fill-rule:nonzero;stroke:none"
             id="path68" />
        </g>
        <g
           id="g70"
           transform="translate(33.1917,95.1067)">
          <path
             d="m 0,0 -11.177,-3.141 c -2.081,-0.585 -4.145,0.979 -4.145,3.141 v 0 c 0,2.162 2.064,3.726 4.145,3.141 z"
             style="fill:#ffffff;fill-opacity:1;fill-rule:nonzero;stroke:none"
             id="path72" />
        </g>
        <g
           id="g74"
           transform="translate(81.3717,73.1564)">
          <path
             d="m 0,0 c 0,-3.52 -2.85,-6.38 -6.37,-6.38 -3.52,0 -6.38,2.86 -6.38,6.38 0,3.52 2.86,6.37 6.38,6.37 C -2.85,6.37 0,3.52 0,0 Z"
             style="fill:none;stroke:#000000;stroke-width:1.5;stroke-linecap:round;stroke-linejoin:round;stroke-miterlimit:10;stroke-dasharray:none;stroke-opacity:1"
             id="path76" />
        </g>
        <g
           id="g78"
           transform="translate(116.8083,95.1067)">
          <path
             d="m 0,0 11.177,-3.141 c 2.081,-0.585 4.145,0.979 4.145,3.141 v 0 c 0,2.162 -2.064,3.726 -4.145,3.141 z"
             style="fill:none;stroke:#000000;stroke-width:1.5;stroke-linecap:round;stroke-linejoin:round;stroke-miterlimit:10;stroke-dasharray:none;stroke-opacity:1"
             id="path80" />
        </g>
        <g
           id="g82"
           transform="translate(107.9688,95.1067)">
          <path
             d="m 0,0 -11.177,-3.141 c -2.081,-0.585 -4.145,0.979 -4.145,3.141 v 0 c 0,2.162 2.064,3.726 4.145,3.141 z"
             style="fill:none;stroke:#000000;stroke-width:1.5;stroke-linecap:round;stroke-linejoin:round;stroke-miterlimit:10;stroke-dasharray:none;stroke-opacity:1"
             id="path84" />
        </g>
        <g
           id="g86"
           transform="translate(42.0312,95.1067)">
          <path
             d="m 0,0 11.177,-3.141 c 2.081,-0.585 4.145,0.979 4.145,3.141 v 0 c 0,2.162 -2.064,3.726 -4.145,3.141 z"
             style="fill:none;stroke:#000000;stroke-width:1.5;stroke-linecap:round;stroke-linejoin:round;stroke-miterlimit:10;stroke-dasharray:none;stroke-opacity:1"
             id="path88" />
        </g>
        <g
           id="g90"
           transform="translate(33.1917,95.1067)">
          <path
             d="m 0,0 -11.177,-3.141 c -2.081,-0.585 -4.145,0.979 -4.145,3.141 v 0 c 0,2.162 2.064,3.726 4.145,3.141 z"
             style="fill:none;stroke:#000000;stroke-width:1.5;stroke-linecap:round;stroke-linejoin:round;stroke-miterlimit:10;stroke-dasharray:none;stroke-opacity:1"
             id="path92" />
        </g>
        <g
           id="g94"
           transform="translate(90.4358,63.584)">
          <path
             d="M 0,0 5.404,-4.043"
             style="fill:none;stroke:#000000;stroke-width:1.5;stroke-linecap:round;stroke-linejoin:round;stroke-miterlimit:10;stroke-dasharray:none;stroke-opacity:1"
             id="path96" />
        </g>
        <g
           id="g98"
           transform="translate(105.1345,55.0098)">
          <path
             d="m 0,0 c 0,-1.867 -1.514,-3.381 -3.381,-3.381 -1.867,0 -3.381,1.514 -3.381,3.381 0,1.867 1.514,3.381 3.381,3.381 C -1.514,3.381 0,1.867 0,0"
             style="fill:#bffeff;fill-opacity:1;fill-rule:nonzero;stroke:none"
             id="path100" />
        </g>
        <g
           id="g102"
           transform="translate(51.6274,55.0098)">
          <path
             d="m 0,0 c 0,-1.867 -1.514,-3.381 -3.381,-3.381 -1.867,0 -3.381,1.514 -3.381,3.381 0,1.867 1.514,3.381 3.381,3.381 C -1.514,3.381 0,1.867 0,0"
             style="fill:#bffeff;fill-opacity:1;fill-rule:nonzero;stroke:none"
             id="path104" />
        </g>
        <g
           id="g106"
           transform="translate(59.5642,63.584)">
          <path
             d="M 0,0 -5.404,-4.043"
             style="fill:none;stroke:#000000;stroke-width:1.5;stroke-linecap:round;stroke-linejoin:round;stroke-miterlimit:10;stroke-dasharray:none;stroke-opacity:1"
             id="path108" />
        </g>
        <g
           id="g110"
           transform="translate(105.1345,55.0098)">
          <path
             d="m 0,0 c 0,-1.867 -1.514,-3.381 -3.381,-3.381 -1.867,0 -3.381,1.514 -3.381,3.381 0,1.867 1.514,3.381 3.381,3.381 C -1.514,3.381 0,1.867 0,0 Z"
             style="fill:none;stroke:#000000;stroke-width:1.5;stroke-linecap:round;stroke-linejoin:round;stroke-miterlimit:10;stroke-dasharray:none;stroke-opacity:1"
             id="path112" />
        </g>
        <g
           id="g114"
           transform="translate(51.6274,55.0098)">
          <path
             d="m 0,0 c 0,-1.867 -1.514,-3.381 -3.381,-3.381 -1.867,0 -3.381,1.514 -3.381,3.381 0,1.867 1.514,3.381 3.381,3.381 C -1.514,3.381 0,1.867 0,0 Z"
             style="fill:none;stroke:#000000;stroke-width:1.5;stroke-linecap:round;stroke-linejoin:round;stroke-miterlimit:10;stroke-dasharray:none;stroke-opacity:1"
             id="path116" />
        </g>
      </g>
    </g>
  </g>
</svg>
