<svg version="1.2" xmlns="http://www.w3.org/2000/svg" viewBox="0 0 1400 1400" width="1400" height="1400">
	<title>Generative Ai-01-ai</title>
	<style>
		.s0 { fill: #fff8e1 } 
		.s1 { fill: #ffd740 } 
		.s2 { fill: #fc6140 } 
		.s3 { fill: #ffcf44 } 
		.s4 { fill: none;stroke: #000000;stroke-linecap: round;stroke-linejoin: round;stroke-width: 2.6 } 
		.s5 { fill: #bcebf1 } 
		.s6 { fill: #ffffff } 
		.s7 { fill: #000000 } 

				.c1 {
	-webkit-animation: c1 3s infinite cubic-bezier(0.100, 0.260, 0.250, 0.440) both;
	        animation: c1 3s infinite cubic-bezier(0.100, 0.260, 0.250, 0.440) both;
	
}

@-webkit-keyframes c1 {
  0% {
    -webkit-transform: translateX(0);
            transform: translateX(0);
  }
  100% {
    -webkit-transform: translateX(150px);
            transform: translateX(150px);
  }
}
@keyframes c1 {
  0% {
    -webkit-transform: translateX(-30px);
            transform: translateX(-30px);
  }
  100% {
    -webkit-transform: translateX(20px);
            transform: translateX(20px);
  }
}

.c2 {
	-webkit-animation: c2 3s infinite cubic-bezier(0.250, 0.460, 0.450, 0.940) both;
	        animation: c2 3s infinite cubic-bezier(0.250, 0.460, 0.450, 0.940) both;
}

@-webkit-keyframes c2 {
  0% {
    -webkit-transform: rotateY(20deg) rotateX(35deg) translate(200px, -300px) skew(-20deg, 5deg);
            transform: rotateY(20deg) rotateX(35deg) translate(200px, -300px) skew(-20deg, 5deg);
    opacity: 0;
  }
  100% {
    -webkit-transform: rotateY(0) rotateX(0deg) translate(0, 0) skew(0deg, 0deg);
            transform: rotateY(0) rotateX(0deg) translate(0, 0) skew(0deg, 0deg);
    opacity: 1;
  }
}
@keyframes c2 {
  0% {
    -webkit-transform: rotateY(20deg) rotateX(35deg) translate(100px, -150px) skew(-25deg, 10deg);
            transform: rotateY(20deg) rotateX(35deg) translate(100px, -150px) skew(-25deg, 10deg);
    opacity: 0;
  }
  100% {
    -webkit-transform: rotateY(0) rotateX(0deg) translate(0, 0) skew(0deg, 0deg);
            transform: rotateY(0) rotateX(0deg) translate(0, 0) skew(0deg, 0deg);
    opacity: 1;
  }
}

		.c3 {
	-webkit-animation: c3 1.2s cubic-bezier(0.390, 0.575, 0.565, 1.000) both;
	        animation: c3 2s infinite cubic-bezier(0.390, 0.575, 0.565, 1.000) both;
}
@-webkit-keyframes c3 {
  0% {
    opacity: 0;
  }
  100% {
    opacity: 1;
  }
}
@keyframes c3 {
  0% {
    opacity: 0;
  }
  100% {
    opacity: 1;
  }
}

	</style>
	<g id="Layer 1">
		<g id="&lt;Group&gt;">
			<path id="&lt;Path&gt;" class="s0 c2" d="m898.3 649.7l-9.3 8.5h-17.9l1.5 16.4-18.8-0.5 1.4 14.9-16 2.8-9.5 28.8 27.4-7.1 52.3-54c4.7 2.6 10.1 4.1 15.9 4.1 18.2 0 33-14.8 33-33 0-18.3-14.8-33.1-33-33.1-18.3 0-33.1 14.8-33.1 33.1 0 7.1 2.3 13.7 6.1 19.1z"/>
			<g id="&lt;Group&gt;">
				<path id="&lt;Path&gt;" class="s1 c3" d="m446.4 631.8h-51.1c-2.3 0-4.1-1.8-4.1-4.1v-51.1c0-2.3 1.8-4.1 4.1-4.1h51.1c2.3 0 4.2 1.8 4.2 4.1v51.1c0 2.3-1.9 4.1-4.2 4.1z"/>
			</g>
			<path id="&lt;Path&gt;" class="s2 c3" d="m446.4 711.2h-51.1c-2.3 0-4.1-1.8-4.1-4.1v-51.1c0-2.3 1.8-4.2 4.1-4.2h51.1c2.3 0 4.2 1.9 4.2 4.2v51.1c0 2.3-1.9 4.1-4.2 4.1z"/>
			<path id="&lt;Path&gt;" class="s3" d="m1231 668.5c-3.5 137.7-118.2 246.6-255.9 246.6-35 0-69.3-7.2-100.8-20.7-31.5-13.6-60.3-33.5-84.3-58.9l-116.2-122.5-116.1 122.5c-47.5 50.2-113.3 78.9-182.4 79.6v-68c50.2-0.8 98.5-21.9 133.1-58.4l120.2-126.8-120.2-126.9c-35.2-37.1-84.7-58.4-135.8-58.4h-2.8c-50.3 0-97.5 19.9-132.6 56-35.2 36.1-53.9 83.7-52.6 134.2 1.3 48.4 21.4 93.7 56.8 127.6 26.3 25.2 58.7 42 93.8 49v69c-54.2-7.9-103.1-32.7-140.9-68.9-46.3-44.5-75.9-106.1-77.6-175-3.7-142.9 111-259.9 253.1-259.9h2.8c70 0 136.9 28.8 185.1 79.6l116.1 122.5 116.2-122.5c45.7-48.2 108.3-76.6 174.4-79.4v68.1c-47.3 2.8-92.4 23.6-125.1 58.1l-120.2 126.9 120.2 126.8c35.2 37.1 84.7 58.4 135.8 58.4 49.2 0 95.8-18.7 131.2-52.7 35.3-33.9 55.5-79.2 56.7-127.6 1.3-50.5-17.3-98.1-52.5-134.2-28.9-29.7-65.8-48.4-105.9-54.1v-68.5c129.4 13.6 229.9 124.7 226.4 258.5z"/>
			<path id="&lt;Path&gt;" class="s4" d="m1231 668.5c-3.5 137.7-118.2 246.6-255.9 246.6-35 0-69.3-7.2-100.8-20.7-31.5-13.6-60.3-33.5-84.3-58.9l-116.2-122.5-116.1 122.5c-47.5 50.2-113.3 78.9-182.4 79.6v-68c50.2-0.8 98.5-21.9 133.1-58.4l120.2-126.8-120.2-126.9c-35.2-37.1-84.7-58.4-135.8-58.4h-2.8c-50.3 0-97.5 19.9-132.6 56-35.2 36.1-53.9 83.7-52.6 134.2 1.3 48.4 21.4 93.7 56.8 127.6 26.3 25.2 58.7 42 93.8 49v69c-54.2-7.9-103.1-32.7-140.9-68.9-46.3-44.5-75.9-106.1-77.6-175-3.7-142.9 111-259.9 253.1-259.9h2.8c70 0 136.9 28.8 185.1 79.6l116.1 122.5 116.2-122.5c45.7-48.2 108.3-76.6 174.4-79.4v68.1c-47.3 2.8-92.4 23.6-125.1 58.1l-120.2 126.9 120.2 126.8c35.2 37.1 84.7 58.4 135.8 58.4 49.2 0 95.8-18.7 131.2-52.7 35.3-33.9 55.5-79.2 56.7-127.6 1.3-50.5-17.3-98.1-52.5-134.2-28.9-29.7-65.8-48.4-105.9-54.1v-68.5c129.4 13.6 229.9 124.7 226.4 258.5z"/>
			<path id="&lt;Path&gt;" class="s2" d="m1052.9 656.3c-10.9-4.3-18.7-15-18.7-27.5 0-16.3 13.3-29.5 29.6-29.5 16.3 0 29.6 13.2 29.6 29.5 0 12.5-7.8 23.2-18.7 27.5 2.2 1.2 31.3 17 32.5 63.1h-86.8c1.2-46.1 30.2-61.9 32.5-63.1z"/>
			<path id="&lt;Path&gt;" class="s4" d="m1052.9 656.3c-10.9-4.3-18.7-15-18.7-27.5 0-16.3 13.3-29.5 29.6-29.5 16.3 0 29.6 13.2 29.6 29.5 0 12.5-7.8 23.2-18.7 27.5 2.2 1.2 31.3 17 32.5 63.1h-86.8c1.2-46.1 30.2-61.9 32.5-63.1z"/>
			<path id="&lt;Path&gt;" class="s5" d="m313.3 656.3c-11-4.3-18.7-15-18.7-27.5 0-16.3 13.2-29.5 29.6-29.5 16.3 0 29.5 13.2 29.5 29.5 0 12.5-7.7 23.2-18.6 27.5 2.2 1.2 31.3 17 32.4 63.1h-86.7c1.2-46.1 30.2-61.9 32.5-63.1z"/>
			<path id="&lt;Path&gt;" class="s4" d="m313.3 656.3c-11-4.3-18.7-15-18.7-27.5 0-16.3 13.2-29.5 29.6-29.5 16.3 0 29.5 13.2 29.5 29.5 0 12.5-7.7 23.2-18.6 27.5 2.2 1.2 31.3 17 32.4 63.1h-86.7c1.2-46.1 30.2-61.9 32.5-63.1z"/>
			<g id="&lt;Group&gt;" class="c1">
				<path id="&lt;Path&gt;" class="s4 " d="m959.3 667.6h50.3"/>
				<path id="&lt;Path&gt;" class="s4 " d="m984.5 644.5l25.1 23.1"/>
				<path id="&lt;Path&gt;" class="s4 " d="m1009.6 667.6l-25.1 23.2"/>
			</g>
			<path id="&lt;Path&gt;" class="s4 c2" d="m898.3 649.7l-9.3 8.5h-17.9l1.5 16.4-18.8-0.5 1.4 14.9-16 2.8-9.5 28.8 27.4-7.1 52.3-54c4.7 2.6 10.1 4.1 15.9 4.1 18.2 0 33-14.8 33-33 0-18.3-14.8-33.1-33-33.1-18.3 0-33.1 14.8-33.1 33.1 0 7.1 2.3 13.7 6.1 19.1z"/>
			<path id="&lt;Path&gt;" class="s6 c2" d="m937.8 630.6c0 6.9-5.6 12.5-12.5 12.5-7 0-12.6-5.6-12.6-12.5 0-7 5.6-12.6 12.6-12.6 6.9 0 12.5 5.6 12.5 12.6z"/>
			<path id="&lt;Path&gt;" class="s4 c2" d="m937.8 630.6c0 6.9-5.6 12.5-12.5 12.5-7 0-12.6-5.6-12.6-12.5 0-7 5.6-12.6 12.6-12.6 6.9 0 12.5 5.6 12.5 12.6z"/>
			<path id="&lt;Path&gt;" class="s4 c3" d="m446.4 711.2h-51.1c-2.3 0-4.1-1.8-4.1-4.1v-51.1c0-2.3 1.8-4.2 4.1-4.2h51.1c2.3 0 4.2 1.9 4.2 4.2v51.1c0 2.3-1.9 4.1-4.2 4.1z"/>
			<path id="&lt;Path&gt;" class="s4 c3" d="m446.4 631.8h-51.1c-2.3 0-4.1-1.8-4.1-4.1v-51.1c0-2.3 1.8-4.1 4.1-4.1h51.1c2.3 0 4.2 1.8 4.2 4.1v51.1c0 2.3-1.9 4.1-4.2 4.1z"/>
			<path id="&lt;Path&gt;" class="s4 c3" d="m433.7 667.1l-29.1 28.6"/>
			<path id="&lt;Path&gt;" class="s4 c3" d="m404.6 667.1l29.1 28.6"/>
			<path id="&lt;Path&gt;" class="s4 c3" d="m403.3 597.7l15.9 17.4 44-42.6"/>
			<g id="&lt;Group&gt;">
				<path id="&lt;Path&gt;" class="s7" d="m356.6 737.6c0 2.2-1.8 4-4 4-2.3 0-4-1.8-4-4 0-2.2 1.7-4 4-4 2.2 0 4 1.8 4 4z"/>
				<path id="&lt;Path&gt;" class="s7" d="m356.6 766.5c0 2.2-1.8 4-4 4-2.3 0-4-1.8-4-4 0-2.2 1.7-4 4-4 2.2 0 4 1.8 4 4z"/>
				<path id="&lt;Path&gt;" class="s7" d="m356.6 795.4c0 2.3-1.8 4.1-4 4.1-2.3 0-4-1.8-4-4.1 0-2.2 1.7-4 4-4 2.2 0 4 1.8 4 4z"/>
				<path id="&lt;Path&gt;" class="s7" d="m356.6 824.4c0 2.2-1.8 4-4 4-2.3 0-4-1.8-4-4 0-2.3 1.7-4.1 4-4.1 2.2 0 4 1.8 4 4.1z"/>
				<path id="&lt;Path&gt;" class="s7" d="m356.6 853.3c0 2.2-1.8 4-4 4-2.3 0-4-1.8-4-4 0-2.2 1.7-4 4-4 2.2 0 4 1.8 4 4z"/>
				<path id="&lt;Path&gt;" class="s7" d="m356.6 882.2c0 2.2-1.8 4-4 4-2.3 0-4-1.8-4-4 0-2.2 1.7-4 4-4 2.2 0 4 1.8 4 4z"/>
				<path id="&lt;Path&gt;" class="s7" d="m356.6 911.1c0 2.2-1.8 4-4 4-2.3 0-4-1.8-4-4 0-2.2 1.7-4 4-4 2.2 0 4 1.8 4 4z"/>
			</g>
			<g id="&lt;Group&gt;">
				<path id="&lt;Path&gt;" class="s7" d="m988.5 412.6c0 2.2-1.8 4-4 4-2.3 0-4.1-1.8-4.1-4 0-2.2 1.8-4 4.1-4 2.2 0 4 1.8 4 4z"/>
				<path id="&lt;Path&gt;" class="s7" d="m988.5 441.5c0 2.2-1.8 4-4 4-2.3 0-4.1-1.8-4.1-4 0-2.2 1.8-4 4.1-4 2.2 0 4 1.8 4 4z"/>
				<path id="&lt;Path&gt;" class="s7" d="m988.5 470.4c0 2.3-1.8 4.1-4 4.1-2.3 0-4.1-1.8-4.1-4.1 0-2.2 1.8-4 4.1-4 2.2 0 4 1.8 4 4z"/>
				<path id="&lt;Path&gt;" class="s7" d="m988.5 499.4c0 2.2-1.8 4-4 4-2.3 0-4.1-1.8-4.1-4 0-2.3 1.8-4.1 4.1-4.1 2.2 0 4 1.8 4 4.1z"/>
				<path id="&lt;Path&gt;" class="s7" d="m988.5 528.3c0 2.2-1.8 4-4 4-2.3 0-4.1-1.8-4.1-4 0-2.2 1.8-4 4.1-4 2.2 0 4 1.8 4 4z"/>
				<path id="&lt;Path&gt;" class="s7" d="m988.5 557.2c0 2.2-1.8 4-4 4-2.3 0-4.1-1.8-4.1-4 0-2.2 1.8-4 4.1-4 2.2 0 4 1.8 4 4z"/>
				<path id="&lt;Path&gt;" class="s7" d="m988.5 586.1c0 2.2-1.8 4-4 4-2.3 0-4.1-1.8-4.1-4 0-2.2 1.8-4 4.1-4 2.2 0 4 1.8 4 4z"/>
			</g>
		</g>
	</g>
</svg>