<?xml version="1.0" encoding="UTF-8" standalone="no"?>
<!-- Created with Inkscape (http://www.inkscape.org/) -->

<svg
   version="1.1"
   id="svg2"
   width="200"
   height="200"
   viewBox="0 0 200 200"
   sodipodi:docname="Image sourcing.ai"
   xmlns:inkscape="http://www.inkscape.org/namespaces/inkscape"
   xmlns:sodipodi="http://sodipodi.sourceforge.net/DTD/sodipodi-0.dtd"
   xmlns="http://www.w3.org/2000/svg"
   xmlns:svg="http://www.w3.org/2000/svg">
  <defs
     id="defs6">
    <clipPath
       clipPathUnits="userSpaceOnUse"
       id="clipPath16">
      <path
         d="M 0,150 H 150 V 0 H 0 Z"
         id="path14" />
    </clipPath>
  </defs>
  <sodipodi:namedview
     id="namedview4"
     pagecolor="#ffffff"
     bordercolor="#000000"
     borderopacity="0.25"
     inkscape:showpageshadow="2"
     inkscape:pageopacity="0.0"
     inkscape:pagecheckerboard="0"
     inkscape:deskcolor="#d1d1d1" />
  <g
     id="g8"
     inkscape:groupmode="layer"
     inkscape:label="Image sourcing"
     transform="matrix(1.3333333,0,0,-1.3333333,0,200)">
    <g
       id="g10">
      <g
         id="g12"
         clip-path="url(#clipPath16)">
        <g
           id="g18"
           transform="translate(122.119,108.6673)">
          <path
             d="m 0,0 v -60.277 l -28.152,30.279 -19.285,-18.115 -23.312,25.082 -23.489,-22.063 V 0 c 0,5.516 4.471,9.987 9.987,9.987 H -9.987 C -4.471,9.987 0,5.516 0,0"
             style="fill:#ffffff;fill-opacity:1;fill-rule:nonzero;stroke:none"
             id="path20" />
        </g>
        <g
           id="g22"
           transform="translate(74.6815,60.5546)">
          <path
             d="m 0,0 -31.094,-29.209 h -5.72 c -5.516,0 -9.987,4.471 -9.987,9.987 V 3.019 l 23.49,22.063 z"
             style="fill:#ffffff;fill-opacity:1;fill-rule:nonzero;stroke:none"
             id="path24" />
        </g>
        <g
           id="g26"
           transform="translate(74.6815,60.5546)">
          <path
             d="m 0,0 -31.094,-29.209 h -5.72 c -5.516,0 -9.987,4.471 -9.987,9.987 V 3.019 l 23.49,22.063 z"
             style="fill:none;stroke:#000000;stroke-width:1.5;stroke-linecap:round;stroke-linejoin:round;stroke-miterlimit:10;stroke-dasharray:none;stroke-opacity:1"
             id="path28" />
        </g>
        <g
           id="g30"
           transform="translate(122.119,108.6673)">
          <path
             d="m 0,0 v -60.277 l -28.152,30.279 -19.285,-18.115 -23.312,25.082 -23.489,-22.063 V 0 c 0,5.516 4.471,9.987 9.987,9.987 H -9.987 C -4.471,9.987 0,5.516 0,0 Z"
             style="fill:none;stroke:#000000;stroke-width:1.5;stroke-linecap:round;stroke-linejoin:round;stroke-miterlimit:10;stroke-dasharray:none;stroke-opacity:1"
             id="path32" />
        </g>
        <g
           id="g34"
           transform="translate(122.119,48.3898)">
          <path
             d="m 0,0 v -7.057 c 0,-5.516 -4.471,-9.987 -9.987,-9.987 h -68.545 l 31.095,29.209 19.285,18.114 z"
             style="fill:#bffeff;fill-opacity:1;fill-rule:nonzero;stroke:none"
             id="path36" />
        </g>
        <g
           id="g38"
           transform="translate(122.119,48.3898)">
          <path
             d="m 0,0 v -7.057 c 0,-5.516 -4.471,-9.987 -9.987,-9.987 h -68.545 l 31.095,29.209 19.285,18.114 z"
             style="fill:none;stroke:#000000;stroke-width:1.5;stroke-linecap:round;stroke-linejoin:round;stroke-miterlimit:10;stroke-dasharray:none;stroke-opacity:1"
             id="path40" />
        </g>
        <g
           id="g42"
           transform="translate(84.4303,94.8172)">
          <path
             d="m 0,0 c 0,-5.209 -4.223,-9.432 -9.432,-9.432 -5.209,0 -9.432,4.223 -9.432,9.432 0,5.209 4.223,9.432 9.432,9.432 C -4.223,9.432 0,5.209 0,0"
             style="fill:#bffeff;fill-opacity:1;fill-rule:nonzero;stroke:none"
             id="path44" />
        </g>
        <g
           id="g46"
           transform="translate(84.4303,94.8172)">
          <path
             d="m 0,0 c 0,-5.209 -4.223,-9.432 -9.432,-9.432 -5.209,0 -9.432,4.223 -9.432,9.432 0,5.209 4.223,9.432 9.432,9.432 C -4.223,9.432 0,5.209 0,0 Z"
             style="fill:none;stroke:#000000;stroke-width:1.5;stroke-linecap:round;stroke-linejoin:round;stroke-miterlimit:10;stroke-dasharray:none;stroke-opacity:1"
             id="path48" />
        </g>
      </g>
    </g>
  </g>
</svg>
