<?xml version="1.0" encoding="UTF-8" standalone="no"?>
<!-- Created with Inkscape (http://www.inkscape.org/) -->

<svg
   version="1.1"
   id="svg2"
   width="200"
   height="200"
   viewBox="0 0 200 200"
   sodipodi:docname="Image quality.ai"
   xmlns:inkscape="http://www.inkscape.org/namespaces/inkscape"
   xmlns:sodipodi="http://sodipodi.sourceforge.net/DTD/sodipodi-0.dtd"
   xmlns="http://www.w3.org/2000/svg"
   xmlns:svg="http://www.w3.org/2000/svg">
  <defs
     id="defs6">
    <clipPath
       clipPathUnits="userSpaceOnUse"
       id="clipPath20">
      <path
         d="M 0,150 H 150 V 0 H 0 Z"
         id="path18" />
    </clipPath>
  </defs>
  <sodipodi:namedview
     id="namedview4"
     pagecolor="#ffffff"
     bordercolor="#000000"
     borderopacity="0.25"
     inkscape:showpageshadow="2"
     inkscape:pageopacity="0.0"
     inkscape:pagecheckerboard="0"
     inkscape:deskcolor="#d1d1d1" />
  <g
     id="g8"
     inkscape:groupmode="layer"
     inkscape:label="Image quality"
     transform="matrix(1.3333333,0,0,-1.3333333,0,200)">
    <g
       id="g10"
       transform="translate(116.9828,55.4917)">
      <path
         d="m 0,0 v -16.07 h -83.966 v 12.98 l 23.277,19.528 13.361,-13.584 22.092,21.592 z"
         style="fill:#bffeff;fill-opacity:1;fill-rule:nonzero;stroke:none"
         id="path12" />
    </g>
    <g
       id="g14">
      <g
         id="g16"
         clip-path="url(#clipPath20)">
        <g
           id="g22"
           transform="translate(65.9985,79.9382)">
          <path
             d="m 0,0 c -4.826,0 -8.745,3.905 -8.745,8.732 0,4.826 3.919,8.731 8.745,8.731 4.813,0 8.732,-3.905 8.732,-8.731 C 8.732,3.905 4.813,0 0,0 M -32.981,30.64 V -27.537 L -9.705,-8.008 3.656,-21.593 25.749,0 50.984,-24.446 V 30.64 Z"
             style="fill:#ffffff;fill-opacity:1;fill-rule:nonzero;stroke:none"
             id="path24" />
        </g>
        <g
           id="g26"
           transform="translate(116.9828,55.4917)">
          <path
             d="m 0,0 v -16.07 h -83.966 v 12.98 l 23.277,19.528 13.361,-13.584 22.092,21.592 z"
             style="fill:none;stroke:#000000;stroke-width:1.5;stroke-linecap:round;stroke-linejoin:round;stroke-miterlimit:10;stroke-dasharray:none;stroke-opacity:1"
             id="path28" />
        </g>
        <g
           id="g30"
           transform="translate(65.9985,79.9382)">
          <path
             d="m 0,0 c -4.826,0 -8.745,3.905 -8.745,8.732 0,4.826 3.919,8.731 8.745,8.731 4.813,0 8.732,-3.905 8.732,-8.731 C 8.732,3.905 4.813,0 0,0 Z M -32.981,30.64 V -27.537 L -9.705,-8.008 3.656,-21.593 25.749,0 50.984,-24.446 V 30.64 Z"
             style="fill:none;stroke:#000000;stroke-width:1.5;stroke-linecap:round;stroke-linejoin:round;stroke-miterlimit:10;stroke-dasharray:none;stroke-opacity:1"
             id="path32" />
        </g>
        <g
           id="g34"
           transform="translate(74.7304,88.6702)">
          <path
             d="m 0,0 c 0,-4.827 -3.919,-8.732 -8.732,-8.732 -4.826,0 -8.745,3.905 -8.745,8.732 0,4.826 3.919,8.731 8.745,8.731 C -3.919,8.731 0,4.826 0,0 Z"
             style="fill:none;stroke:#000000;stroke-width:1.5;stroke-linecap:round;stroke-linejoin:round;stroke-miterlimit:10;stroke-dasharray:none;stroke-opacity:1"
             id="path36" />
        </g>
        <g
           id="g38"
           transform="translate(81.2662,46.536)">
          <path
             d="M 0,0 -11.612,11.809"
             style="fill:none;stroke:#000000;stroke-width:1.5;stroke-linecap:round;stroke-linejoin:round;stroke-miterlimit:10;stroke-dasharray:none;stroke-opacity:1"
             id="path40" />
        </g>
        <g
           id="g42"
           transform="translate(74.7304,88.6702)">
          <path
             d="m 0,0 c 0,-4.827 -3.919,-8.732 -8.732,-8.732 -4.826,0 -8.745,3.905 -8.745,8.732 0,4.826 3.919,8.731 8.745,8.731 C -3.919,8.731 0,4.826 0,0"
             style="fill:#bffeff;fill-opacity:1;fill-rule:nonzero;stroke:none"
             id="path44" />
        </g>
        <g
           id="g46"
           transform="translate(74.7304,88.6702)">
          <path
             d="m 0,0 c 0,-4.827 -3.919,-8.732 -8.732,-8.732 -4.826,0 -8.745,3.905 -8.745,8.732 0,4.826 3.919,8.731 8.745,8.731 C -3.919,8.731 0,4.826 0,0 Z"
             style="fill:none;stroke:#000000;stroke-width:1.5;stroke-linecap:round;stroke-linejoin:round;stroke-miterlimit:10;stroke-dasharray:none;stroke-opacity:1"
             id="path48" />
        </g>
      </g>
    </g>
  </g>
</svg>
