<?xml version="1.0" encoding="UTF-8" standalone="no"?>
<!-- Created with Inkscape (http://www.inkscape.org/) -->

<svg
   version="1.1"
   id="svg2"
   width="200"
   height="200"
   viewBox="0 0 200 200"
   sodipodi:docname="Launch production job.ai"
   xmlns:inkscape="http://www.inkscape.org/namespaces/inkscape"
   xmlns:sodipodi="http://sodipodi.sourceforge.net/DTD/sodipodi-0.dtd"
   xmlns="http://www.w3.org/2000/svg"
   xmlns:svg="http://www.w3.org/2000/svg">
  <defs
     id="defs6">
    <clipPath
       clipPathUnits="userSpaceOnUse"
       id="clipPath16">
      <path
         d="M 0,150 H 150 V 0 H 0 Z"
         id="path14" />
    </clipPath>
  </defs>
  <sodipodi:namedview
     id="namedview4"
     pagecolor="#ffffff"
     bordercolor="#000000"
     borderopacity="0.25"
     inkscape:showpageshadow="2"
     inkscape:pageopacity="0.0"
     inkscape:pagecheckerboard="0"
     inkscape:deskcolor="#d1d1d1" />
  <g
     id="g8"
     inkscape:groupmode="layer"
     inkscape:label="Launch production job"
     transform="matrix(1.3333333,0,0,-1.3333333,0,200)">
    <g
       id="g10">
      <g
         id="g12"
         clip-path="url(#clipPath16)">
        <g
           id="g18"
           transform="translate(124.1455,124.6279)">
          <path
             d="m 0,0 c 0,-22.004 -9.774,-40.22 -20.916,-53.807 -8.736,-10.653 -18.315,-18.485 -24.68,-23.091 -4.411,-3.201 -7.282,-4.862 -7.282,-4.862 l -4.704,4.618 -19.389,19.023 -4.789,4.704 c 1.71,2.431 3.408,4.752 5.107,6.963 7.477,9.799 14.746,17.582 21.637,23.74 C -23.592,5.4 0,0 0,0"
             style="fill:#ffffff;fill-opacity:1;fill-rule:nonzero;stroke:none"
             id="path20" />
        </g>
        <g
           id="g22"
           transform="translate(103.5222,47.1681)">
          <path
             d="M 0,0 -18.278,-22.212 -24.973,0.562 C -18.607,5.168 -9.029,13 -0.293,23.653 Z"
             style="fill:#ffffff;fill-opacity:1;fill-rule:nonzero;stroke:none"
             id="path24" />
        </g>
        <g
           id="g26"
           transform="translate(69.1297,101.9154)">
          <path
             d="m 0,0 c -6.891,-6.158 -14.16,-13.941 -21.637,-23.739 l -21.638,6.805 22.211,18.986 z"
             style="fill:#ffffff;fill-opacity:1;fill-rule:nonzero;stroke:none"
             id="path28" />
        </g>
        <g
           id="g30"
           transform="translate(66.5638,47.486)">
          <path
             d="m 0,0 -6.671,-10.63 -23.421,24.228 10.702,5.425 z"
             style="fill:#ffffff;fill-opacity:1;fill-rule:nonzero;stroke:none"
             id="path32" />
        </g>
        <g
           id="g34"
           transform="translate(124.1455,124.6279)">
          <path
             d="m 0,0 c 0,-22.004 -9.774,-40.22 -20.916,-53.807 -8.736,-10.653 -18.315,-18.485 -24.68,-23.091 -4.411,-3.201 -7.282,-4.862 -7.282,-4.862 l -4.704,4.618 -19.389,19.023 -4.789,4.704 c 1.71,2.431 3.408,4.752 5.107,6.963 7.477,9.799 14.746,17.582 21.637,23.74 C -23.592,5.4 0,0 0,0 Z"
             style="fill:none;stroke:#000000;stroke-width:1.5;stroke-linecap:round;stroke-linejoin:round;stroke-miterlimit:10;stroke-dasharray:none;stroke-opacity:1"
             id="path36" />
        </g>
        <g
           id="g38"
           transform="translate(103.5222,47.1681)">
          <path
             d="M 0,0 -18.278,-22.212 -24.973,0.562 C -18.607,5.168 -9.029,13 -0.293,23.653 Z"
             style="fill:none;stroke:#000000;stroke-width:1.5;stroke-linecap:round;stroke-linejoin:round;stroke-miterlimit:10;stroke-dasharray:none;stroke-opacity:1"
             id="path40" />
        </g>
        <g
           id="g42"
           transform="translate(69.1297,101.9154)">
          <path
             d="m 0,0 c -6.891,-6.158 -14.16,-13.941 -21.637,-23.739 l -21.638,6.805 22.211,18.986 z"
             style="fill:none;stroke:#000000;stroke-width:1.5;stroke-linecap:round;stroke-linejoin:round;stroke-miterlimit:10;stroke-dasharray:none;stroke-opacity:1"
             id="path44" />
        </g>
        <g
           id="g46"
           transform="translate(66.5638,47.486)">
          <path
             d="m 0,0 -6.671,-10.63 -23.421,24.228 10.702,5.425 z"
             style="fill:none;stroke:#000000;stroke-width:1.5;stroke-linecap:round;stroke-linejoin:round;stroke-miterlimit:10;stroke-dasharray:none;stroke-opacity:1"
             id="path48" />
        </g>
      </g>
    </g>
  </g>
</svg>
