<?xml version="1.0" encoding="UTF-8" standalone="no"?>
<!-- Created with Inkscape (http://www.inkscape.org/) -->

<svg
   version="1.1"
   id="svg2"
   width="200"
   height="200"
   viewBox="0 0 200 200"
   sodipodi:docname="Moderation team - training.ai"
   xmlns:inkscape="http://www.inkscape.org/namespaces/inkscape"
   xmlns:sodipodi="http://sodipodi.sourceforge.net/DTD/sodipodi-0.dtd"
   xmlns="http://www.w3.org/2000/svg"
   xmlns:svg="http://www.w3.org/2000/svg">
  <defs
     id="defs6">
    <clipPath
       clipPathUnits="userSpaceOnUse"
       id="clipPath16">
      <path
         d="M 0,150 H 150 V 0 H 0 Z"
         id="path14" />
    </clipPath>
  </defs>
  <sodipodi:namedview
     id="namedview4"
     pagecolor="#ffffff"
     bordercolor="#000000"
     borderopacity="0.25"
     inkscape:showpageshadow="2"
     inkscape:pageopacity="0.0"
     inkscape:pagecheckerboard="0"
     inkscape:deskcolor="#d1d1d1" />
  <g
     id="g8"
     inkscape:groupmode="layer"
     inkscape:label="Moderation team - training"
     transform="matrix(1.3333333,0,0,-1.3333333,0,200)">
    <g
       id="g10">
      <g
         id="g12"
         clip-path="url(#clipPath16)">
        <g
           id="g18"
           transform="translate(107.5155,68.025)">
          <path
             d="m 0,0 c 0,-18.049 -14.631,-32.68 -32.68,-32.68 -18.049,0 -32.68,14.631 -32.68,32.68 0,18.049 14.631,32.68 32.68,32.68 C -14.631,32.68 0,18.049 0,0"
             style="fill:#ffffff;fill-opacity:1;fill-rule:nonzero;stroke:none"
             id="path20" />
        </g>
        <g
           id="g22"
           transform="translate(107.5155,68.025)">
          <path
             d="m 0,0 c 0,-18.049 -14.631,-32.68 -32.68,-32.68 -18.049,0 -32.68,14.631 -32.68,32.68 0,18.049 14.631,32.68 32.68,32.68 C -14.631,32.68 0,18.049 0,0 Z"
             style="fill:none;stroke:#000000;stroke-width:1.5;stroke-linecap:round;stroke-linejoin:round;stroke-miterlimit:10;stroke-dasharray:none;stroke-opacity:1"
             id="path24" />
        </g>
        <g
           id="g26"
           transform="translate(98.8642,101.8428)">
          <path
             d="m 0,0 c 0,-13.271 -10.758,-24.029 -24.029,-24.029 -13.27,0 -24.028,10.758 -24.028,24.029 0,13.271 10.758,24.029 24.028,24.029 C -10.758,24.029 0,13.271 0,0"
             style="fill:#bffeff;fill-opacity:1;fill-rule:nonzero;stroke:none"
             id="path28" />
        </g>
        <g
           id="g30"
           transform="translate(130.3286,48.1572)">
          <path
             d="m 0,0 c 0,-13.271 -10.758,-24.029 -24.029,-24.029 -13.27,0 -24.028,10.758 -24.028,24.029 0,13.271 10.758,24.029 24.028,24.029 C -10.758,24.029 0,13.271 0,0"
             style="fill:#bffeff;fill-opacity:1;fill-rule:nonzero;stroke:none"
             id="path32" />
        </g>
        <g
           id="g34"
           transform="translate(67.7288,48.1572)">
          <path
             d="m 0,0 c 0,-13.271 -10.758,-24.029 -24.029,-24.029 -13.27,0 -24.028,10.758 -24.028,24.029 0,13.271 10.758,24.029 24.028,24.029 C -10.758,24.029 0,13.271 0,0"
             style="fill:#bffeff;fill-opacity:1;fill-rule:nonzero;stroke:none"
             id="path36" />
        </g>
        <g
           id="g38"
           transform="translate(98.8642,101.8428)">
          <path
             d="m 0,0 c 0,-13.271 -10.758,-24.029 -24.029,-24.029 -13.27,0 -24.028,10.758 -24.028,24.029 0,13.271 10.758,24.029 24.028,24.029 C -10.758,24.029 0,13.271 0,0 Z"
             style="fill:none;stroke:#000000;stroke-width:1.5;stroke-linecap:round;stroke-linejoin:round;stroke-miterlimit:10;stroke-dasharray:none;stroke-opacity:1"
             id="path40" />
        </g>
        <g
           id="g42"
           transform="translate(130.3286,48.1572)">
          <path
             d="m 0,0 c 0,-13.271 -10.758,-24.029 -24.029,-24.029 -13.27,0 -24.028,10.758 -24.028,24.029 0,13.271 10.758,24.029 24.028,24.029 C -10.758,24.029 0,13.271 0,0 Z"
             style="fill:none;stroke:#000000;stroke-width:1.5;stroke-linecap:round;stroke-linejoin:round;stroke-miterlimit:10;stroke-dasharray:none;stroke-opacity:1"
             id="path44" />
        </g>
        <g
           id="g46"
           transform="translate(67.7288,48.1572)">
          <path
             d="m 0,0 c 0,-13.271 -10.758,-24.029 -24.029,-24.029 -13.27,0 -24.028,10.758 -24.028,24.029 0,13.271 10.758,24.029 24.028,24.029 C -10.758,24.029 0,13.271 0,0 Z"
             style="fill:none;stroke:#000000;stroke-width:1.5;stroke-linecap:round;stroke-linejoin:round;stroke-miterlimit:10;stroke-dasharray:none;stroke-opacity:1"
             id="path48" />
        </g>
      </g>
    </g>
  </g>
</svg>
