<?xml version="1.0" encoding="UTF-8" standalone="no"?>
<!-- Created with Inkscape (http://www.inkscape.org/) -->

<svg
   version="1.1"
   id="svg2"
   width="200"
   height="200"
   viewBox="0 0 200 200"
   sodipodi:docname="Named Entity Recognition.ai"
   xmlns:inkscape="http://www.inkscape.org/namespaces/inkscape"
   xmlns:sodipodi="http://sodipodi.sourceforge.net/DTD/sodipodi-0.dtd"
   xmlns="http://www.w3.org/2000/svg"
   xmlns:svg="http://www.w3.org/2000/svg">
  <defs
     id="defs6">
    <clipPath
       clipPathUnits="userSpaceOnUse"
       id="clipPath16">
      <path
         d="M 0,150 H 150 V 0 H 0 Z"
         id="path14" />
    </clipPath>
  </defs>
  <sodipodi:namedview
     id="namedview4"
     pagecolor="#ffffff"
     bordercolor="#000000"
     borderopacity="0.25"
     inkscape:showpageshadow="2"
     inkscape:pageopacity="0.0"
     inkscape:pagecheckerboard="0"
     inkscape:deskcolor="#d1d1d1" />
  <g
     id="g8"
     inkscape:groupmode="layer"
     inkscape:label="Named Entity Recognition"
     transform="matrix(1.3333333,0,0,-1.3333333,0,200)">
    <g
       id="g10">
      <g
         id="g12"
         clip-path="url(#clipPath16)">
        <g
           id="g18"
           transform="translate(101.6665,40.6481)">
          <path
             d="m 0,0 h -53.333 c -8.663,0 -15.685,7.022 -15.685,15.685 v 37.334 c 0,8.662 7.022,15.685 15.685,15.685 H 0 c 8.663,0 15.685,-7.023 15.685,-15.685 V 15.685 C 15.685,7.022 8.663,0 0,0"
             style="fill:#bffeff;fill-opacity:1;fill-rule:nonzero;stroke:none"
             id="path20" />
        </g>
        <g
           id="g22"
           transform="translate(101.6665,40.6481)">
          <path
             d="m 0,0 h -53.333 c -8.663,0 -15.685,7.022 -15.685,15.685 v 37.334 c 0,8.662 7.022,15.685 15.685,15.685 H 0 c 8.663,0 15.685,-7.023 15.685,-15.685 V 15.685 C 15.685,7.022 8.663,0 0,0 Z"
             style="fill:none;stroke:#000000;stroke-width:1.5;stroke-linecap:round;stroke-linejoin:round;stroke-miterlimit:10;stroke-dasharray:none;stroke-opacity:1"
             id="path24" />
        </g>
        <g
           id="g26"
           transform="translate(47.1018,85.0244)">
          <path
             d="M 0,0 H 29.317"
             style="fill:none;stroke:#000000;stroke-width:1.5;stroke-linecap:round;stroke-linejoin:round;stroke-miterlimit:10;stroke-dasharray:none;stroke-opacity:1"
             id="path28" />
        </g>
        <g
           id="g30"
           transform="translate(102.8982,85.0244)">
          <path
             d="M 0,0 H -14.564"
             style="fill:none;stroke:#000000;stroke-width:1.5;stroke-linecap:round;stroke-linejoin:round;stroke-miterlimit:10;stroke-dasharray:none;stroke-opacity:1"
             id="path32" />
        </g>
        <g
           id="g34"
           transform="translate(102.8982,64.9756)">
          <path
             d="M 0,0 H -29.317"
             style="fill:none;stroke:#000000;stroke-width:1.5;stroke-linecap:round;stroke-linejoin:round;stroke-miterlimit:10;stroke-dasharray:none;stroke-opacity:1"
             id="path36" />
        </g>
        <g
           id="g38"
           transform="translate(47.1018,64.9756)">
          <path
             d="M 0,0 H 14.564"
             style="fill:none;stroke:#000000;stroke-width:1.5;stroke-linecap:round;stroke-linejoin:round;stroke-miterlimit:10;stroke-dasharray:none;stroke-opacity:1"
             id="path40" />
        </g>
      </g>
    </g>
  </g>
</svg>
