<?xml version="1.0" encoding="UTF-8" standalone="no"?>
<!-- Created with Inkscape (http://www.inkscape.org/) -->

<svg
   version="1.1"
   id="svg2"
   width="200"
   height="200"
   viewBox="0 0 200 200"
   sodipodi:docname="Nudity.ai"
   xmlns:inkscape="http://www.inkscape.org/namespaces/inkscape"
   xmlns:sodipodi="http://sodipodi.sourceforge.net/DTD/sodipodi-0.dtd"
   xmlns="http://www.w3.org/2000/svg"
   xmlns:svg="http://www.w3.org/2000/svg">
  <defs
     id="defs6">
    <clipPath
       clipPathUnits="userSpaceOnUse"
       id="clipPath16">
      <path
         d="M 0,150 H 150 V 0 H 0 Z"
         id="path14" />
    </clipPath>
  </defs>
  <sodipodi:namedview
     id="namedview4"
     pagecolor="#ffffff"
     bordercolor="#000000"
     borderopacity="0.25"
     inkscape:showpageshadow="2"
     inkscape:pageopacity="0.0"
     inkscape:pagecheckerboard="0"
     inkscape:deskcolor="#d1d1d1" />
  <g
     id="g8"
     inkscape:groupmode="layer"
     inkscape:label="Nudity"
     transform="matrix(1.3333333,0,0,-1.3333333,0,200)">
    <g
       id="g10">
      <g
         id="g12"
         clip-path="url(#clipPath16)">
        <g
           id="g18"
           transform="translate(60.0383,133.1568)">
          <path
             d="M 0,0 C 0,0 1.531,-6.284 -2.658,-19.614 -6.847,-32.943 -20.558,-41.132 -21.51,-61.266 -22.462,-81.401 0,-116.314 0,-116.314 h 29.923 c 0,0 22.463,34.913 21.51,55.048 -0.952,20.134 -14.662,28.323 -18.852,41.652 C 28.392,-6.284 29.923,0 29.923,0 Z"
             style="fill:#ffffff;fill-opacity:1;fill-rule:nonzero;stroke:none"
             id="path20" />
        </g>
        <g
           id="g22"
           transform="translate(60.0383,133.1568)">
          <path
             d="M 0,0 C 0,0 1.531,-6.284 -2.658,-19.614 -6.847,-32.943 -20.558,-41.132 -21.51,-61.266 -22.462,-81.401 0,-116.314 0,-116.314 h 29.923 c 0,0 22.463,34.913 21.51,55.048 -0.952,20.134 -14.662,28.323 -18.852,41.652 C 28.392,-6.284 29.923,0 29.923,0 Z"
             style="fill:none;stroke:#000000;stroke-width:1.5;stroke-linecap:round;stroke-linejoin:round;stroke-miterlimit:10;stroke-dasharray:none;stroke-opacity:1"
             id="path24" />
        </g>
        <g
           id="g26"
           transform="translate(60.0383,133.1568)">
          <path
             d="M 0,0 C 0,0 1.531,-6.284 -2.658,-19.614 -6.847,-32.943 -20.558,-41.132 -21.51,-61.266 -22.462,-81.401 0,-116.314 0,-116.314 h 29.923 c 0,0 22.463,34.913 21.51,55.048 -0.952,20.134 -14.662,28.323 -18.852,41.652 C 28.392,-6.284 29.923,0 29.923,0 Z"
             style="fill:none;stroke:#000000;stroke-width:1.5;stroke-linecap:round;stroke-linejoin:round;stroke-miterlimit:10;stroke-dasharray:none;stroke-opacity:1"
             id="path28" />
        </g>
        <g
           id="g30"
           transform="translate(75,16.8432)">
          <path
             d="M 0,0 V 59.156"
             style="fill:none;stroke:#000000;stroke-width:1.5;stroke-linecap:round;stroke-linejoin:round;stroke-miterlimit:10;stroke-dasharray:none;stroke-opacity:1"
             id="path32" />
        </g>
        <g
           id="g34"
           transform="translate(75,75.9991)">
          <path
             d="M 0,0 -5.604,6.828"
             style="fill:none;stroke:#000000;stroke-width:1.5;stroke-linecap:round;stroke-linejoin:round;stroke-miterlimit:10;stroke-dasharray:none;stroke-opacity:1"
             id="path36" />
        </g>
        <g
           id="g38"
           transform="translate(75,75.9991)">
          <path
             d="M 0,0 5.604,6.828"
             style="fill:none;stroke:#000000;stroke-width:1.5;stroke-linecap:round;stroke-linejoin:round;stroke-miterlimit:10;stroke-dasharray:none;stroke-opacity:1"
             id="path40" />
        </g>
        <g
           id="g42"
           transform="translate(75,72.5352)">
          <path
             d="M 0,0 C 0,0 7.798,-5.625 19.558,0.895"
             style="fill:none;stroke:#000000;stroke-width:1.5;stroke-linecap:round;stroke-linejoin:round;stroke-miterlimit:10;stroke-dasharray:none;stroke-opacity:1"
             id="path44" />
        </g>
        <g
           id="g46"
           transform="translate(75,72.5352)">
          <path
             d="M 0,0 C 0,0 -7.798,-5.625 -19.558,0.895"
             style="fill:none;stroke:#000000;stroke-width:1.5;stroke-linecap:round;stroke-linejoin:round;stroke-miterlimit:10;stroke-dasharray:none;stroke-opacity:1"
             id="path48" />
        </g>
        <g
           id="g50"
           transform="translate(75,128.2135)">
          <path
             d="M 0,0 C 0,0 -0.588,-12.931 0,-20.015"
             style="fill:none;stroke:#000000;stroke-width:1.5;stroke-linecap:round;stroke-linejoin:round;stroke-miterlimit:10;stroke-dasharray:none;stroke-opacity:1"
             id="path52" />
        </g>
      </g>
    </g>
  </g>
</svg>
