<?xml version="1.0" encoding="UTF-8" standalone="no"?>
<!-- Created with Inkscape (http://www.inkscape.org/) -->

<svg
   version="1.1"
   id="svg2"
   width="200"
   height="200"
   viewBox="0 0 200 200"
   sodipodi:docname="OCR (1).ai"
   xmlns:inkscape="http://www.inkscape.org/namespaces/inkscape"
   xmlns:sodipodi="http://sodipodi.sourceforge.net/DTD/sodipodi-0.dtd"
   xmlns="http://www.w3.org/2000/svg"
   xmlns:svg="http://www.w3.org/2000/svg">
  <defs
     id="defs6">
    <clipPath
       clipPathUnits="userSpaceOnUse"
       id="clipPath16">
      <path
         d="M 0,150 H 150 V 0 H 0 Z"
         id="path14" />
    </clipPath>
  </defs>
  <sodipodi:namedview
     id="namedview4"
     pagecolor="#ffffff"
     bordercolor="#000000"
     borderopacity="0.25"
     inkscape:showpageshadow="2"
     inkscape:pageopacity="0.0"
     inkscape:pagecheckerboard="0"
     inkscape:deskcolor="#d1d1d1" />
  <g
     id="g8"
     inkscape:groupmode="layer"
     inkscape:label="OCR (1)"
     transform="matrix(1.3333333,0,0,-1.3333333,0,200)">
    <g
       id="g10">
      <g
         id="g12"
         clip-path="url(#clipPath16)">
        <g
           id="g18"
           transform="translate(94.7144,30.1772)">
          <path
             d="m 0,0 h -52.535 c -2.986,0 -5.406,2.421 -5.406,5.407 v 78.832 c 0,2.986 2.42,5.407 5.406,5.407 H 0 c 2.986,0 5.407,-2.421 5.407,-5.407 V 5.407 C 5.407,2.421 2.986,0 0,0"
             style="fill:#ffffff;fill-opacity:1;fill-rule:nonzero;stroke:none"
             id="path20" />
        </g>
        <g
           id="g22"
           transform="translate(65.2791,104.9231)">
          <path
             d="m 0,0 c 0,-3.892 -3.155,-7.047 -7.047,-7.047 -3.892,0 -7.047,3.155 -7.047,7.047 0,3.892 3.155,7.047 7.047,7.047 C -3.155,7.047 0,3.892 0,0"
             style="fill:#bffeff;fill-opacity:1;fill-rule:nonzero;stroke:none"
             id="path24" />
        </g>
        <g
           id="g26"
           transform="translate(73.1342,84.3747)">
          <path
             d="m 0,0 h -29.804 v 4.195 c 0,3.054 2.476,5.53 5.53,5.53 H -5.53 C -2.476,9.725 0,7.249 0,4.195 Z"
             style="fill:#bffeff;fill-opacity:1;fill-rule:nonzero;stroke:none"
             id="path28" />
        </g>
        <g
           id="g30"
           transform="translate(94.7144,30.1772)">
          <path
             d="m 0,0 h -52.535 c -2.986,0 -5.406,2.421 -5.406,5.407 v 78.832 c 0,2.986 2.42,5.407 5.406,5.407 H 0 c 2.986,0 5.407,-2.421 5.407,-5.407 V 5.407 C 5.407,2.421 2.986,0 0,0 Z"
             style="fill:none;stroke:#000000;stroke-width:1.5;stroke-linecap:round;stroke-linejoin:round;stroke-miterlimit:10;stroke-dasharray:none;stroke-opacity:1"
             id="path32" />
        </g>
        <g
           id="g34"
           transform="translate(65.2791,104.9231)">
          <path
             d="m 0,0 c 0,-3.892 -3.155,-7.047 -7.047,-7.047 -3.892,0 -7.047,3.155 -7.047,7.047 0,3.892 3.155,7.047 7.047,7.047 C -3.155,7.047 0,3.892 0,0 Z"
             style="fill:none;stroke:#000000;stroke-width:1.5;stroke-linecap:round;stroke-linejoin:round;stroke-miterlimit:10;stroke-dasharray:none;stroke-opacity:1"
             id="path36" />
        </g>
        <g
           id="g38"
           transform="translate(73.1342,84.3747)">
          <path
             d="m 0,0 h -29.804 v 4.195 c 0,3.054 2.476,5.53 5.53,5.53 H -5.53 C -2.476,9.725 0,7.249 0,4.195 Z"
             style="fill:none;stroke:#000000;stroke-width:1.5;stroke-linecap:round;stroke-linejoin:round;stroke-miterlimit:10;stroke-dasharray:none;stroke-opacity:1"
             id="path40" />
        </g>
        <g
           id="g42"
           transform="translate(57.0412,71.3159)">
          <path
             d="M 0,0 H 56.186"
             style="fill:none;stroke:#000000;stroke-width:1.5;stroke-linecap:round;stroke-linejoin:round;stroke-miterlimit:10;stroke-dasharray:none;stroke-opacity:1"
             id="path44" />
        </g>
        <g
           id="g46"
           transform="translate(57.0412,61.3885)">
          <path
             d="M 0,0 H 56.186"
             style="fill:none;stroke:#000000;stroke-width:1.5;stroke-linecap:round;stroke-linejoin:round;stroke-miterlimit:10;stroke-dasharray:none;stroke-opacity:1"
             id="path48" />
        </g>
        <g
           id="g50"
           transform="translate(57.0412,51.4611)">
          <path
             d="M 0,0 H 56.186"
             style="fill:none;stroke:#000000;stroke-width:1.5;stroke-linecap:round;stroke-linejoin:round;stroke-miterlimit:10;stroke-dasharray:none;stroke-opacity:1"
             id="path52" />
        </g>
        <g
           id="g54"
           transform="translate(57.0412,41.5337)">
          <path
             d="M 0,0 H 56.186"
             style="fill:none;stroke:#000000;stroke-width:1.5;stroke-linecap:round;stroke-linejoin:round;stroke-miterlimit:10;stroke-dasharray:none;stroke-opacity:1"
             id="path56" />
        </g>
      </g>
    </g>
  </g>
</svg>
