<?xml version="1.0" encoding="UTF-8" standalone="no"?>
<!-- Created with Inkscape (http://www.inkscape.org/) -->

<svg
   version="1.1"
   id="svg2"
   width="200"
   height="200"
   viewBox="0 0 200 200"
   sodipodi:docname="OCR.ai"
   xmlns:inkscape="http://www.inkscape.org/namespaces/inkscape"
   xmlns:sodipodi="http://sodipodi.sourceforge.net/DTD/sodipodi-0.dtd"
   xmlns="http://www.w3.org/2000/svg"
   xmlns:svg="http://www.w3.org/2000/svg">
  <defs
     id="defs6">
    <clipPath
       clipPathUnits="userSpaceOnUse"
       id="clipPath16">
      <path
         d="M 0,150 H 150 V 0 H 0 Z"
         id="path14" />
    </clipPath>
  </defs>
  <sodipodi:namedview
     id="namedview4"
     pagecolor="#ffffff"
     bordercolor="#000000"
     borderopacity="0.25"
     inkscape:showpageshadow="2"
     inkscape:pageopacity="0.0"
     inkscape:pagecheckerboard="0"
     inkscape:deskcolor="#d1d1d1" />
  <g
     id="g8"
     inkscape:groupmode="layer"
     inkscape:label="OCR"
     transform="matrix(1.3333333,0,0,-1.3333333,0,200)">
    <g
       id="g10">
      <g
         id="g12"
         clip-path="url(#clipPath16)">
        <g
           id="g18"
           transform="translate(92.5983,40.0093)">
          <path
             d="m 0,0 h -46.896 c -2.665,0 -4.826,2.161 -4.826,4.826 v 70.371 c 0,2.665 2.161,4.826 4.826,4.826 H 0 c 2.665,0 4.826,-2.161 4.826,-4.826 V 4.826 C 4.826,2.161 2.665,0 0,0"
             style="fill:#ffffff;fill-opacity:1;fill-rule:nonzero;stroke:none"
             id="path20" />
        </g>
        <g
           id="g22"
           transform="translate(66.3225,106.7322)">
          <path
             d="m 0,0 c 0,-3.474 -2.816,-6.29 -6.29,-6.29 -3.475,0 -6.291,2.816 -6.291,6.29 0,3.474 2.816,6.29 6.291,6.29 C -2.816,6.29 0,3.474 0,0"
             style="fill:#bffeff;fill-opacity:1;fill-rule:nonzero;stroke:none"
             id="path24" />
        </g>
        <g
           id="g26"
           transform="translate(73.3345,88.3894)">
          <path
             d="m 0,0 h -26.605 v 3.744 c 0,2.727 2.21,4.937 4.937,4.937 H -4.937 C -2.21,8.681 0,6.471 0,3.744 Z"
             style="fill:#bffeff;fill-opacity:1;fill-rule:nonzero;stroke:none"
             id="path28" />
        </g>
        <g
           id="g30"
           transform="translate(92.5983,40.0093)">
          <path
             d="m 0,0 h -46.896 c -2.665,0 -4.826,2.161 -4.826,4.826 v 70.371 c 0,2.665 2.161,4.826 4.826,4.826 H 0 c 2.665,0 4.826,-2.161 4.826,-4.826 V 4.826 C 4.826,2.161 2.665,0 0,0 Z"
             style="fill:none;stroke:#000000;stroke-width:1.5;stroke-linecap:round;stroke-linejoin:round;stroke-miterlimit:10;stroke-dasharray:none;stroke-opacity:1"
             id="path32" />
        </g>
        <g
           id="g34"
           transform="translate(66.3225,106.7322)">
          <path
             d="m 0,0 c 0,-3.474 -2.816,-6.29 -6.29,-6.29 -3.475,0 -6.291,2.816 -6.291,6.29 0,3.474 2.816,6.29 6.291,6.29 C -2.816,6.29 0,3.474 0,0 Z"
             style="fill:none;stroke:#000000;stroke-width:1.5;stroke-linecap:round;stroke-linejoin:round;stroke-miterlimit:10;stroke-dasharray:none;stroke-opacity:1"
             id="path36" />
        </g>
        <g
           id="g38"
           transform="translate(73.3345,88.3894)">
          <path
             d="m 0,0 h -26.605 v 3.744 c 0,2.727 2.21,4.937 4.937,4.937 H -4.937 C -2.21,8.681 0,6.471 0,3.744 Z"
             style="fill:none;stroke:#000000;stroke-width:1.5;stroke-linecap:round;stroke-linejoin:round;stroke-miterlimit:10;stroke-dasharray:none;stroke-opacity:1"
             id="path40" />
        </g>
        <g
           id="g42"
           transform="translate(58.9688,76.7323)">
          <path
             d="M 0,0 H 50.155"
             style="fill:none;stroke:#000000;stroke-width:1.5;stroke-linecap:round;stroke-linejoin:round;stroke-miterlimit:10;stroke-dasharray:none;stroke-opacity:1"
             id="path44" />
        </g>
        <g
           id="g46"
           transform="translate(58.9688,67.8705)">
          <path
             d="M 0,0 H 50.155"
             style="fill:none;stroke:#000000;stroke-width:1.5;stroke-linecap:round;stroke-linejoin:round;stroke-miterlimit:10;stroke-dasharray:none;stroke-opacity:1"
             id="path48" />
        </g>
        <g
           id="g50"
           transform="translate(58.9688,59.0086)">
          <path
             d="M 0,0 H 50.155"
             style="fill:none;stroke:#000000;stroke-width:1.5;stroke-linecap:round;stroke-linejoin:round;stroke-miterlimit:10;stroke-dasharray:none;stroke-opacity:1"
             id="path52" />
        </g>
        <g
           id="g54"
           transform="translate(58.9688,50.1468)">
          <path
             d="M 0,0 H 50.155"
             style="fill:none;stroke:#000000;stroke-width:1.5;stroke-linecap:round;stroke-linejoin:round;stroke-miterlimit:10;stroke-dasharray:none;stroke-opacity:1"
             id="path56" />
        </g>
      </g>
    </g>
  </g>
</svg>
