<?xml version="1.0" encoding="UTF-8" standalone="no"?>
<!-- Created with Inkscape (http://www.inkscape.org/) -->

<svg
   version="1.1"
   id="svg2"
   width="200"
   height="200"
   viewBox="0 0 200 200"
   sodipodi:docname="Polygon.ai"
   xmlns:inkscape="http://www.inkscape.org/namespaces/inkscape"
   xmlns:sodipodi="http://sodipodi.sourceforge.net/DTD/sodipodi-0.dtd"
   xmlns="http://www.w3.org/2000/svg"
   xmlns:svg="http://www.w3.org/2000/svg">
  <defs
     id="defs6">
    <clipPath
       clipPathUnits="userSpaceOnUse"
       id="clipPath24">
      <path
         d="M 0,150 H 150 V 0 H 0 Z"
         id="path22" />
    </clipPath>
  </defs>
  <sodipodi:namedview
     id="namedview4"
     pagecolor="#ffffff"
     bordercolor="#000000"
     borderopacity="0.25"
     inkscape:showpageshadow="2"
     inkscape:pageopacity="0.0"
     inkscape:pagecheckerboard="0"
     inkscape:deskcolor="#d1d1d1" />
  <g
     id="g8"
     inkscape:groupmode="layer"
     inkscape:label="Polygon"
     transform="matrix(1.3333333,0,0,-1.3333333,0,200)">
    <g
       id="g10"
       transform="translate(74.1416,113.0307)">
      <path
         d="m 0,0 -45.209,-32.846 17.268,-53.147 h 55.882 l 17.268,53.147 z"
         style="fill:#ffffff;fill-opacity:1;fill-rule:nonzero;stroke:none"
         id="path12" />
    </g>
    <g
       id="g14"
       transform="translate(74.1416,113.0307)">
      <path
         d="m 0,0 -45.209,-32.846 17.268,-53.147 h 55.882 l 17.268,53.147 z"
         style="fill:none;stroke:#000000;stroke-width:1.5;stroke-linecap:round;stroke-linejoin:round;stroke-miterlimit:10;stroke-dasharray:none;stroke-opacity:1"
         id="path16" />
    </g>
    <g
       id="g18">
      <g
         id="g20"
         clip-path="url(#clipPath24)">
        <g
           id="g26"
           transform="translate(125.4326,53.2927)">
          <path
             d="m 0,0 c 0,-7.787 -6.313,-14.1 -14.1,-14.1 -7.788,0 -14.101,6.313 -14.101,14.1 0,7.787 6.313,14.1 14.101,14.1 C -6.313,14.1 0,7.787 0,0"
             style="fill:#bffeff;fill-opacity:1;fill-rule:nonzero;stroke:none"
             id="path28" />
        </g>
        <g
           id="g30"
           transform="translate(125.4326,53.2927)">
          <path
             d="m 0,0 c 0,-7.787 -6.313,-14.1 -14.1,-14.1 -7.788,0 -14.101,6.313 -14.101,14.1 0,7.787 6.313,14.1 14.101,14.1 C -6.313,14.1 0,7.787 0,0 Z"
             style="fill:none;stroke:#000000;stroke-width:1.5;stroke-linecap:round;stroke-linejoin:round;stroke-miterlimit:10;stroke-dasharray:none;stroke-opacity:1"
             id="path32" />
        </g>
        <g
           id="g34"
           transform="translate(52.7682,53.2927)">
          <path
             d="m 0,0 c 0,-7.787 -6.313,-14.1 -14.1,-14.1 -7.788,0 -14.101,6.313 -14.101,14.1 0,7.787 6.313,14.1 14.101,14.1 C -6.313,14.1 0,7.787 0,0"
             style="fill:#bffeff;fill-opacity:1;fill-rule:nonzero;stroke:none"
             id="path36" />
        </g>
        <g
           id="g38"
           transform="translate(52.7682,53.2927)">
          <path
             d="m 0,0 c 0,-7.787 -6.313,-14.1 -14.1,-14.1 -7.788,0 -14.101,6.313 -14.101,14.1 0,7.787 6.313,14.1 14.101,14.1 C -6.313,14.1 0,7.787 0,0 Z"
             style="fill:none;stroke:#000000;stroke-width:1.5;stroke-linecap:round;stroke-linejoin:round;stroke-miterlimit:10;stroke-dasharray:none;stroke-opacity:1"
             id="path40" />
        </g>
        <g
           id="g42"
           transform="translate(88.242,108.8621)">
          <path
             d="m 0,0 c 0,-7.787 -6.313,-14.1 -14.1,-14.1 -7.788,0 -14.101,6.313 -14.101,14.1 0,7.787 6.313,14.1 14.101,14.1 C -6.313,14.1 0,7.787 0,0"
             style="fill:#bffeff;fill-opacity:1;fill-rule:nonzero;stroke:none"
             id="path44" />
        </g>
        <g
           id="g46"
           transform="translate(88.242,108.8621)">
          <path
             d="m 0,0 c 0,-7.787 -6.313,-14.1 -14.1,-14.1 -7.788,0 -14.101,6.313 -14.101,14.1 0,7.787 6.313,14.1 14.101,14.1 C -6.313,14.1 0,7.787 0,0 Z"
             style="fill:none;stroke:#000000;stroke-width:1.5;stroke-linecap:round;stroke-linejoin:round;stroke-miterlimit:10;stroke-dasharray:none;stroke-opacity:1"
             id="path48" />
        </g>
      </g>
    </g>
  </g>
</svg>
