<?xml version="1.0" encoding="UTF-8" standalone="no"?>
<!-- Created with Inkscape (http://www.inkscape.org/) -->

<svg
   version="1.1"
   id="svg2"
   width="200"
   height="200"
   viewBox="0 0 200 200"
   sodipodi:docname="Project initiation and consultation.ai"
   xmlns:inkscape="http://www.inkscape.org/namespaces/inkscape"
   xmlns:sodipodi="http://sodipodi.sourceforge.net/DTD/sodipodi-0.dtd"
   xmlns="http://www.w3.org/2000/svg"
   xmlns:svg="http://www.w3.org/2000/svg">
  <defs
     id="defs6">
    <clipPath
       clipPathUnits="userSpaceOnUse"
       id="clipPath20">
      <path
         d="M 0,150 H 150 V 0 H 0 Z"
         id="path18" />
    </clipPath>
  </defs>
  <sodipodi:namedview
     id="namedview4"
     pagecolor="#ffffff"
     bordercolor="#000000"
     borderopacity="0.25"
     inkscape:showpageshadow="2"
     inkscape:pageopacity="0.0"
     inkscape:pagecheckerboard="0"
     inkscape:deskcolor="#d1d1d1" />
  <g
     id="g8"
     inkscape:groupmode="layer"
     inkscape:label="Project initiation and consultation"
     transform="matrix(1.3333333,0,0,-1.3333333,0,200)">
    <path
       d="M 132.11,42.782 H 106.307 V 68.585 H 132.11 Z"
       style="fill:#bffeff;fill-opacity:1;fill-rule:nonzero;stroke:none"
       id="path10" />
    <path
       d="M 87.901,42.782 H 62.098 v 25.803 h 25.803 z"
       style="fill:#bffeff;fill-opacity:1;fill-rule:nonzero;stroke:none"
       id="path12" />
    <g
       id="g14">
      <g
         id="g16"
         clip-path="url(#clipPath20)">
        <g
           id="g22"
           transform="translate(132.1097,94.3169)">
          <path
             d="m 0,0 c 0,7.125 -5.776,12.901 -12.901,12.901 -7.125,0 -12.902,-5.776 -12.902,-12.901 0,-7.125 5.777,-12.901 12.902,-12.901 C -5.776,-12.901 0,-7.125 0,0"
             style="fill:#ffffff;fill-opacity:1;fill-rule:nonzero;stroke:none"
             id="path24" />
        </g>
        <g
           id="g26"
           transform="translate(87.9013,94.3169)">
          <path
             d="m 0,0 c 0,7.125 -5.776,12.901 -12.901,12.901 -7.125,0 -12.902,-5.776 -12.902,-12.901 0,-7.125 5.777,-12.901 12.902,-12.901 C -5.776,-12.901 0,-7.125 0,0"
             style="fill:#ffffff;fill-opacity:1;fill-rule:nonzero;stroke:none"
             id="path28" />
        </g>
        <path
           d="M 132.11,42.782 H 106.307 V 68.585 H 132.11 Z"
           style="fill:none;stroke:#000000;stroke-width:1.5;stroke-linecap:round;stroke-linejoin:round;stroke-miterlimit:10;stroke-dasharray:none;stroke-opacity:1"
           id="path30" />
        <g
           id="g32"
           transform="translate(132.1097,94.3169)">
          <path
             d="m 0,0 c 0,7.125 -5.776,12.901 -12.901,12.901 -7.125,0 -12.902,-5.776 -12.902,-12.901 0,-7.125 5.777,-12.901 12.902,-12.901 C -5.776,-12.901 0,-7.125 0,0 Z"
             style="fill:none;stroke:#000000;stroke-width:1.5;stroke-linecap:round;stroke-linejoin:round;stroke-miterlimit:10;stroke-dasharray:none;stroke-opacity:1"
             id="path34" />
        </g>
        <g
           id="g36"
           transform="translate(119.2084,81.4156)">
          <path
             d="M 0,0 V -12.831"
             style="fill:none;stroke:#000000;stroke-width:1.5;stroke-linecap:round;stroke-linejoin:round;stroke-miterlimit:10;stroke-dasharray:none;stroke-opacity:1"
             id="path38" />
        </g>
        <path
           d="M 87.901,42.782 H 62.098 v 25.803 h 25.803 z"
           style="fill:none;stroke:#000000;stroke-width:1.5;stroke-linecap:round;stroke-linejoin:round;stroke-miterlimit:10;stroke-dasharray:none;stroke-opacity:1"
           id="path40" />
        <path
           d="M 43.693,42.782 H 17.89 v 25.803 h 25.803 z"
           style="fill:#bffeff;fill-opacity:1;fill-rule:nonzero;stroke:none"
           id="path42" />
        <g
           id="g44"
           transform="translate(87.9013,94.3169)">
          <path
             d="m 0,0 c 0,7.125 -5.776,12.901 -12.901,12.901 -7.125,0 -12.902,-5.776 -12.902,-12.901 0,-7.125 5.777,-12.901 12.902,-12.901 C -5.776,-12.901 0,-7.125 0,0 Z"
             style="fill:none;stroke:#000000;stroke-width:1.5;stroke-linecap:round;stroke-linejoin:round;stroke-miterlimit:10;stroke-dasharray:none;stroke-opacity:1"
             id="path46" />
        </g>
        <g
           id="g48"
           transform="translate(43.6929,94.3169)">
          <path
             d="m 0,0 c 0,7.125 -5.776,12.901 -12.901,12.901 -7.125,0 -12.902,-5.776 -12.902,-12.901 0,-7.125 5.777,-12.901 12.902,-12.901 C -5.776,-12.901 0,-7.125 0,0"
             style="fill:#ffffff;fill-opacity:1;fill-rule:nonzero;stroke:none"
             id="path50" />
        </g>
        <g
           id="g52"
           transform="translate(75,81.4156)">
          <path
             d="M 0,0 V -12.831"
             style="fill:none;stroke:#000000;stroke-width:1.5;stroke-linecap:round;stroke-linejoin:round;stroke-miterlimit:10;stroke-dasharray:none;stroke-opacity:1"
             id="path54" />
        </g>
        <path
           d="M 43.693,42.782 H 17.89 v 25.803 h 25.803 z"
           style="fill:none;stroke:#000000;stroke-width:1.5;stroke-linecap:round;stroke-linejoin:round;stroke-miterlimit:10;stroke-dasharray:none;stroke-opacity:1"
           id="path56" />
        <g
           id="g58"
           transform="translate(43.6929,94.3169)">
          <path
             d="m 0,0 c 0,7.125 -5.776,12.901 -12.901,12.901 -7.125,0 -12.902,-5.776 -12.902,-12.901 0,-7.125 5.777,-12.901 12.902,-12.901 C -5.776,-12.901 0,-7.125 0,0 Z"
             style="fill:none;stroke:#000000;stroke-width:1.5;stroke-linecap:round;stroke-linejoin:round;stroke-miterlimit:10;stroke-dasharray:none;stroke-opacity:1"
             id="path60" />
        </g>
        <g
           id="g62"
           transform="translate(30.7916,81.4156)">
          <path
             d="M 0,0 V -12.831"
             style="fill:none;stroke:#000000;stroke-width:1.5;stroke-linecap:round;stroke-linejoin:round;stroke-miterlimit:10;stroke-dasharray:none;stroke-opacity:1"
             id="path64" />
        </g>
        <g
           id="g66"
           transform="translate(106.3071,54.4854)">
          <path
             d="M 0,0 H -18.406"
             style="fill:none;stroke:#000000;stroke-width:1.5;stroke-linecap:round;stroke-linejoin:round;stroke-miterlimit:10;stroke-dasharray:none;stroke-opacity:1"
             id="path68" />
        </g>
        <g
           id="g70"
           transform="translate(62.0987,54.4854)">
          <path
             d="M 0,0 H -18.406"
             style="fill:none;stroke:#000000;stroke-width:1.5;stroke-linecap:round;stroke-linejoin:round;stroke-miterlimit:10;stroke-dasharray:none;stroke-opacity:1"
             id="path72" />
        </g>
      </g>
    </g>
  </g>
</svg>
