<?xml version="1.0" encoding="UTF-8" standalone="no"?>
<!-- Created with Inkscape (http://www.inkscape.org/) -->

<svg
   version="1.1"
   id="svg2"
   width="200"
   height="200"
   viewBox="0 0 200 200"
   sodipodi:docname="Spline.ai"
   xmlns:inkscape="http://www.inkscape.org/namespaces/inkscape"
   xmlns:sodipodi="http://sodipodi.sourceforge.net/DTD/sodipodi-0.dtd"
   xmlns="http://www.w3.org/2000/svg"
   xmlns:svg="http://www.w3.org/2000/svg">
  <defs
     id="defs6">
    <clipPath
       clipPathUnits="userSpaceOnUse"
       id="clipPath20">
      <path
         d="M 0,150 H 150 V 0 H 0 Z"
         id="path18" />
    </clipPath>
  </defs>
  <sodipodi:namedview
     id="namedview4"
     pagecolor="#ffffff"
     bordercolor="#000000"
     borderopacity="0.25"
     inkscape:showpageshadow="2"
     inkscape:pageopacity="0.0"
     inkscape:pagecheckerboard="0"
     inkscape:deskcolor="#d1d1d1" />
  <g
     id="g8"
     inkscape:groupmode="layer"
     inkscape:label="Spline"
     transform="matrix(1.3333333,0,0,-1.3333333,0,200)">
    <g
       id="g10"
       transform="translate(53.6864,45.7691)">
      <path
         d="M 0,0 21.645,45.536 43.291,0 Z"
         style="fill:#ffffff;fill-opacity:1;fill-rule:nonzero;stroke:none"
         id="path12" />
    </g>
    <g
       id="g14">
      <g
         id="g16"
         clip-path="url(#clipPath20)">
        <g
           id="g22"
           transform="translate(37.1067,59.8747)">
          <path
             d="M 0,0 C 0,20.928 16.965,37.893 37.893,37.893 58.821,37.893 75.787,20.928 75.787,0"
             style="fill:none;stroke:#000000;stroke-width:1.5;stroke-linecap:round;stroke-linejoin:round;stroke-miterlimit:10;stroke-dasharray:none;stroke-opacity:1"
             id="path24" />
        </g>
        <g
           id="g26"
           transform="translate(119.0645,59.8747)">
          <path
             d="m 0,0 c 0,-3.408 -2.763,-6.171 -6.171,-6.171 -3.408,0 -6.171,2.763 -6.171,6.171 0,3.408 2.763,6.171 6.171,6.171 C -2.763,6.171 0,3.408 0,0"
             style="fill:#bffeff;fill-opacity:1;fill-rule:nonzero;stroke:none"
             id="path28" />
        </g>
        <g
           id="g30"
           transform="translate(43.2779,59.8747)">
          <path
             d="m 0,0 c 0,-3.408 -2.763,-6.171 -6.171,-6.171 -3.408,0 -6.171,2.763 -6.171,6.171 0,3.408 2.763,6.171 6.171,6.171 C -2.763,6.171 0,3.408 0,0"
             style="fill:#bffeff;fill-opacity:1;fill-rule:nonzero;stroke:none"
             id="path32" />
        </g>
        <g
           id="g34"
           transform="translate(119.0645,59.8747)">
          <path
             d="m 0,0 c 0,-3.408 -2.763,-6.171 -6.171,-6.171 -3.408,0 -6.171,2.763 -6.171,6.171 0,3.408 2.763,6.171 6.171,6.171 C -2.763,6.171 0,3.408 0,0 Z"
             style="fill:none;stroke:#000000;stroke-width:1.5;stroke-linecap:round;stroke-linejoin:round;stroke-miterlimit:10;stroke-dasharray:none;stroke-opacity:1"
             id="path36" />
        </g>
        <g
           id="g38"
           transform="translate(43.2779,59.8747)">
          <path
             d="m 0,0 c 0,-3.408 -2.763,-6.171 -6.171,-6.171 -3.408,0 -6.171,2.763 -6.171,6.171 0,3.408 2.763,6.171 6.171,6.171 C -2.763,6.171 0,3.408 0,0 Z"
             style="fill:none;stroke:#000000;stroke-width:1.5;stroke-linecap:round;stroke-linejoin:round;stroke-miterlimit:10;stroke-dasharray:none;stroke-opacity:1"
             id="path40" />
        </g>
        <path
           d="M 81.795,91.305 H 68.869 v 12.926 h 12.926 z"
           style="fill:#bffeff;fill-opacity:1;fill-rule:nonzero;stroke:#000000;stroke-width:1.5;stroke-linecap:round;stroke-linejoin:round;stroke-miterlimit:10;stroke-dasharray:none;stroke-opacity:1"
           id="path42" />
        <g
           id="g44"
           transform="translate(53.6864,45.7691)">
          <path
             d="M 0,0 21.645,45.536 43.291,0 Z"
             style="fill:none;stroke:#000000;stroke-width:1.5;stroke-linecap:round;stroke-linejoin:round;stroke-miterlimit:10;stroke-dasharray:none;stroke-opacity:1"
             id="path46" />
        </g>
      </g>
    </g>
  </g>
</svg>
