<?xml version="1.0" encoding="UTF-8" standalone="no"?>
<!-- Created with Inkscape (http://www.inkscape.org/) -->

<svg
   version="1.1"
   id="svg2"
   width="200"
   height="200"
   viewBox="0 0 200 200"
   sodipodi:docname="Spline (1).ai"
   xmlns:inkscape="http://www.inkscape.org/namespaces/inkscape"
   xmlns:sodipodi="http://sodipodi.sourceforge.net/DTD/sodipodi-0.dtd"
   xmlns="http://www.w3.org/2000/svg"
   xmlns:svg="http://www.w3.org/2000/svg">
  <defs
     id="defs6">
    <clipPath
       clipPathUnits="userSpaceOnUse"
       id="clipPath20">
      <path
         d="M 0,150 H 150 V 0 H 0 Z"
         id="path18" />
    </clipPath>
  </defs>
  <sodipodi:namedview
     id="namedview4"
     pagecolor="#ffffff"
     bordercolor="#000000"
     borderopacity="0.25"
     inkscape:showpageshadow="2"
     inkscape:pageopacity="0.0"
     inkscape:pagecheckerboard="0"
     inkscape:deskcolor="#d1d1d1" />
  <g
     id="g8"
     inkscape:groupmode="layer"
     inkscape:label="Spline (1)"
     transform="matrix(1.3333333,0,0,-1.3333333,0,200)">
    <g
       id="g10"
       transform="translate(46.9709,36.5589)">
      <path
         d="M 0,0 28.465,59.884 56.931,0 Z"
         style="fill:#ffffff;fill-opacity:1;fill-rule:nonzero;stroke:none"
         id="path12" />
    </g>
    <g
       id="g14">
      <g
         id="g16"
         clip-path="url(#clipPath20)">
        <g
           id="g22"
           transform="translate(25.1671,55.1089)">
          <path
             d="M 0,0 C 0,27.522 22.311,49.833 49.833,49.833 77.355,49.833 99.666,27.522 99.666,0"
             style="fill:none;stroke:#000000;stroke-width:1.5;stroke-linecap:round;stroke-linejoin:round;stroke-miterlimit:10;stroke-dasharray:none;stroke-opacity:1"
             id="path24" />
        </g>
        <g
           id="g26"
           transform="translate(132.9485,55.1089)">
          <path
             d="m 0,0 c 0,-4.482 -3.633,-8.116 -8.116,-8.116 -4.482,0 -8.115,3.634 -8.115,8.116 0,4.482 3.633,8.116 8.115,8.116 C -3.633,8.116 0,4.482 0,0"
             style="fill:#bffeff;fill-opacity:1;fill-rule:nonzero;stroke:none"
             id="path28" />
        </g>
        <g
           id="g30"
           transform="translate(33.2827,55.1089)">
          <path
             d="m 0,0 c 0,-4.482 -3.633,-8.116 -8.116,-8.116 -4.482,0 -8.115,3.634 -8.115,8.116 0,4.482 3.633,8.116 8.115,8.116 C -3.633,8.116 0,4.482 0,0"
             style="fill:#bffeff;fill-opacity:1;fill-rule:nonzero;stroke:none"
             id="path32" />
        </g>
        <g
           id="g34"
           transform="translate(132.9485,55.1089)">
          <path
             d="m 0,0 c 0,-4.482 -3.633,-8.116 -8.116,-8.116 -4.482,0 -8.115,3.634 -8.115,8.116 0,4.482 3.633,8.116 8.115,8.116 C -3.633,8.116 0,4.482 0,0 Z"
             style="fill:none;stroke:#000000;stroke-width:1.5;stroke-linecap:round;stroke-linejoin:round;stroke-miterlimit:10;stroke-dasharray:none;stroke-opacity:1"
             id="path36" />
        </g>
        <g
           id="g38"
           transform="translate(33.2827,55.1089)">
          <path
             d="m 0,0 c 0,-4.482 -3.633,-8.116 -8.116,-8.116 -4.482,0 -8.115,3.634 -8.115,8.116 0,4.482 3.633,8.116 8.115,8.116 C -3.633,8.116 0,4.482 0,0 Z"
             style="fill:none;stroke:#000000;stroke-width:1.5;stroke-linecap:round;stroke-linejoin:round;stroke-miterlimit:10;stroke-dasharray:none;stroke-opacity:1"
             id="path40" />
        </g>
        <path
           d="M 83.936,96.442 H 66.937 v 16.999 h 16.999 z"
           style="fill:#bffeff;fill-opacity:1;fill-rule:nonzero;stroke:#000000;stroke-width:1.5;stroke-linecap:round;stroke-linejoin:round;stroke-miterlimit:10;stroke-dasharray:none;stroke-opacity:1"
           id="path42" />
        <g
           id="g44"
           transform="translate(46.9709,36.5589)">
          <path
             d="M 0,0 28.465,59.884 56.931,0 Z"
             style="fill:none;stroke:#000000;stroke-width:1.5;stroke-linecap:round;stroke-linejoin:round;stroke-miterlimit:10;stroke-dasharray:none;stroke-opacity:1"
             id="path46" />
        </g>
      </g>
    </g>
  </g>
</svg>
