<?xml version="1.0" encoding="UTF-8" standalone="no"?>
<!-- Created with Inkscape (http://www.inkscape.org/) -->

<svg
   version="1.1"
   id="svg2"
   width="200"
   height="200"
   viewBox="0 0 200 200"
   sodipodi:docname="Video Annotation.ai"
   xmlns:inkscape="http://www.inkscape.org/namespaces/inkscape"
   xmlns:sodipodi="http://sodipodi.sourceforge.net/DTD/sodipodi-0.dtd"
   xmlns="http://www.w3.org/2000/svg"
   xmlns:svg="http://www.w3.org/2000/svg">
  <defs
     id="defs6">
    <clipPath
       clipPathUnits="userSpaceOnUse"
       id="clipPath16">
      <path
         d="M 0,150 H 150 V 0 H 0 Z"
         id="path14" />
    </clipPath>
  </defs>
  <sodipodi:namedview
     id="namedview4"
     pagecolor="#ffffff"
     bordercolor="#000000"
     borderopacity="0.25"
     inkscape:showpageshadow="2"
     inkscape:pageopacity="0.0"
     inkscape:pagecheckerboard="0"
     inkscape:deskcolor="#d1d1d1" />
  <g
     id="g8"
     inkscape:groupmode="layer"
     inkscape:label="Video Annotation"
     transform="matrix(1.3333333,0,0,-1.3333333,0,200)">
    <g
       id="g10">
      <g
         id="g12"
         clip-path="url(#clipPath16)">
        <g
           id="g18"
           transform="translate(71.8321,92.7524)">
          <path
             d="m 0,0 c 0,-3.53 1.18,-6.78 3.17,-9.38 -2.83,-3.7 -7.28,-6.08 -12.29,-6.08 -8.54,0 -15.46,6.92 -15.46,15.46 0,8.53 6.92,15.46 15.46,15.46 5.01,0 9.46,-2.39 12.29,-6.08 C 1.18,6.78 0,3.53 0,0"
             style="fill:#ffffff;fill-opacity:1;fill-rule:nonzero;stroke:none"
             id="path20" />
        </g>
        <g
           id="g22"
           transform="translate(102.752,92.7524)">
          <path
             d="m 0,0 c 0,-8.54 -6.92,-15.46 -15.46,-15.46 -5.01,0 -9.46,2.38 -12.29,6.08 1.99,2.6 3.17,5.85 3.17,9.38 0,3.53 -1.18,6.78 -3.17,9.38 2.83,3.69 7.28,6.08 12.29,6.08 C -6.92,15.46 0,8.53 0,0"
             style="fill:#ffffff;fill-opacity:1;fill-rule:nonzero;stroke:none"
             id="path24" />
        </g>
        <g
           id="g26"
           transform="translate(86.5414,41.7874)">
          <path
             d="m 0,0 h -33.783 c -8.538,0 -15.46,6.922 -15.46,15.46 v 0 c 0,8.538 6.922,15.46 15.46,15.46 H 0 c 8.538,0 15.46,-6.922 15.46,-15.46 v 0 C 15.46,6.922 8.538,0 0,0"
             style="fill:#ffffff;fill-opacity:1;fill-rule:nonzero;stroke:none"
             id="path28" />
        </g>
        <g
           id="g30"
           transform="translate(86.5414,41.7874)">
          <path
             d="m 0,0 h -33.783 c -8.538,0 -15.46,6.922 -15.46,15.46 v 0 c 0,8.538 6.922,15.46 15.46,15.46 H 0 c 8.538,0 15.46,-6.922 15.46,-15.46 v 0 C 15.46,6.922 8.538,0 0,0 Z"
             style="fill:none;stroke:#000000;stroke-width:1.5;stroke-linecap:round;stroke-linejoin:round;stroke-miterlimit:10;stroke-dasharray:none;stroke-opacity:1"
             id="path32" />
        </g>
        <g
           id="g34"
           transform="translate(112.7012,41.7874)">
          <path
             d="m 0,0 h -3.783 c -8.538,0 -15.46,6.922 -15.46,15.46 v 0 c 0,8.538 6.922,15.46 15.46,15.46 H 0 Z"
             style="fill:#ffffff;fill-opacity:1;fill-rule:nonzero;stroke:none"
             id="path36" />
        </g>
        <g
           id="g38"
           transform="translate(112.7012,41.7874)">
          <path
             d="m 0,0 h -3.783 c -8.538,0 -15.46,6.922 -15.46,15.46 v 0 c 0,8.538 6.922,15.46 15.46,15.46 H 0 Z"
             style="fill:none;stroke:#000000;stroke-width:1.5;stroke-linecap:round;stroke-linejoin:round;stroke-miterlimit:10;stroke-dasharray:none;stroke-opacity:1"
             id="path40" />
        </g>
        <g
           id="g42"
           transform="translate(78.172,92.7524)">
          <path
             d="m 0,0 c 0,-3.53 -1.18,-6.78 -3.17,-9.38 -1.99,2.6 -3.17,5.85 -3.17,9.38 0,3.53 1.18,6.78 3.17,9.38 C -1.18,6.78 0,3.53 0,0"
             style="fill:#bffeff;fill-opacity:1;fill-rule:nonzero;stroke:none"
             id="path44" />
        </g>
        <g
           id="g46"
           transform="translate(71.8321,92.7524)">
          <path
             d="m 0,0 c 0,-3.53 1.18,-6.78 3.17,-9.38 -2.83,-3.7 -7.28,-6.08 -12.29,-6.08 -8.54,0 -15.46,6.92 -15.46,15.46 0,8.53 6.92,15.46 15.46,15.46 5.01,0 9.46,-2.39 12.29,-6.08 C 1.18,6.78 0,3.53 0,0 Z"
             style="fill:none;stroke:#000000;stroke-width:1.5;stroke-linecap:round;stroke-linejoin:round;stroke-miterlimit:10;stroke-dasharray:none;stroke-opacity:1"
             id="path48" />
        </g>
        <g
           id="g50"
           transform="translate(78.172,92.7524)">
          <path
             d="m 0,0 c 0,-3.53 -1.18,-6.78 -3.17,-9.38 -1.99,2.6 -3.17,5.85 -3.17,9.38 0,3.53 1.18,6.78 3.17,9.38 C -1.18,6.78 0,3.53 0,0 Z"
             style="fill:none;stroke:#000000;stroke-width:1.5;stroke-linecap:round;stroke-linejoin:round;stroke-miterlimit:10;stroke-dasharray:none;stroke-opacity:1"
             id="path52" />
        </g>
        <g
           id="g54"
           transform="translate(102.752,92.7524)">
          <path
             d="m 0,0 c 0,-8.54 -6.92,-15.46 -15.46,-15.46 -5.01,0 -9.46,2.38 -12.29,6.08 1.99,2.6 3.17,5.85 3.17,9.38 0,3.53 -1.18,6.78 -3.17,9.38 2.83,3.69 7.28,6.08 12.29,6.08 C -6.92,15.46 0,8.53 0,0 Z"
             style="fill:none;stroke:#000000;stroke-width:1.5;stroke-linecap:round;stroke-linejoin:round;stroke-miterlimit:10;stroke-dasharray:none;stroke-opacity:1"
             id="path56" />
        </g>
      </g>
    </g>
  </g>
</svg>
